G04 #@! TF.GenerationSoftware,KiCad,Pcbnew,7.0.8*
G04 #@! TF.CreationDate,2023-11-15T13:15:02+05:30*
G04 #@! TF.ProjectId,m5-atom-carrier-board,6d352d61-746f-46d2-9d63-617272696572,1*
G04 #@! TF.SameCoordinates,Original*
G04 #@! TF.FileFunction,Soldermask,Bot*
G04 #@! TF.FilePolarity,Negative*
%FSLAX46Y46*%
G04 Gerber Fmt 4.6, Leading zero omitted, Abs format (unit mm)*
G04 Created by KiCad (PCBNEW 7.0.8) date 2023-11-15 13:15:02*
%MOMM*%
%LPD*%
G01*
G04 APERTURE LIST*
G04 APERTURE END LIST*
G36*
X87467568Y-69224930D02*
G01*
X87514076Y-69224930D01*
X87554232Y-69233465D01*
X87595530Y-69237533D01*
X87647415Y-69253272D01*
X87698115Y-69264049D01*
X87730558Y-69278493D01*
X87764319Y-69288735D01*
X87817967Y-69317410D01*
X87870000Y-69340577D01*
X87894192Y-69358153D01*
X87919878Y-69371883D01*
X87972271Y-69414881D01*
X88022218Y-69451170D01*
X88038436Y-69469182D01*
X88056221Y-69483778D01*
X88104018Y-69542018D01*
X88148115Y-69590993D01*
X88157377Y-69607036D01*
X88168116Y-69620121D01*
X88207840Y-69694440D01*
X88242191Y-69753937D01*
X88246142Y-69766098D01*
X88251264Y-69775680D01*
X88279504Y-69868775D01*
X88300333Y-69932879D01*
X88301066Y-69939854D01*
X88302466Y-69944469D01*
X88316090Y-70082802D01*
X88320000Y-70120000D01*
X88316090Y-70157200D01*
X88302466Y-70295530D01*
X88301066Y-70300144D01*
X88300333Y-70307121D01*
X88279500Y-70371238D01*
X88251264Y-70464319D01*
X88246143Y-70473899D01*
X88242191Y-70486063D01*
X88207833Y-70545572D01*
X88168116Y-70619878D01*
X88157379Y-70632960D01*
X88148115Y-70649007D01*
X88104009Y-70697991D01*
X88056221Y-70756221D01*
X88038439Y-70770813D01*
X88022218Y-70788830D01*
X87972260Y-70825126D01*
X87919878Y-70868116D01*
X87894197Y-70881842D01*
X87870000Y-70899423D01*
X87817955Y-70922594D01*
X87764319Y-70951264D01*
X87730565Y-70961503D01*
X87698115Y-70975951D01*
X87647404Y-70986729D01*
X87595530Y-71002466D01*
X87554241Y-71006532D01*
X87514076Y-71015070D01*
X87467558Y-71015070D01*
X87420000Y-71019754D01*
X87372442Y-71015070D01*
X87325924Y-71015070D01*
X87285759Y-71006532D01*
X87244469Y-71002466D01*
X87192592Y-70986729D01*
X87141885Y-70975951D01*
X87109436Y-70961503D01*
X87075680Y-70951264D01*
X87022038Y-70922591D01*
X86970000Y-70899423D01*
X86945805Y-70881844D01*
X86920121Y-70868116D01*
X86867730Y-70825119D01*
X86817782Y-70788830D01*
X86801562Y-70770816D01*
X86783778Y-70756221D01*
X86735979Y-70697978D01*
X86691885Y-70649007D01*
X86682622Y-70632964D01*
X86671883Y-70619878D01*
X86632153Y-70545548D01*
X86597809Y-70486063D01*
X86593858Y-70473903D01*
X86588735Y-70464319D01*
X86560484Y-70371191D01*
X86539667Y-70307121D01*
X86538934Y-70300149D01*
X86537533Y-70295530D01*
X86523893Y-70157049D01*
X86520000Y-70120000D01*
X86523893Y-70082953D01*
X86537533Y-69944469D01*
X86538934Y-69939849D01*
X86539667Y-69932879D01*
X86560480Y-69868822D01*
X86588735Y-69775680D01*
X86593859Y-69766093D01*
X86597809Y-69753937D01*
X86632145Y-69694463D01*
X86671883Y-69620121D01*
X86682624Y-69607032D01*
X86691885Y-69590993D01*
X86735970Y-69542031D01*
X86783778Y-69483778D01*
X86801566Y-69469179D01*
X86817782Y-69451170D01*
X86867719Y-69414888D01*
X86920121Y-69371883D01*
X86945810Y-69358151D01*
X86970000Y-69340577D01*
X87022026Y-69317413D01*
X87075680Y-69288735D01*
X87109443Y-69278492D01*
X87141885Y-69264049D01*
X87192581Y-69253273D01*
X87244469Y-69237533D01*
X87285768Y-69233465D01*
X87325924Y-69224930D01*
X87372432Y-69224930D01*
X87420000Y-69220245D01*
X87467568Y-69224930D01*
G37*
G36*
X90007568Y-69224930D02*
G01*
X90054076Y-69224930D01*
X90094232Y-69233465D01*
X90135530Y-69237533D01*
X90187415Y-69253272D01*
X90238115Y-69264049D01*
X90270558Y-69278493D01*
X90304319Y-69288735D01*
X90357967Y-69317410D01*
X90410000Y-69340577D01*
X90434192Y-69358153D01*
X90459878Y-69371883D01*
X90512271Y-69414881D01*
X90562218Y-69451170D01*
X90578436Y-69469182D01*
X90596221Y-69483778D01*
X90644018Y-69542018D01*
X90688115Y-69590993D01*
X90697377Y-69607036D01*
X90708116Y-69620121D01*
X90747840Y-69694440D01*
X90782191Y-69753937D01*
X90786142Y-69766098D01*
X90791264Y-69775680D01*
X90819504Y-69868775D01*
X90840333Y-69932879D01*
X90841066Y-69939854D01*
X90842466Y-69944469D01*
X90856090Y-70082802D01*
X90860000Y-70120000D01*
X90856090Y-70157200D01*
X90842466Y-70295530D01*
X90841066Y-70300144D01*
X90840333Y-70307121D01*
X90819500Y-70371238D01*
X90791264Y-70464319D01*
X90786143Y-70473899D01*
X90782191Y-70486063D01*
X90747833Y-70545572D01*
X90708116Y-70619878D01*
X90697379Y-70632960D01*
X90688115Y-70649007D01*
X90644009Y-70697991D01*
X90596221Y-70756221D01*
X90578439Y-70770813D01*
X90562218Y-70788830D01*
X90512260Y-70825126D01*
X90459878Y-70868116D01*
X90434197Y-70881842D01*
X90410000Y-70899423D01*
X90357955Y-70922594D01*
X90304319Y-70951264D01*
X90270565Y-70961503D01*
X90238115Y-70975951D01*
X90187404Y-70986729D01*
X90135530Y-71002466D01*
X90094241Y-71006532D01*
X90054076Y-71015070D01*
X90007558Y-71015070D01*
X89960000Y-71019754D01*
X89912442Y-71015070D01*
X89865924Y-71015070D01*
X89825759Y-71006532D01*
X89784469Y-71002466D01*
X89732592Y-70986729D01*
X89681885Y-70975951D01*
X89649436Y-70961503D01*
X89615680Y-70951264D01*
X89562038Y-70922591D01*
X89510000Y-70899423D01*
X89485805Y-70881844D01*
X89460121Y-70868116D01*
X89407730Y-70825119D01*
X89357782Y-70788830D01*
X89341562Y-70770816D01*
X89323778Y-70756221D01*
X89275979Y-70697978D01*
X89231885Y-70649007D01*
X89222622Y-70632964D01*
X89211883Y-70619878D01*
X89172153Y-70545548D01*
X89137809Y-70486063D01*
X89133858Y-70473903D01*
X89128735Y-70464319D01*
X89100484Y-70371191D01*
X89079667Y-70307121D01*
X89078934Y-70300149D01*
X89077533Y-70295530D01*
X89063893Y-70157049D01*
X89060000Y-70120000D01*
X89063893Y-70082953D01*
X89077533Y-69944469D01*
X89078934Y-69939849D01*
X89079667Y-69932879D01*
X89100480Y-69868822D01*
X89128735Y-69775680D01*
X89133859Y-69766093D01*
X89137809Y-69753937D01*
X89172145Y-69694463D01*
X89211883Y-69620121D01*
X89222624Y-69607032D01*
X89231885Y-69590993D01*
X89275970Y-69542031D01*
X89323778Y-69483778D01*
X89341566Y-69469179D01*
X89357782Y-69451170D01*
X89407719Y-69414888D01*
X89460121Y-69371883D01*
X89485810Y-69358151D01*
X89510000Y-69340577D01*
X89562026Y-69317413D01*
X89615680Y-69288735D01*
X89649443Y-69278492D01*
X89681885Y-69264049D01*
X89732581Y-69253273D01*
X89784469Y-69237533D01*
X89825768Y-69233465D01*
X89865924Y-69224930D01*
X89912432Y-69224930D01*
X89960000Y-69220245D01*
X90007568Y-69224930D01*
G37*
G36*
X92547568Y-69224930D02*
G01*
X92594076Y-69224930D01*
X92634232Y-69233465D01*
X92675530Y-69237533D01*
X92727415Y-69253272D01*
X92778115Y-69264049D01*
X92810558Y-69278493D01*
X92844319Y-69288735D01*
X92897967Y-69317410D01*
X92950000Y-69340577D01*
X92974192Y-69358153D01*
X92999878Y-69371883D01*
X93052271Y-69414881D01*
X93102218Y-69451170D01*
X93118436Y-69469182D01*
X93136221Y-69483778D01*
X93184018Y-69542018D01*
X93228115Y-69590993D01*
X93237377Y-69607036D01*
X93248116Y-69620121D01*
X93287840Y-69694440D01*
X93322191Y-69753937D01*
X93326142Y-69766098D01*
X93331264Y-69775680D01*
X93359504Y-69868775D01*
X93380333Y-69932879D01*
X93381066Y-69939854D01*
X93382466Y-69944469D01*
X93396090Y-70082802D01*
X93400000Y-70120000D01*
X93396090Y-70157200D01*
X93382466Y-70295530D01*
X93381066Y-70300144D01*
X93380333Y-70307121D01*
X93359500Y-70371238D01*
X93331264Y-70464319D01*
X93326143Y-70473899D01*
X93322191Y-70486063D01*
X93287833Y-70545572D01*
X93248116Y-70619878D01*
X93237379Y-70632960D01*
X93228115Y-70649007D01*
X93184009Y-70697991D01*
X93136221Y-70756221D01*
X93118439Y-70770813D01*
X93102218Y-70788830D01*
X93052260Y-70825126D01*
X92999878Y-70868116D01*
X92974197Y-70881842D01*
X92950000Y-70899423D01*
X92897955Y-70922594D01*
X92844319Y-70951264D01*
X92810565Y-70961503D01*
X92778115Y-70975951D01*
X92727404Y-70986729D01*
X92675530Y-71002466D01*
X92634241Y-71006532D01*
X92594076Y-71015070D01*
X92547558Y-71015070D01*
X92500000Y-71019754D01*
X92452442Y-71015070D01*
X92405924Y-71015070D01*
X92365759Y-71006532D01*
X92324469Y-71002466D01*
X92272592Y-70986729D01*
X92221885Y-70975951D01*
X92189436Y-70961503D01*
X92155680Y-70951264D01*
X92102038Y-70922591D01*
X92050000Y-70899423D01*
X92025805Y-70881844D01*
X92000121Y-70868116D01*
X91947730Y-70825119D01*
X91897782Y-70788830D01*
X91881562Y-70770816D01*
X91863778Y-70756221D01*
X91815979Y-70697978D01*
X91771885Y-70649007D01*
X91762622Y-70632964D01*
X91751883Y-70619878D01*
X91712153Y-70545548D01*
X91677809Y-70486063D01*
X91673858Y-70473903D01*
X91668735Y-70464319D01*
X91640484Y-70371191D01*
X91619667Y-70307121D01*
X91618934Y-70300149D01*
X91617533Y-70295530D01*
X91603893Y-70157049D01*
X91600000Y-70120000D01*
X91603893Y-70082953D01*
X91617533Y-69944469D01*
X91618934Y-69939849D01*
X91619667Y-69932879D01*
X91640480Y-69868822D01*
X91668735Y-69775680D01*
X91673859Y-69766093D01*
X91677809Y-69753937D01*
X91712145Y-69694463D01*
X91751883Y-69620121D01*
X91762624Y-69607032D01*
X91771885Y-69590993D01*
X91815970Y-69542031D01*
X91863778Y-69483778D01*
X91881566Y-69469179D01*
X91897782Y-69451170D01*
X91947719Y-69414888D01*
X92000121Y-69371883D01*
X92025810Y-69358151D01*
X92050000Y-69340577D01*
X92102026Y-69317413D01*
X92155680Y-69288735D01*
X92189443Y-69278492D01*
X92221885Y-69264049D01*
X92272581Y-69253273D01*
X92324469Y-69237533D01*
X92365768Y-69233465D01*
X92405924Y-69224930D01*
X92452432Y-69224930D01*
X92500000Y-69220245D01*
X92547568Y-69224930D01*
G37*
G36*
X95087568Y-69224930D02*
G01*
X95134076Y-69224930D01*
X95174232Y-69233465D01*
X95215530Y-69237533D01*
X95267415Y-69253272D01*
X95318115Y-69264049D01*
X95350558Y-69278493D01*
X95384319Y-69288735D01*
X95437967Y-69317410D01*
X95490000Y-69340577D01*
X95514192Y-69358153D01*
X95539878Y-69371883D01*
X95592271Y-69414881D01*
X95642218Y-69451170D01*
X95658436Y-69469182D01*
X95676221Y-69483778D01*
X95724018Y-69542018D01*
X95768115Y-69590993D01*
X95777377Y-69607036D01*
X95788116Y-69620121D01*
X95827840Y-69694440D01*
X95862191Y-69753937D01*
X95866142Y-69766098D01*
X95871264Y-69775680D01*
X95899504Y-69868775D01*
X95920333Y-69932879D01*
X95921066Y-69939854D01*
X95922466Y-69944469D01*
X95936090Y-70082802D01*
X95940000Y-70120000D01*
X95936090Y-70157200D01*
X95922466Y-70295530D01*
X95921066Y-70300144D01*
X95920333Y-70307121D01*
X95899500Y-70371238D01*
X95871264Y-70464319D01*
X95866143Y-70473899D01*
X95862191Y-70486063D01*
X95827833Y-70545572D01*
X95788116Y-70619878D01*
X95777379Y-70632960D01*
X95768115Y-70649007D01*
X95724009Y-70697991D01*
X95676221Y-70756221D01*
X95658439Y-70770813D01*
X95642218Y-70788830D01*
X95592260Y-70825126D01*
X95539878Y-70868116D01*
X95514197Y-70881842D01*
X95490000Y-70899423D01*
X95437955Y-70922594D01*
X95384319Y-70951264D01*
X95350565Y-70961503D01*
X95318115Y-70975951D01*
X95267404Y-70986729D01*
X95215530Y-71002466D01*
X95174241Y-71006532D01*
X95134076Y-71015070D01*
X95087558Y-71015070D01*
X95040000Y-71019754D01*
X94992442Y-71015070D01*
X94945924Y-71015070D01*
X94905759Y-71006532D01*
X94864469Y-71002466D01*
X94812592Y-70986729D01*
X94761885Y-70975951D01*
X94729436Y-70961503D01*
X94695680Y-70951264D01*
X94642038Y-70922591D01*
X94590000Y-70899423D01*
X94565805Y-70881844D01*
X94540121Y-70868116D01*
X94487730Y-70825119D01*
X94437782Y-70788830D01*
X94421562Y-70770816D01*
X94403778Y-70756221D01*
X94355979Y-70697978D01*
X94311885Y-70649007D01*
X94302622Y-70632964D01*
X94291883Y-70619878D01*
X94252153Y-70545548D01*
X94217809Y-70486063D01*
X94213858Y-70473903D01*
X94208735Y-70464319D01*
X94180484Y-70371191D01*
X94159667Y-70307121D01*
X94158934Y-70300149D01*
X94157533Y-70295530D01*
X94143893Y-70157049D01*
X94140000Y-70120000D01*
X94143893Y-70082953D01*
X94157533Y-69944469D01*
X94158934Y-69939849D01*
X94159667Y-69932879D01*
X94180480Y-69868822D01*
X94208735Y-69775680D01*
X94213859Y-69766093D01*
X94217809Y-69753937D01*
X94252145Y-69694463D01*
X94291883Y-69620121D01*
X94302624Y-69607032D01*
X94311885Y-69590993D01*
X94355970Y-69542031D01*
X94403778Y-69483778D01*
X94421566Y-69469179D01*
X94437782Y-69451170D01*
X94487719Y-69414888D01*
X94540121Y-69371883D01*
X94565810Y-69358151D01*
X94590000Y-69340577D01*
X94642026Y-69317413D01*
X94695680Y-69288735D01*
X94729443Y-69278492D01*
X94761885Y-69264049D01*
X94812581Y-69253273D01*
X94864469Y-69237533D01*
X94905768Y-69233465D01*
X94945924Y-69224930D01*
X94992432Y-69224930D01*
X95040000Y-69220245D01*
X95087568Y-69224930D01*
G37*
G36*
X97627568Y-69224930D02*
G01*
X97674076Y-69224930D01*
X97714232Y-69233465D01*
X97755530Y-69237533D01*
X97807415Y-69253272D01*
X97858115Y-69264049D01*
X97890558Y-69278493D01*
X97924319Y-69288735D01*
X97977967Y-69317410D01*
X98030000Y-69340577D01*
X98054192Y-69358153D01*
X98079878Y-69371883D01*
X98132271Y-69414881D01*
X98182218Y-69451170D01*
X98198436Y-69469182D01*
X98216221Y-69483778D01*
X98264018Y-69542018D01*
X98308115Y-69590993D01*
X98317377Y-69607036D01*
X98328116Y-69620121D01*
X98367840Y-69694440D01*
X98402191Y-69753937D01*
X98406142Y-69766098D01*
X98411264Y-69775680D01*
X98439504Y-69868775D01*
X98460333Y-69932879D01*
X98461066Y-69939854D01*
X98462466Y-69944469D01*
X98476090Y-70082802D01*
X98480000Y-70120000D01*
X98476090Y-70157200D01*
X98462466Y-70295530D01*
X98461066Y-70300144D01*
X98460333Y-70307121D01*
X98439500Y-70371238D01*
X98411264Y-70464319D01*
X98406143Y-70473899D01*
X98402191Y-70486063D01*
X98367833Y-70545572D01*
X98328116Y-70619878D01*
X98317379Y-70632960D01*
X98308115Y-70649007D01*
X98264009Y-70697991D01*
X98216221Y-70756221D01*
X98198439Y-70770813D01*
X98182218Y-70788830D01*
X98132260Y-70825126D01*
X98079878Y-70868116D01*
X98054197Y-70881842D01*
X98030000Y-70899423D01*
X97977955Y-70922594D01*
X97924319Y-70951264D01*
X97890565Y-70961503D01*
X97858115Y-70975951D01*
X97807404Y-70986729D01*
X97755530Y-71002466D01*
X97714241Y-71006532D01*
X97674076Y-71015070D01*
X97627558Y-71015070D01*
X97580000Y-71019754D01*
X97532442Y-71015070D01*
X97485924Y-71015070D01*
X97445759Y-71006532D01*
X97404469Y-71002466D01*
X97352592Y-70986729D01*
X97301885Y-70975951D01*
X97269436Y-70961503D01*
X97235680Y-70951264D01*
X97182038Y-70922591D01*
X97130000Y-70899423D01*
X97105805Y-70881844D01*
X97080121Y-70868116D01*
X97027730Y-70825119D01*
X96977782Y-70788830D01*
X96961562Y-70770816D01*
X96943778Y-70756221D01*
X96895979Y-70697978D01*
X96851885Y-70649007D01*
X96842622Y-70632964D01*
X96831883Y-70619878D01*
X96792153Y-70545548D01*
X96757809Y-70486063D01*
X96753858Y-70473903D01*
X96748735Y-70464319D01*
X96720484Y-70371191D01*
X96699667Y-70307121D01*
X96698934Y-70300149D01*
X96697533Y-70295530D01*
X96683893Y-70157049D01*
X96680000Y-70120000D01*
X96683893Y-70082953D01*
X96697533Y-69944469D01*
X96698934Y-69939849D01*
X96699667Y-69932879D01*
X96720480Y-69868822D01*
X96748735Y-69775680D01*
X96753859Y-69766093D01*
X96757809Y-69753937D01*
X96792145Y-69694463D01*
X96831883Y-69620121D01*
X96842624Y-69607032D01*
X96851885Y-69590993D01*
X96895970Y-69542031D01*
X96943778Y-69483778D01*
X96961566Y-69469179D01*
X96977782Y-69451170D01*
X97027719Y-69414888D01*
X97080121Y-69371883D01*
X97105810Y-69358151D01*
X97130000Y-69340577D01*
X97182026Y-69317413D01*
X97235680Y-69288735D01*
X97269443Y-69278492D01*
X97301885Y-69264049D01*
X97352581Y-69253273D01*
X97404469Y-69237533D01*
X97445768Y-69233465D01*
X97485924Y-69224930D01*
X97532432Y-69224930D01*
X97580000Y-69220245D01*
X97627568Y-69224930D01*
G37*
G36*
X115762000Y-60762000D02*
G01*
X114238000Y-60762000D01*
X114238000Y-59238000D01*
X115762000Y-59238000D01*
X115762000Y-60762000D01*
G37*
G36*
X115169561Y-57257105D02*
G01*
X115330619Y-57313462D01*
X115475099Y-57404244D01*
X115595756Y-57524901D01*
X115686538Y-57669381D01*
X115742895Y-57830439D01*
X115762000Y-58000000D01*
X115742895Y-58169561D01*
X115686538Y-58330619D01*
X115595756Y-58475099D01*
X115475099Y-58595756D01*
X115330619Y-58686538D01*
X115169561Y-58742895D01*
X115000000Y-58762000D01*
X114830439Y-58742895D01*
X114669381Y-58686538D01*
X114524901Y-58595756D01*
X114404244Y-58475099D01*
X114313462Y-58330619D01*
X114257105Y-58169561D01*
X114238000Y-58000000D01*
X114257105Y-57830439D01*
X114313462Y-57669381D01*
X114404244Y-57524901D01*
X114524901Y-57404244D01*
X114669381Y-57313462D01*
X114830439Y-57257105D01*
X115000000Y-57238000D01*
X115169561Y-57257105D01*
G37*
G36*
X115169561Y-55257105D02*
G01*
X115330619Y-55313462D01*
X115475099Y-55404244D01*
X115595756Y-55524901D01*
X115686538Y-55669381D01*
X115742895Y-55830439D01*
X115762000Y-56000000D01*
X115742895Y-56169561D01*
X115686538Y-56330619D01*
X115595756Y-56475099D01*
X115475099Y-56595756D01*
X115330619Y-56686538D01*
X115169561Y-56742895D01*
X115000000Y-56762000D01*
X114830439Y-56742895D01*
X114669381Y-56686538D01*
X114524901Y-56595756D01*
X114404244Y-56475099D01*
X114313462Y-56330619D01*
X114257105Y-56169561D01*
X114238000Y-56000000D01*
X114257105Y-55830439D01*
X114313462Y-55669381D01*
X114404244Y-55524901D01*
X114524901Y-55404244D01*
X114669381Y-55313462D01*
X114830439Y-55257105D01*
X115000000Y-55238000D01*
X115169561Y-55257105D01*
G37*
G36*
X95940000Y-55780000D02*
G01*
X94140000Y-55780000D01*
X94140000Y-53980000D01*
X95940000Y-53980000D01*
X95940000Y-55780000D01*
G37*
G36*
X87467568Y-53984930D02*
G01*
X87514076Y-53984930D01*
X87554232Y-53993465D01*
X87595530Y-53997533D01*
X87647415Y-54013272D01*
X87698115Y-54024049D01*
X87730558Y-54038493D01*
X87764319Y-54048735D01*
X87817967Y-54077410D01*
X87870000Y-54100577D01*
X87894192Y-54118153D01*
X87919878Y-54131883D01*
X87972271Y-54174881D01*
X88022218Y-54211170D01*
X88038436Y-54229182D01*
X88056221Y-54243778D01*
X88104018Y-54302018D01*
X88148115Y-54350993D01*
X88157377Y-54367036D01*
X88168116Y-54380121D01*
X88207840Y-54454440D01*
X88242191Y-54513937D01*
X88246142Y-54526098D01*
X88251264Y-54535680D01*
X88279504Y-54628775D01*
X88300333Y-54692879D01*
X88301066Y-54699854D01*
X88302466Y-54704469D01*
X88316090Y-54842802D01*
X88320000Y-54880000D01*
X88316090Y-54917200D01*
X88302466Y-55055530D01*
X88301066Y-55060144D01*
X88300333Y-55067121D01*
X88279500Y-55131238D01*
X88251264Y-55224319D01*
X88246143Y-55233899D01*
X88242191Y-55246063D01*
X88207833Y-55305572D01*
X88168116Y-55379878D01*
X88157379Y-55392960D01*
X88148115Y-55409007D01*
X88104009Y-55457991D01*
X88056221Y-55516221D01*
X88038439Y-55530813D01*
X88022218Y-55548830D01*
X87972260Y-55585126D01*
X87919878Y-55628116D01*
X87894197Y-55641842D01*
X87870000Y-55659423D01*
X87817955Y-55682594D01*
X87764319Y-55711264D01*
X87730565Y-55721503D01*
X87698115Y-55735951D01*
X87647404Y-55746729D01*
X87595530Y-55762466D01*
X87554241Y-55766532D01*
X87514076Y-55775070D01*
X87467558Y-55775070D01*
X87420000Y-55779754D01*
X87372442Y-55775070D01*
X87325924Y-55775070D01*
X87285759Y-55766532D01*
X87244469Y-55762466D01*
X87192592Y-55746729D01*
X87141885Y-55735951D01*
X87109436Y-55721503D01*
X87075680Y-55711264D01*
X87022038Y-55682591D01*
X86970000Y-55659423D01*
X86945805Y-55641844D01*
X86920121Y-55628116D01*
X86867730Y-55585119D01*
X86817782Y-55548830D01*
X86801562Y-55530816D01*
X86783778Y-55516221D01*
X86735979Y-55457978D01*
X86691885Y-55409007D01*
X86682622Y-55392964D01*
X86671883Y-55379878D01*
X86632153Y-55305548D01*
X86597809Y-55246063D01*
X86593858Y-55233903D01*
X86588735Y-55224319D01*
X86560484Y-55131191D01*
X86539667Y-55067121D01*
X86538934Y-55060149D01*
X86537533Y-55055530D01*
X86523893Y-54917049D01*
X86520000Y-54880000D01*
X86523893Y-54842953D01*
X86537533Y-54704469D01*
X86538934Y-54699849D01*
X86539667Y-54692879D01*
X86560480Y-54628822D01*
X86588735Y-54535680D01*
X86593859Y-54526093D01*
X86597809Y-54513937D01*
X86632145Y-54454463D01*
X86671883Y-54380121D01*
X86682624Y-54367032D01*
X86691885Y-54350993D01*
X86735970Y-54302031D01*
X86783778Y-54243778D01*
X86801566Y-54229179D01*
X86817782Y-54211170D01*
X86867719Y-54174888D01*
X86920121Y-54131883D01*
X86945810Y-54118151D01*
X86970000Y-54100577D01*
X87022026Y-54077413D01*
X87075680Y-54048735D01*
X87109443Y-54038492D01*
X87141885Y-54024049D01*
X87192581Y-54013273D01*
X87244469Y-53997533D01*
X87285768Y-53993465D01*
X87325924Y-53984930D01*
X87372432Y-53984930D01*
X87420000Y-53980245D01*
X87467568Y-53984930D01*
G37*
G36*
X90007568Y-53984930D02*
G01*
X90054076Y-53984930D01*
X90094232Y-53993465D01*
X90135530Y-53997533D01*
X90187415Y-54013272D01*
X90238115Y-54024049D01*
X90270558Y-54038493D01*
X90304319Y-54048735D01*
X90357967Y-54077410D01*
X90410000Y-54100577D01*
X90434192Y-54118153D01*
X90459878Y-54131883D01*
X90512271Y-54174881D01*
X90562218Y-54211170D01*
X90578436Y-54229182D01*
X90596221Y-54243778D01*
X90644018Y-54302018D01*
X90688115Y-54350993D01*
X90697377Y-54367036D01*
X90708116Y-54380121D01*
X90747840Y-54454440D01*
X90782191Y-54513937D01*
X90786142Y-54526098D01*
X90791264Y-54535680D01*
X90819504Y-54628775D01*
X90840333Y-54692879D01*
X90841066Y-54699854D01*
X90842466Y-54704469D01*
X90856090Y-54842802D01*
X90860000Y-54880000D01*
X90856090Y-54917200D01*
X90842466Y-55055530D01*
X90841066Y-55060144D01*
X90840333Y-55067121D01*
X90819500Y-55131238D01*
X90791264Y-55224319D01*
X90786143Y-55233899D01*
X90782191Y-55246063D01*
X90747833Y-55305572D01*
X90708116Y-55379878D01*
X90697379Y-55392960D01*
X90688115Y-55409007D01*
X90644009Y-55457991D01*
X90596221Y-55516221D01*
X90578439Y-55530813D01*
X90562218Y-55548830D01*
X90512260Y-55585126D01*
X90459878Y-55628116D01*
X90434197Y-55641842D01*
X90410000Y-55659423D01*
X90357955Y-55682594D01*
X90304319Y-55711264D01*
X90270565Y-55721503D01*
X90238115Y-55735951D01*
X90187404Y-55746729D01*
X90135530Y-55762466D01*
X90094241Y-55766532D01*
X90054076Y-55775070D01*
X90007558Y-55775070D01*
X89960000Y-55779754D01*
X89912442Y-55775070D01*
X89865924Y-55775070D01*
X89825759Y-55766532D01*
X89784469Y-55762466D01*
X89732592Y-55746729D01*
X89681885Y-55735951D01*
X89649436Y-55721503D01*
X89615680Y-55711264D01*
X89562038Y-55682591D01*
X89510000Y-55659423D01*
X89485805Y-55641844D01*
X89460121Y-55628116D01*
X89407730Y-55585119D01*
X89357782Y-55548830D01*
X89341562Y-55530816D01*
X89323778Y-55516221D01*
X89275979Y-55457978D01*
X89231885Y-55409007D01*
X89222622Y-55392964D01*
X89211883Y-55379878D01*
X89172153Y-55305548D01*
X89137809Y-55246063D01*
X89133858Y-55233903D01*
X89128735Y-55224319D01*
X89100484Y-55131191D01*
X89079667Y-55067121D01*
X89078934Y-55060149D01*
X89077533Y-55055530D01*
X89063893Y-54917049D01*
X89060000Y-54880000D01*
X89063893Y-54842953D01*
X89077533Y-54704469D01*
X89078934Y-54699849D01*
X89079667Y-54692879D01*
X89100480Y-54628822D01*
X89128735Y-54535680D01*
X89133859Y-54526093D01*
X89137809Y-54513937D01*
X89172145Y-54454463D01*
X89211883Y-54380121D01*
X89222624Y-54367032D01*
X89231885Y-54350993D01*
X89275970Y-54302031D01*
X89323778Y-54243778D01*
X89341566Y-54229179D01*
X89357782Y-54211170D01*
X89407719Y-54174888D01*
X89460121Y-54131883D01*
X89485810Y-54118151D01*
X89510000Y-54100577D01*
X89562026Y-54077413D01*
X89615680Y-54048735D01*
X89649443Y-54038492D01*
X89681885Y-54024049D01*
X89732581Y-54013273D01*
X89784469Y-53997533D01*
X89825768Y-53993465D01*
X89865924Y-53984930D01*
X89912432Y-53984930D01*
X89960000Y-53980245D01*
X90007568Y-53984930D01*
G37*
G36*
X92547568Y-53984930D02*
G01*
X92594076Y-53984930D01*
X92634232Y-53993465D01*
X92675530Y-53997533D01*
X92727415Y-54013272D01*
X92778115Y-54024049D01*
X92810558Y-54038493D01*
X92844319Y-54048735D01*
X92897967Y-54077410D01*
X92950000Y-54100577D01*
X92974192Y-54118153D01*
X92999878Y-54131883D01*
X93052271Y-54174881D01*
X93102218Y-54211170D01*
X93118436Y-54229182D01*
X93136221Y-54243778D01*
X93184018Y-54302018D01*
X93228115Y-54350993D01*
X93237377Y-54367036D01*
X93248116Y-54380121D01*
X93287840Y-54454440D01*
X93322191Y-54513937D01*
X93326142Y-54526098D01*
X93331264Y-54535680D01*
X93359504Y-54628775D01*
X93380333Y-54692879D01*
X93381066Y-54699854D01*
X93382466Y-54704469D01*
X93396090Y-54842802D01*
X93400000Y-54880000D01*
X93396090Y-54917200D01*
X93382466Y-55055530D01*
X93381066Y-55060144D01*
X93380333Y-55067121D01*
X93359500Y-55131238D01*
X93331264Y-55224319D01*
X93326143Y-55233899D01*
X93322191Y-55246063D01*
X93287833Y-55305572D01*
X93248116Y-55379878D01*
X93237379Y-55392960D01*
X93228115Y-55409007D01*
X93184009Y-55457991D01*
X93136221Y-55516221D01*
X93118439Y-55530813D01*
X93102218Y-55548830D01*
X93052260Y-55585126D01*
X92999878Y-55628116D01*
X92974197Y-55641842D01*
X92950000Y-55659423D01*
X92897955Y-55682594D01*
X92844319Y-55711264D01*
X92810565Y-55721503D01*
X92778115Y-55735951D01*
X92727404Y-55746729D01*
X92675530Y-55762466D01*
X92634241Y-55766532D01*
X92594076Y-55775070D01*
X92547558Y-55775070D01*
X92500000Y-55779754D01*
X92452442Y-55775070D01*
X92405924Y-55775070D01*
X92365759Y-55766532D01*
X92324469Y-55762466D01*
X92272592Y-55746729D01*
X92221885Y-55735951D01*
X92189436Y-55721503D01*
X92155680Y-55711264D01*
X92102038Y-55682591D01*
X92050000Y-55659423D01*
X92025805Y-55641844D01*
X92000121Y-55628116D01*
X91947730Y-55585119D01*
X91897782Y-55548830D01*
X91881562Y-55530816D01*
X91863778Y-55516221D01*
X91815979Y-55457978D01*
X91771885Y-55409007D01*
X91762622Y-55392964D01*
X91751883Y-55379878D01*
X91712153Y-55305548D01*
X91677809Y-55246063D01*
X91673858Y-55233903D01*
X91668735Y-55224319D01*
X91640484Y-55131191D01*
X91619667Y-55067121D01*
X91618934Y-55060149D01*
X91617533Y-55055530D01*
X91603893Y-54917049D01*
X91600000Y-54880000D01*
X91603893Y-54842953D01*
X91617533Y-54704469D01*
X91618934Y-54699849D01*
X91619667Y-54692879D01*
X91640480Y-54628822D01*
X91668735Y-54535680D01*
X91673859Y-54526093D01*
X91677809Y-54513937D01*
X91712145Y-54454463D01*
X91751883Y-54380121D01*
X91762624Y-54367032D01*
X91771885Y-54350993D01*
X91815970Y-54302031D01*
X91863778Y-54243778D01*
X91881566Y-54229179D01*
X91897782Y-54211170D01*
X91947719Y-54174888D01*
X92000121Y-54131883D01*
X92025810Y-54118151D01*
X92050000Y-54100577D01*
X92102026Y-54077413D01*
X92155680Y-54048735D01*
X92189443Y-54038492D01*
X92221885Y-54024049D01*
X92272581Y-54013273D01*
X92324469Y-53997533D01*
X92365768Y-53993465D01*
X92405924Y-53984930D01*
X92452432Y-53984930D01*
X92500000Y-53980245D01*
X92547568Y-53984930D01*
G37*
G36*
X115169561Y-53257105D02*
G01*
X115330619Y-53313462D01*
X115475099Y-53404244D01*
X115595756Y-53524901D01*
X115686538Y-53669381D01*
X115742895Y-53830439D01*
X115762000Y-54000000D01*
X115742895Y-54169561D01*
X115686538Y-54330619D01*
X115595756Y-54475099D01*
X115475099Y-54595756D01*
X115330619Y-54686538D01*
X115169561Y-54742895D01*
X115000000Y-54762000D01*
X114830439Y-54742895D01*
X114669381Y-54686538D01*
X114524901Y-54595756D01*
X114404244Y-54475099D01*
X114313462Y-54330619D01*
X114257105Y-54169561D01*
X114238000Y-54000000D01*
X114257105Y-53830439D01*
X114313462Y-53669381D01*
X114404244Y-53524901D01*
X114524901Y-53404244D01*
X114669381Y-53313462D01*
X114830439Y-53257105D01*
X115000000Y-53238000D01*
X115169561Y-53257105D01*
G37*
M02*
