G04 #@! TF.GenerationSoftware,KiCad,Pcbnew,7.0.8*
G04 #@! TF.CreationDate,2023-11-15T13:01:11+05:30*
G04 #@! TF.ProjectId,m5-atom-carrier-board,6d352d61-746f-46d2-9d63-617272696572,1*
G04 #@! TF.SameCoordinates,Original*
G04 #@! TF.FileFunction,Legend,Top*
G04 #@! TF.FilePolarity,Positive*
%FSLAX46Y46*%
G04 Gerber Fmt 4.6, Leading zero omitted, Abs format (unit mm)*
G04 Created by KiCad (PCBNEW 7.0.8) date 2023-11-15 13:01:11*
%MOMM*%
%LPD*%
G01*
G04 APERTURE LIST*
G04 Aperture macros list*
%AMRoundRect*
0 Rectangle with rounded corners*
0 $1 Rounding radius*
0 $2 $3 $4 $5 $6 $7 $8 $9 X,Y pos of 4 corners*
0 Add a 4 corners polygon primitive as box body*
4,1,4,$2,$3,$4,$5,$6,$7,$8,$9,$2,$3,0*
0 Add four circle primitives for the rounded corners*
1,1,$1+$1,$2,$3*
1,1,$1+$1,$4,$5*
1,1,$1+$1,$6,$7*
1,1,$1+$1,$8,$9*
0 Add four rect primitives between the rounded corners*
20,1,$1+$1,$2,$3,$4,$5,0*
20,1,$1+$1,$4,$5,$6,$7,0*
20,1,$1+$1,$6,$7,$8,$9,0*
20,1,$1+$1,$8,$9,$2,$3,0*%
G04 Aperture macros list end*
%ADD10C,0.200000*%
%ADD11C,0.150000*%
%ADD12C,0.120000*%
%ADD13RoundRect,0.250000X-0.350000X-0.450000X0.350000X-0.450000X0.350000X0.450000X-0.350000X0.450000X0*%
%ADD14RoundRect,0.250000X-0.325000X-0.450000X0.325000X-0.450000X0.325000X0.450000X-0.325000X0.450000X0*%
%ADD15RoundRect,0.250000X0.350000X0.450000X-0.350000X0.450000X-0.350000X-0.450000X0.350000X-0.450000X0*%
%ADD16R,1.800000X1.800000*%
%ADD17C,1.800000*%
%ADD18R,1.524000X1.524000*%
%ADD19C,1.524000*%
%ADD20R,1.100000X1.800000*%
G04 APERTURE END LIST*
D10*
G36*
X98291637Y-68945863D02*
G01*
X96805923Y-68945863D01*
X96805923Y-68512530D01*
X96948780Y-68512530D01*
X96955904Y-68534456D01*
X96959338Y-68557252D01*
X97006958Y-68652490D01*
X97018330Y-68664036D01*
X97025689Y-68678479D01*
X97073308Y-68726097D01*
X97087749Y-68733455D01*
X97099298Y-68744830D01*
X97194535Y-68792449D01*
X97217333Y-68795882D01*
X97239257Y-68803006D01*
X97477352Y-68803006D01*
X97499275Y-68795882D01*
X97522073Y-68792449D01*
X97617311Y-68744830D01*
X97628858Y-68733456D01*
X97643301Y-68726098D01*
X97690919Y-68678479D01*
X97698277Y-68664037D01*
X97709652Y-68652489D01*
X97749076Y-68573641D01*
X97982930Y-68778264D01*
X98001517Y-68786225D01*
X98017878Y-68798112D01*
X98029270Y-68798112D01*
X98039741Y-68802597D01*
X98059460Y-68798112D01*
X98079682Y-68798112D01*
X98088897Y-68791416D01*
X98100006Y-68788890D01*
X98113323Y-68773670D01*
X98129682Y-68761785D01*
X98133201Y-68750951D01*
X98140704Y-68742378D01*
X98142531Y-68722235D01*
X98148780Y-68703006D01*
X98148780Y-68083959D01*
X98129682Y-68025180D01*
X98079682Y-67988853D01*
X98017878Y-67988853D01*
X97967878Y-68025180D01*
X97948780Y-68083959D01*
X97948780Y-68482628D01*
X97733678Y-68294415D01*
X97715090Y-68286453D01*
X97698730Y-68274567D01*
X97687338Y-68274567D01*
X97676867Y-68270082D01*
X97657148Y-68274567D01*
X97636926Y-68274567D01*
X97627710Y-68281262D01*
X97616603Y-68283789D01*
X97603286Y-68299007D01*
X97586926Y-68310894D01*
X97583406Y-68321727D01*
X97575904Y-68330301D01*
X97574076Y-68350443D01*
X97567828Y-68369673D01*
X97567828Y-68488923D01*
X97538023Y-68548532D01*
X97513354Y-68573200D01*
X97453745Y-68603006D01*
X97262864Y-68603006D01*
X97203254Y-68573201D01*
X97178583Y-68548530D01*
X97148780Y-68488923D01*
X97148780Y-68250422D01*
X97178583Y-68190815D01*
X97214729Y-68154670D01*
X97242788Y-68099603D01*
X97233120Y-68038560D01*
X97189418Y-67994858D01*
X97128375Y-67985190D01*
X97073308Y-68013249D01*
X97025689Y-68060867D01*
X97018330Y-68075309D01*
X97006958Y-68086856D01*
X96959338Y-68182094D01*
X96955904Y-68204889D01*
X96948780Y-68226816D01*
X96948780Y-68512530D01*
X96805923Y-68512530D01*
X96805923Y-67513289D01*
X96948782Y-67513289D01*
X96958318Y-67541898D01*
X96967434Y-67570693D01*
X96968075Y-67571166D01*
X96968327Y-67571921D01*
X96992878Y-67589475D01*
X97017157Y-67607398D01*
X98017157Y-67940731D01*
X98078959Y-67941201D01*
X98129233Y-67905254D01*
X98148777Y-67846622D01*
X98130126Y-67787700D01*
X98080402Y-67750995D01*
X97365007Y-67512530D01*
X98080402Y-67274065D01*
X98130126Y-67237360D01*
X98148777Y-67178438D01*
X98129233Y-67119806D01*
X98078959Y-67083859D01*
X98017157Y-67084329D01*
X97017157Y-67417662D01*
X96992878Y-67435584D01*
X96968327Y-67453139D01*
X96968075Y-67453893D01*
X96967434Y-67454367D01*
X96958318Y-67483161D01*
X96948782Y-67511771D01*
X96949022Y-67512530D01*
X96948782Y-67513289D01*
X96805923Y-67513289D01*
X96805923Y-66703006D01*
X96948780Y-66703006D01*
X96955904Y-66724932D01*
X96959338Y-66747728D01*
X97006958Y-66842966D01*
X97018330Y-66854512D01*
X97025689Y-66868955D01*
X97073308Y-66916573D01*
X97087749Y-66923931D01*
X97099298Y-66935306D01*
X97194535Y-66982925D01*
X97217333Y-66986358D01*
X97239257Y-66993482D01*
X97477352Y-66993482D01*
X97499275Y-66986358D01*
X97522073Y-66982925D01*
X97617311Y-66935306D01*
X97628858Y-66923932D01*
X97643301Y-66916574D01*
X97690919Y-66868955D01*
X97698277Y-66854513D01*
X97709652Y-66842965D01*
X97749076Y-66764117D01*
X97982930Y-66968740D01*
X98001517Y-66976701D01*
X98017878Y-66988588D01*
X98029270Y-66988588D01*
X98039741Y-66993073D01*
X98059460Y-66988588D01*
X98079682Y-66988588D01*
X98088897Y-66981892D01*
X98100006Y-66979366D01*
X98113323Y-66964146D01*
X98129682Y-66952261D01*
X98133201Y-66941427D01*
X98140704Y-66932854D01*
X98142531Y-66912711D01*
X98148780Y-66893482D01*
X98148780Y-66274435D01*
X98129682Y-66215656D01*
X98079682Y-66179329D01*
X98017878Y-66179329D01*
X97967878Y-66215656D01*
X97948780Y-66274435D01*
X97948780Y-66673104D01*
X97733678Y-66484891D01*
X97715090Y-66476929D01*
X97698730Y-66465043D01*
X97687338Y-66465043D01*
X97676867Y-66460558D01*
X97657148Y-66465043D01*
X97636926Y-66465043D01*
X97627710Y-66471738D01*
X97616603Y-66474265D01*
X97603286Y-66489483D01*
X97586926Y-66501370D01*
X97583406Y-66512203D01*
X97575904Y-66520777D01*
X97574076Y-66540919D01*
X97567828Y-66560149D01*
X97567828Y-66679399D01*
X97538023Y-66739008D01*
X97513354Y-66763676D01*
X97453745Y-66793482D01*
X97262864Y-66793482D01*
X97203254Y-66763677D01*
X97178583Y-66739006D01*
X97148780Y-66679399D01*
X97148780Y-66440898D01*
X97178583Y-66381291D01*
X97214729Y-66345146D01*
X97242788Y-66290079D01*
X97233120Y-66229036D01*
X97189418Y-66185334D01*
X97128375Y-66175666D01*
X97073308Y-66203725D01*
X97025689Y-66251343D01*
X97018330Y-66265785D01*
X97006958Y-66277332D01*
X96959338Y-66372570D01*
X96955904Y-66395365D01*
X96948780Y-66417292D01*
X96948780Y-66703006D01*
X96805923Y-66703006D01*
X96805923Y-66032809D01*
X98291637Y-66032809D01*
X98291637Y-68945863D01*
G37*
G36*
X92868780Y-58275827D02*
G01*
X92833758Y-58380891D01*
X92766686Y-58447963D01*
X92695780Y-58483416D01*
X92527899Y-58525387D01*
X92409661Y-58525387D01*
X92241780Y-58483416D01*
X92170875Y-58447964D01*
X92103802Y-58380891D01*
X92068780Y-58275826D01*
X92068780Y-58153959D01*
X92868780Y-58153959D01*
X92868780Y-58275827D01*
G37*
G36*
X93211637Y-58868244D02*
G01*
X91725923Y-58868244D01*
X91725923Y-58292054D01*
X91868780Y-58292054D01*
X91873788Y-58307469D01*
X91873912Y-58323677D01*
X91921532Y-58466535D01*
X91935223Y-58485081D01*
X91945689Y-58505622D01*
X92040927Y-58600860D01*
X92055369Y-58608218D01*
X92066917Y-58619592D01*
X92162154Y-58667211D01*
X92173175Y-58668871D01*
X92182622Y-58674782D01*
X92373098Y-58722401D01*
X92385514Y-58721540D01*
X92397352Y-58725387D01*
X92540209Y-58725387D01*
X92552046Y-58721540D01*
X92564463Y-58722401D01*
X92754938Y-58674782D01*
X92764384Y-58668871D01*
X92775406Y-58667211D01*
X92870644Y-58619592D01*
X92882191Y-58608218D01*
X92896634Y-58600860D01*
X92991872Y-58505622D01*
X93002338Y-58485080D01*
X93016029Y-58466534D01*
X93063648Y-58323677D01*
X93063771Y-58307469D01*
X93068780Y-58292054D01*
X93068780Y-58053959D01*
X93063886Y-58038896D01*
X93063886Y-58023057D01*
X93054576Y-58010243D01*
X93049682Y-57995180D01*
X93036868Y-57985870D01*
X93027559Y-57973057D01*
X93012495Y-57968162D01*
X92999682Y-57958853D01*
X92983843Y-57958853D01*
X92968780Y-57953959D01*
X91968780Y-57953959D01*
X91953717Y-57958853D01*
X91937878Y-57958853D01*
X91925064Y-57968162D01*
X91910001Y-57973057D01*
X91900691Y-57985870D01*
X91887878Y-57995180D01*
X91882983Y-58010243D01*
X91873674Y-58023057D01*
X91873674Y-58038896D01*
X91868780Y-58053959D01*
X91868780Y-58292054D01*
X91725923Y-58292054D01*
X91725923Y-57625387D01*
X91868780Y-57625387D01*
X91887878Y-57684166D01*
X91937878Y-57720493D01*
X91999682Y-57720493D01*
X92049682Y-57684166D01*
X92068780Y-57625387D01*
X92068780Y-57249197D01*
X92392590Y-57249197D01*
X92392590Y-57482530D01*
X92411688Y-57541309D01*
X92461688Y-57577636D01*
X92523492Y-57577636D01*
X92573492Y-57541309D01*
X92592590Y-57482530D01*
X92592590Y-57249197D01*
X92868780Y-57249197D01*
X92868780Y-57625387D01*
X92887878Y-57684166D01*
X92937878Y-57720493D01*
X92999682Y-57720493D01*
X93049682Y-57684166D01*
X93068780Y-57625387D01*
X93068780Y-57149197D01*
X93063886Y-57134134D01*
X93063886Y-57118295D01*
X93054576Y-57105481D01*
X93049682Y-57090418D01*
X93036868Y-57081108D01*
X93027559Y-57068295D01*
X93012495Y-57063400D01*
X92999682Y-57054091D01*
X92983843Y-57054091D01*
X92968780Y-57049197D01*
X91968780Y-57049197D01*
X91953717Y-57054091D01*
X91937878Y-57054091D01*
X91925064Y-57063400D01*
X91910001Y-57068295D01*
X91900691Y-57081108D01*
X91887878Y-57090418D01*
X91882983Y-57105481D01*
X91873674Y-57118295D01*
X91873674Y-57134134D01*
X91868780Y-57149197D01*
X91868780Y-57625387D01*
X91725923Y-57625387D01*
X91725923Y-56815863D01*
X91868780Y-56815863D01*
X91887878Y-56874642D01*
X91937878Y-56910969D01*
X91999682Y-56910969D01*
X92049682Y-56874642D01*
X92068780Y-56815863D01*
X92068780Y-56439673D01*
X92968780Y-56439673D01*
X93027559Y-56420575D01*
X93063886Y-56370575D01*
X93063886Y-56308771D01*
X93027559Y-56258771D01*
X92968780Y-56239673D01*
X91968780Y-56239673D01*
X91953717Y-56244567D01*
X91937878Y-56244567D01*
X91925064Y-56253876D01*
X91910001Y-56258771D01*
X91900691Y-56271584D01*
X91887878Y-56280894D01*
X91882983Y-56295957D01*
X91873674Y-56308771D01*
X91873674Y-56324610D01*
X91868780Y-56339673D01*
X91868780Y-56815863D01*
X91725923Y-56815863D01*
X91725923Y-56096816D01*
X93211637Y-56096816D01*
X93211637Y-58868244D01*
G37*
G36*
X87788780Y-58609160D02*
G01*
X87753758Y-58714224D01*
X87686686Y-58781296D01*
X87615780Y-58816749D01*
X87447899Y-58858720D01*
X87329661Y-58858720D01*
X87161780Y-58816749D01*
X87090875Y-58781297D01*
X87023802Y-58714224D01*
X86988780Y-58609159D01*
X86988780Y-58487292D01*
X87788780Y-58487292D01*
X87788780Y-58609160D01*
G37*
G36*
X88131637Y-59201577D02*
G01*
X86645923Y-59201577D01*
X86645923Y-58625387D01*
X86788780Y-58625387D01*
X86793788Y-58640802D01*
X86793912Y-58657010D01*
X86841532Y-58799868D01*
X86855223Y-58818414D01*
X86865689Y-58838955D01*
X86960927Y-58934193D01*
X86975369Y-58941551D01*
X86986917Y-58952925D01*
X87082154Y-59000544D01*
X87093175Y-59002204D01*
X87102622Y-59008115D01*
X87293098Y-59055734D01*
X87305514Y-59054873D01*
X87317352Y-59058720D01*
X87460209Y-59058720D01*
X87472046Y-59054873D01*
X87484463Y-59055734D01*
X87674938Y-59008115D01*
X87684384Y-59002204D01*
X87695406Y-59000544D01*
X87790644Y-58952925D01*
X87802191Y-58941551D01*
X87816634Y-58934193D01*
X87911872Y-58838955D01*
X87922338Y-58818413D01*
X87936029Y-58799867D01*
X87983648Y-58657010D01*
X87983771Y-58640802D01*
X87988780Y-58625387D01*
X87988780Y-58387292D01*
X87983886Y-58372229D01*
X87983886Y-58356390D01*
X87974576Y-58343576D01*
X87969682Y-58328513D01*
X87956868Y-58319203D01*
X87947559Y-58306390D01*
X87932495Y-58301495D01*
X87919682Y-58292186D01*
X87903843Y-58292186D01*
X87888780Y-58287292D01*
X86888780Y-58287292D01*
X86873717Y-58292186D01*
X86857878Y-58292186D01*
X86845064Y-58301495D01*
X86830001Y-58306390D01*
X86820691Y-58319203D01*
X86807878Y-58328513D01*
X86802983Y-58343576D01*
X86793674Y-58356390D01*
X86793674Y-58372229D01*
X86788780Y-58387292D01*
X86788780Y-58625387D01*
X86645923Y-58625387D01*
X86645923Y-57931456D01*
X86790873Y-57931456D01*
X86793674Y-57936357D01*
X86793674Y-57942003D01*
X86808785Y-57962802D01*
X86821537Y-57985117D01*
X86826682Y-57987435D01*
X86830001Y-57992003D01*
X86854447Y-57999946D01*
X86877884Y-58010506D01*
X86883411Y-58009356D01*
X86888780Y-58011101D01*
X87888780Y-58011101D01*
X87947559Y-57992003D01*
X87983886Y-57942003D01*
X87983886Y-57880199D01*
X87947559Y-57830199D01*
X87888780Y-57811101D01*
X87265336Y-57811101D01*
X87938394Y-57426497D01*
X87942189Y-57422319D01*
X87947559Y-57420575D01*
X87962670Y-57399776D01*
X87979953Y-57380753D01*
X87980568Y-57375141D01*
X87983886Y-57370575D01*
X87983886Y-57344871D01*
X87986687Y-57319318D01*
X87983886Y-57314416D01*
X87983886Y-57308771D01*
X87968777Y-57287975D01*
X87956024Y-57265657D01*
X87950877Y-57263337D01*
X87947559Y-57258771D01*
X87923113Y-57250828D01*
X87899676Y-57240268D01*
X87894148Y-57241417D01*
X87888780Y-57239673D01*
X86888780Y-57239673D01*
X86830001Y-57258771D01*
X86793674Y-57308771D01*
X86793674Y-57370575D01*
X86830001Y-57420575D01*
X86888780Y-57439673D01*
X87512224Y-57439673D01*
X86839166Y-57824277D01*
X86835370Y-57828454D01*
X86830001Y-57830199D01*
X86814889Y-57850997D01*
X86797607Y-57870021D01*
X86796991Y-57875632D01*
X86793674Y-57880199D01*
X86793674Y-57905902D01*
X86790873Y-57931456D01*
X86645923Y-57931456D01*
X86645923Y-56720625D01*
X86788780Y-56720625D01*
X86793788Y-56736040D01*
X86793912Y-56752248D01*
X86841532Y-56895106D01*
X86855223Y-56913652D01*
X86865689Y-56934193D01*
X86913308Y-56981811D01*
X86920496Y-56985473D01*
X86925240Y-56992003D01*
X86947512Y-56999239D01*
X86968375Y-57009870D01*
X86976345Y-57008607D01*
X86984019Y-57011101D01*
X87317352Y-57011101D01*
X87332415Y-57006207D01*
X87348254Y-57006207D01*
X87361067Y-56996897D01*
X87376131Y-56992003D01*
X87385440Y-56979189D01*
X87398254Y-56969880D01*
X87403148Y-56954816D01*
X87412458Y-56942003D01*
X87412458Y-56926163D01*
X87417352Y-56911101D01*
X87417352Y-56720625D01*
X87398254Y-56661846D01*
X87348254Y-56625519D01*
X87286450Y-56625519D01*
X87236450Y-56661846D01*
X87217352Y-56720625D01*
X87217352Y-56811101D01*
X87025441Y-56811101D01*
X87023802Y-56809462D01*
X86988780Y-56704397D01*
X86988780Y-56641614D01*
X87023802Y-56536549D01*
X87090875Y-56469477D01*
X87161780Y-56434024D01*
X87329661Y-56392054D01*
X87447899Y-56392054D01*
X87615780Y-56434024D01*
X87686686Y-56469477D01*
X87753758Y-56536549D01*
X87788780Y-56641613D01*
X87788780Y-56744637D01*
X87751718Y-56818761D01*
X87742513Y-56879875D01*
X87770989Y-56934728D01*
X87826268Y-56962367D01*
X87887235Y-56952236D01*
X87930604Y-56908203D01*
X87978223Y-56812966D01*
X87981656Y-56790167D01*
X87988780Y-56768244D01*
X87988780Y-56625387D01*
X87983771Y-56609971D01*
X87983648Y-56593764D01*
X87936029Y-56450907D01*
X87922338Y-56432360D01*
X87911872Y-56411819D01*
X87816634Y-56316581D01*
X87802191Y-56309222D01*
X87790644Y-56297849D01*
X87695406Y-56250230D01*
X87684384Y-56248569D01*
X87674938Y-56242659D01*
X87484463Y-56195040D01*
X87472046Y-56195900D01*
X87460209Y-56192054D01*
X87317352Y-56192054D01*
X87305514Y-56195900D01*
X87293098Y-56195040D01*
X87102622Y-56242659D01*
X87093175Y-56248569D01*
X87082154Y-56250230D01*
X86986917Y-56297849D01*
X86975369Y-56309222D01*
X86960927Y-56316581D01*
X86865689Y-56411819D01*
X86855223Y-56432359D01*
X86841532Y-56450906D01*
X86793912Y-56593764D01*
X86793788Y-56609971D01*
X86788780Y-56625387D01*
X86788780Y-56720625D01*
X86645923Y-56720625D01*
X86645923Y-56049197D01*
X88131637Y-56049197D01*
X88131637Y-59201577D01*
G37*
G36*
X95751637Y-60965863D02*
G01*
X94265923Y-60965863D01*
X94265923Y-60753908D01*
X94413674Y-60753908D01*
X94450001Y-60803908D01*
X94508780Y-60823006D01*
X95032590Y-60823006D01*
X95054513Y-60815882D01*
X95077311Y-60812449D01*
X95172549Y-60764830D01*
X95173115Y-60764271D01*
X95173902Y-60764141D01*
X95195079Y-60742638D01*
X95216582Y-60721461D01*
X95216712Y-60720674D01*
X95217271Y-60720108D01*
X95264890Y-60624871D01*
X95268323Y-60602072D01*
X95275447Y-60580149D01*
X95275447Y-60437292D01*
X95268323Y-60415368D01*
X95265171Y-60394435D01*
X95508780Y-60394435D01*
X95567559Y-60375337D01*
X95603886Y-60325337D01*
X95603886Y-60263533D01*
X95567559Y-60213533D01*
X95508780Y-60194435D01*
X94508780Y-60194435D01*
X94450001Y-60213533D01*
X94413674Y-60263533D01*
X94413674Y-60325337D01*
X94450001Y-60375337D01*
X94508780Y-60394435D01*
X95038788Y-60394435D01*
X95045642Y-60401289D01*
X95075447Y-60460899D01*
X95075447Y-60556542D01*
X95053292Y-60600850D01*
X95008983Y-60623006D01*
X94508780Y-60623006D01*
X94450001Y-60642104D01*
X94413674Y-60692104D01*
X94413674Y-60753908D01*
X94265923Y-60753908D01*
X94265923Y-59770625D01*
X94408780Y-59770625D01*
X94415904Y-59792551D01*
X94419338Y-59815347D01*
X94466958Y-59910585D01*
X94510327Y-59954618D01*
X94571294Y-59964748D01*
X94626573Y-59937108D01*
X94655048Y-59882255D01*
X94645842Y-59821141D01*
X94608780Y-59747018D01*
X94608780Y-59603755D01*
X94638583Y-59544148D01*
X94663254Y-59519477D01*
X94722864Y-59489673D01*
X94961364Y-59489673D01*
X95020973Y-59519478D01*
X95045642Y-59544146D01*
X95075447Y-59603756D01*
X95075447Y-59747018D01*
X95038385Y-59821142D01*
X95029180Y-59882256D01*
X95057656Y-59937109D01*
X95112935Y-59964748D01*
X95173902Y-59954617D01*
X95217271Y-59910584D01*
X95264890Y-59815347D01*
X95268323Y-59792548D01*
X95275447Y-59770625D01*
X95275447Y-59580149D01*
X95268323Y-59558225D01*
X95264890Y-59535427D01*
X95217271Y-59440190D01*
X95205896Y-59428641D01*
X95198538Y-59414200D01*
X95150920Y-59366581D01*
X95136477Y-59359222D01*
X95124930Y-59347849D01*
X95029692Y-59300230D01*
X95006894Y-59296796D01*
X94984971Y-59289673D01*
X94699257Y-59289673D01*
X94677333Y-59296796D01*
X94654535Y-59300230D01*
X94559298Y-59347849D01*
X94547749Y-59359223D01*
X94533308Y-59366582D01*
X94485689Y-59414200D01*
X94478330Y-59428642D01*
X94466958Y-59440189D01*
X94419338Y-59535427D01*
X94415904Y-59558222D01*
X94408780Y-59580149D01*
X94408780Y-59770625D01*
X94265923Y-59770625D01*
X94265923Y-59103958D01*
X94408780Y-59103958D01*
X94427878Y-59162737D01*
X94477878Y-59199064D01*
X94539682Y-59199064D01*
X94589682Y-59162737D01*
X94608780Y-59103958D01*
X94608780Y-59032326D01*
X94630934Y-58988018D01*
X94675245Y-58965863D01*
X95075447Y-58965863D01*
X95075447Y-59103958D01*
X95094545Y-59162737D01*
X95144545Y-59199064D01*
X95206349Y-59199064D01*
X95256349Y-59162737D01*
X95275447Y-59103958D01*
X95275447Y-58965863D01*
X95508780Y-58965863D01*
X95567559Y-58946765D01*
X95603886Y-58896765D01*
X95603886Y-58834961D01*
X95567559Y-58784961D01*
X95508780Y-58765863D01*
X95275447Y-58765863D01*
X95275447Y-58723006D01*
X95256349Y-58664227D01*
X95206349Y-58627900D01*
X95144545Y-58627900D01*
X95094545Y-58664227D01*
X95075447Y-58723006D01*
X95075447Y-58765863D01*
X94651638Y-58765863D01*
X94629714Y-58772986D01*
X94606916Y-58776420D01*
X94511679Y-58824039D01*
X94511113Y-58824596D01*
X94510327Y-58824727D01*
X94489148Y-58846229D01*
X94467646Y-58867408D01*
X94467515Y-58868194D01*
X94466958Y-58868760D01*
X94419338Y-58963998D01*
X94415904Y-58986793D01*
X94408780Y-59008720D01*
X94408780Y-59103958D01*
X94265923Y-59103958D01*
X94265923Y-58420575D01*
X94413674Y-58420575D01*
X94450001Y-58470575D01*
X94508780Y-58489673D01*
X95175447Y-58489673D01*
X95234226Y-58470575D01*
X95270553Y-58420575D01*
X95270553Y-58405316D01*
X95314773Y-58405316D01*
X95318436Y-58412505D01*
X95318436Y-58420575D01*
X95323178Y-58427102D01*
X95324441Y-58435072D01*
X95335640Y-58446271D01*
X95342831Y-58460384D01*
X95390450Y-58508002D01*
X95404561Y-58515192D01*
X95415762Y-58526393D01*
X95431405Y-58528870D01*
X95445517Y-58536061D01*
X95461160Y-58533583D01*
X95476804Y-58536061D01*
X95490916Y-58528870D01*
X95506560Y-58526393D01*
X95517759Y-58515193D01*
X95531872Y-58508003D01*
X95579490Y-58460384D01*
X95586680Y-58446272D01*
X95597881Y-58435072D01*
X95599143Y-58427103D01*
X95603886Y-58420575D01*
X95603886Y-58412505D01*
X95607549Y-58405317D01*
X95605071Y-58389673D01*
X95607549Y-58374029D01*
X95603886Y-58366840D01*
X95603886Y-58358771D01*
X95599143Y-58352242D01*
X95597881Y-58344274D01*
X95586680Y-58333073D01*
X95579490Y-58318962D01*
X95531872Y-58271343D01*
X95517759Y-58264152D01*
X95506560Y-58252953D01*
X95490916Y-58250475D01*
X95476804Y-58243285D01*
X95461160Y-58245762D01*
X95445517Y-58243285D01*
X95431405Y-58250475D01*
X95415762Y-58252953D01*
X95404561Y-58264153D01*
X95390450Y-58271344D01*
X95342831Y-58318962D01*
X95335640Y-58333074D01*
X95324441Y-58344274D01*
X95323178Y-58352243D01*
X95318436Y-58358771D01*
X95318436Y-58366840D01*
X95314773Y-58374030D01*
X95317250Y-58389673D01*
X95314773Y-58405316D01*
X95270553Y-58405316D01*
X95270553Y-58358771D01*
X95234226Y-58308771D01*
X95175447Y-58289673D01*
X94508780Y-58289673D01*
X94450001Y-58308771D01*
X94413674Y-58358771D01*
X94413674Y-58420575D01*
X94265923Y-58420575D01*
X94265923Y-57821829D01*
X94408844Y-57821829D01*
X94409391Y-57823327D01*
X94409000Y-57824874D01*
X94419935Y-57852212D01*
X94430037Y-57879885D01*
X94431360Y-57880775D01*
X94431953Y-57882257D01*
X94456896Y-57897964D01*
X94481308Y-57914396D01*
X95147975Y-58104872D01*
X95209739Y-58102657D01*
X95258404Y-58064561D01*
X95275383Y-58005135D01*
X95254190Y-57947079D01*
X95202919Y-57912568D01*
X94817516Y-57802453D01*
X95022110Y-57720616D01*
X95040996Y-57704879D01*
X95061798Y-57691781D01*
X95064337Y-57685431D01*
X95069592Y-57681054D01*
X95075621Y-57657221D01*
X95084751Y-57634398D01*
X95083073Y-57627768D01*
X95084751Y-57621138D01*
X95075621Y-57598314D01*
X95069592Y-57574482D01*
X95064337Y-57570104D01*
X95061798Y-57563755D01*
X95040996Y-57550656D01*
X95022110Y-57534920D01*
X94817516Y-57453082D01*
X95202919Y-57342968D01*
X95254190Y-57308457D01*
X95275383Y-57250401D01*
X95258404Y-57190975D01*
X95209739Y-57152879D01*
X95147975Y-57150664D01*
X94481308Y-57341140D01*
X94456896Y-57357571D01*
X94431953Y-57373279D01*
X94431360Y-57374760D01*
X94430037Y-57375651D01*
X94419935Y-57403323D01*
X94409000Y-57430662D01*
X94409391Y-57432208D01*
X94408844Y-57433707D01*
X94416935Y-57462026D01*
X94424159Y-57490578D01*
X94425384Y-57491599D01*
X94425823Y-57493133D01*
X94449018Y-57511290D01*
X94471641Y-57530140D01*
X94715711Y-57627768D01*
X94471641Y-57725396D01*
X94449018Y-57744245D01*
X94425823Y-57762403D01*
X94425384Y-57763936D01*
X94424159Y-57764958D01*
X94416935Y-57793509D01*
X94408844Y-57821829D01*
X94265923Y-57821829D01*
X94265923Y-56723006D01*
X94408780Y-56723006D01*
X94415904Y-56744932D01*
X94419338Y-56767728D01*
X94466958Y-56862966D01*
X94478330Y-56874512D01*
X94485689Y-56888955D01*
X94533308Y-56936573D01*
X94547749Y-56943931D01*
X94559298Y-56955306D01*
X94654535Y-57002925D01*
X94677333Y-57006358D01*
X94699257Y-57013482D01*
X94794495Y-57013482D01*
X94816418Y-57006358D01*
X94839216Y-57002925D01*
X94934454Y-56955306D01*
X94946001Y-56943932D01*
X94960444Y-56936574D01*
X95008062Y-56888955D01*
X95015420Y-56874513D01*
X95026795Y-56862965D01*
X95074414Y-56767728D01*
X95076074Y-56756706D01*
X95081985Y-56747260D01*
X95126941Y-56567434D01*
X95162395Y-56496527D01*
X95187063Y-56471858D01*
X95246673Y-56442054D01*
X95294697Y-56442054D01*
X95354306Y-56471859D01*
X95378975Y-56496527D01*
X95408780Y-56556137D01*
X95408780Y-56754398D01*
X95366293Y-56881859D01*
X95365823Y-56943661D01*
X95401770Y-56993935D01*
X95460402Y-57013480D01*
X95519324Y-56994828D01*
X95556029Y-56945105D01*
X95603648Y-56802248D01*
X95603771Y-56786040D01*
X95608780Y-56770625D01*
X95608780Y-56532530D01*
X95601656Y-56510606D01*
X95598223Y-56487808D01*
X95550604Y-56392571D01*
X95539229Y-56381022D01*
X95531871Y-56366581D01*
X95484253Y-56318962D01*
X95469810Y-56311603D01*
X95458263Y-56300230D01*
X95363025Y-56252611D01*
X95340227Y-56249177D01*
X95318304Y-56242054D01*
X95223066Y-56242054D01*
X95201142Y-56249177D01*
X95178344Y-56252611D01*
X95083107Y-56300230D01*
X95071558Y-56311604D01*
X95057117Y-56318963D01*
X95009498Y-56366581D01*
X95002139Y-56381023D01*
X94990766Y-56392571D01*
X94943147Y-56487809D01*
X94941486Y-56498830D01*
X94935576Y-56508277D01*
X94890619Y-56688101D01*
X94855166Y-56759008D01*
X94830497Y-56783676D01*
X94770888Y-56813482D01*
X94722864Y-56813482D01*
X94663254Y-56783677D01*
X94638583Y-56759006D01*
X94608780Y-56699399D01*
X94608780Y-56501138D01*
X94651268Y-56373677D01*
X94651738Y-56311875D01*
X94615792Y-56261601D01*
X94557160Y-56242056D01*
X94498238Y-56260707D01*
X94461532Y-56310430D01*
X94413912Y-56453288D01*
X94413788Y-56469495D01*
X94408780Y-56484911D01*
X94408780Y-56723006D01*
X94265923Y-56723006D01*
X94265923Y-56099197D01*
X95751637Y-56099197D01*
X95751637Y-60965863D01*
G37*
D11*
X106833333Y-64454819D02*
X106500000Y-63978628D01*
X106261905Y-64454819D02*
X106261905Y-63454819D01*
X106261905Y-63454819D02*
X106642857Y-63454819D01*
X106642857Y-63454819D02*
X106738095Y-63502438D01*
X106738095Y-63502438D02*
X106785714Y-63550057D01*
X106785714Y-63550057D02*
X106833333Y-63645295D01*
X106833333Y-63645295D02*
X106833333Y-63788152D01*
X106833333Y-63788152D02*
X106785714Y-63883390D01*
X106785714Y-63883390D02*
X106738095Y-63931009D01*
X106738095Y-63931009D02*
X106642857Y-63978628D01*
X106642857Y-63978628D02*
X106261905Y-63978628D01*
X107166667Y-63454819D02*
X107785714Y-63454819D01*
X107785714Y-63454819D02*
X107452381Y-63835771D01*
X107452381Y-63835771D02*
X107595238Y-63835771D01*
X107595238Y-63835771D02*
X107690476Y-63883390D01*
X107690476Y-63883390D02*
X107738095Y-63931009D01*
X107738095Y-63931009D02*
X107785714Y-64026247D01*
X107785714Y-64026247D02*
X107785714Y-64264342D01*
X107785714Y-64264342D02*
X107738095Y-64359580D01*
X107738095Y-64359580D02*
X107690476Y-64407200D01*
X107690476Y-64407200D02*
X107595238Y-64454819D01*
X107595238Y-64454819D02*
X107309524Y-64454819D01*
X107309524Y-64454819D02*
X107214286Y-64407200D01*
X107214286Y-64407200D02*
X107166667Y-64359580D01*
X106261905Y-55454819D02*
X106261905Y-54454819D01*
X106261905Y-54454819D02*
X106500000Y-54454819D01*
X106500000Y-54454819D02*
X106642857Y-54502438D01*
X106642857Y-54502438D02*
X106738095Y-54597676D01*
X106738095Y-54597676D02*
X106785714Y-54692914D01*
X106785714Y-54692914D02*
X106833333Y-54883390D01*
X106833333Y-54883390D02*
X106833333Y-55026247D01*
X106833333Y-55026247D02*
X106785714Y-55216723D01*
X106785714Y-55216723D02*
X106738095Y-55311961D01*
X106738095Y-55311961D02*
X106642857Y-55407200D01*
X106642857Y-55407200D02*
X106500000Y-55454819D01*
X106500000Y-55454819D02*
X106261905Y-55454819D01*
X107785714Y-55454819D02*
X107214286Y-55454819D01*
X107500000Y-55454819D02*
X107500000Y-54454819D01*
X107500000Y-54454819D02*
X107404762Y-54597676D01*
X107404762Y-54597676D02*
X107309524Y-54692914D01*
X107309524Y-54692914D02*
X107214286Y-54740533D01*
X106833333Y-70454819D02*
X106500000Y-69978628D01*
X106261905Y-70454819D02*
X106261905Y-69454819D01*
X106261905Y-69454819D02*
X106642857Y-69454819D01*
X106642857Y-69454819D02*
X106738095Y-69502438D01*
X106738095Y-69502438D02*
X106785714Y-69550057D01*
X106785714Y-69550057D02*
X106833333Y-69645295D01*
X106833333Y-69645295D02*
X106833333Y-69788152D01*
X106833333Y-69788152D02*
X106785714Y-69883390D01*
X106785714Y-69883390D02*
X106738095Y-69931009D01*
X106738095Y-69931009D02*
X106642857Y-69978628D01*
X106642857Y-69978628D02*
X106261905Y-69978628D01*
X107738095Y-69454819D02*
X107261905Y-69454819D01*
X107261905Y-69454819D02*
X107214286Y-69931009D01*
X107214286Y-69931009D02*
X107261905Y-69883390D01*
X107261905Y-69883390D02*
X107357143Y-69835771D01*
X107357143Y-69835771D02*
X107595238Y-69835771D01*
X107595238Y-69835771D02*
X107690476Y-69883390D01*
X107690476Y-69883390D02*
X107738095Y-69931009D01*
X107738095Y-69931009D02*
X107785714Y-70026247D01*
X107785714Y-70026247D02*
X107785714Y-70264342D01*
X107785714Y-70264342D02*
X107738095Y-70359580D01*
X107738095Y-70359580D02*
X107690476Y-70407200D01*
X107690476Y-70407200D02*
X107595238Y-70454819D01*
X107595238Y-70454819D02*
X107357143Y-70454819D01*
X107357143Y-70454819D02*
X107261905Y-70407200D01*
X107261905Y-70407200D02*
X107214286Y-70359580D01*
X106833333Y-61454819D02*
X106500000Y-60978628D01*
X106261905Y-61454819D02*
X106261905Y-60454819D01*
X106261905Y-60454819D02*
X106642857Y-60454819D01*
X106642857Y-60454819D02*
X106738095Y-60502438D01*
X106738095Y-60502438D02*
X106785714Y-60550057D01*
X106785714Y-60550057D02*
X106833333Y-60645295D01*
X106833333Y-60645295D02*
X106833333Y-60788152D01*
X106833333Y-60788152D02*
X106785714Y-60883390D01*
X106785714Y-60883390D02*
X106738095Y-60931009D01*
X106738095Y-60931009D02*
X106642857Y-60978628D01*
X106642857Y-60978628D02*
X106261905Y-60978628D01*
X107214286Y-60550057D02*
X107261905Y-60502438D01*
X107261905Y-60502438D02*
X107357143Y-60454819D01*
X107357143Y-60454819D02*
X107595238Y-60454819D01*
X107595238Y-60454819D02*
X107690476Y-60502438D01*
X107690476Y-60502438D02*
X107738095Y-60550057D01*
X107738095Y-60550057D02*
X107785714Y-60645295D01*
X107785714Y-60645295D02*
X107785714Y-60740533D01*
X107785714Y-60740533D02*
X107738095Y-60883390D01*
X107738095Y-60883390D02*
X107166667Y-61454819D01*
X107166667Y-61454819D02*
X107785714Y-61454819D01*
X106045180Y-50738095D02*
X105235657Y-50738095D01*
X105235657Y-50738095D02*
X105140419Y-50785714D01*
X105140419Y-50785714D02*
X105092800Y-50833333D01*
X105092800Y-50833333D02*
X105045180Y-50928571D01*
X105045180Y-50928571D02*
X105045180Y-51119047D01*
X105045180Y-51119047D02*
X105092800Y-51214285D01*
X105092800Y-51214285D02*
X105140419Y-51261904D01*
X105140419Y-51261904D02*
X105235657Y-51309523D01*
X105235657Y-51309523D02*
X106045180Y-51309523D01*
X105045180Y-52309523D02*
X105045180Y-51738095D01*
X105045180Y-52023809D02*
X106045180Y-52023809D01*
X106045180Y-52023809D02*
X105902323Y-51928571D01*
X105902323Y-51928571D02*
X105807085Y-51833333D01*
X105807085Y-51833333D02*
X105759466Y-51738095D01*
X111066666Y-51354819D02*
X111066666Y-52069104D01*
X111066666Y-52069104D02*
X111019047Y-52211961D01*
X111019047Y-52211961D02*
X110923809Y-52307200D01*
X110923809Y-52307200D02*
X110780952Y-52354819D01*
X110780952Y-52354819D02*
X110685714Y-52354819D01*
X112066666Y-52354819D02*
X111495238Y-52354819D01*
X111780952Y-52354819D02*
X111780952Y-51354819D01*
X111780952Y-51354819D02*
X111685714Y-51497676D01*
X111685714Y-51497676D02*
X111590476Y-51592914D01*
X111590476Y-51592914D02*
X111495238Y-51640533D01*
X106833333Y-58454819D02*
X106500000Y-57978628D01*
X106261905Y-58454819D02*
X106261905Y-57454819D01*
X106261905Y-57454819D02*
X106642857Y-57454819D01*
X106642857Y-57454819D02*
X106738095Y-57502438D01*
X106738095Y-57502438D02*
X106785714Y-57550057D01*
X106785714Y-57550057D02*
X106833333Y-57645295D01*
X106833333Y-57645295D02*
X106833333Y-57788152D01*
X106833333Y-57788152D02*
X106785714Y-57883390D01*
X106785714Y-57883390D02*
X106738095Y-57931009D01*
X106738095Y-57931009D02*
X106642857Y-57978628D01*
X106642857Y-57978628D02*
X106261905Y-57978628D01*
X107785714Y-58454819D02*
X107214286Y-58454819D01*
X107500000Y-58454819D02*
X107500000Y-57454819D01*
X107500000Y-57454819D02*
X107404762Y-57597676D01*
X107404762Y-57597676D02*
X107309524Y-57692914D01*
X107309524Y-57692914D02*
X107214286Y-57740533D01*
X106833333Y-67454819D02*
X106500000Y-66978628D01*
X106261905Y-67454819D02*
X106261905Y-66454819D01*
X106261905Y-66454819D02*
X106642857Y-66454819D01*
X106642857Y-66454819D02*
X106738095Y-66502438D01*
X106738095Y-66502438D02*
X106785714Y-66550057D01*
X106785714Y-66550057D02*
X106833333Y-66645295D01*
X106833333Y-66645295D02*
X106833333Y-66788152D01*
X106833333Y-66788152D02*
X106785714Y-66883390D01*
X106785714Y-66883390D02*
X106738095Y-66931009D01*
X106738095Y-66931009D02*
X106642857Y-66978628D01*
X106642857Y-66978628D02*
X106261905Y-66978628D01*
X107690476Y-66788152D02*
X107690476Y-67454819D01*
X107452381Y-66407200D02*
X107214286Y-67121485D01*
X107214286Y-67121485D02*
X107833333Y-67121485D01*
X113666667Y-73307200D02*
X113809524Y-73354819D01*
X113809524Y-73354819D02*
X114047619Y-73354819D01*
X114047619Y-73354819D02*
X114142857Y-73307200D01*
X114142857Y-73307200D02*
X114190476Y-73259580D01*
X114190476Y-73259580D02*
X114238095Y-73164342D01*
X114238095Y-73164342D02*
X114238095Y-73069104D01*
X114238095Y-73069104D02*
X114190476Y-72973866D01*
X114190476Y-72973866D02*
X114142857Y-72926247D01*
X114142857Y-72926247D02*
X114047619Y-72878628D01*
X114047619Y-72878628D02*
X113857143Y-72831009D01*
X113857143Y-72831009D02*
X113761905Y-72783390D01*
X113761905Y-72783390D02*
X113714286Y-72735771D01*
X113714286Y-72735771D02*
X113666667Y-72640533D01*
X113666667Y-72640533D02*
X113666667Y-72545295D01*
X113666667Y-72545295D02*
X113714286Y-72450057D01*
X113714286Y-72450057D02*
X113761905Y-72402438D01*
X113761905Y-72402438D02*
X113857143Y-72354819D01*
X113857143Y-72354819D02*
X114095238Y-72354819D01*
X114095238Y-72354819D02*
X114238095Y-72402438D01*
X114571429Y-72354819D02*
X114809524Y-73354819D01*
X114809524Y-73354819D02*
X115000000Y-72640533D01*
X115000000Y-72640533D02*
X115190476Y-73354819D01*
X115190476Y-73354819D02*
X115428572Y-72354819D01*
X116333333Y-73354819D02*
X115761905Y-73354819D01*
X116047619Y-73354819D02*
X116047619Y-72354819D01*
X116047619Y-72354819D02*
X115952381Y-72497676D01*
X115952381Y-72497676D02*
X115857143Y-72592914D01*
X115857143Y-72592914D02*
X115761905Y-72640533D01*
D12*
X109772936Y-63265000D02*
X110227064Y-63265000D01*
X109772936Y-64735000D02*
X110227064Y-64735000D01*
X108140000Y-54040000D02*
X108140000Y-55960000D01*
X108140000Y-55960000D02*
X111000000Y-55960000D01*
X111000000Y-54040000D02*
X108140000Y-54040000D01*
X110227064Y-70735000D02*
X109772936Y-70735000D01*
X110227064Y-69265000D02*
X109772936Y-69265000D01*
X110227064Y-61735000D02*
X109772936Y-61735000D01*
X110227064Y-60265000D02*
X109772936Y-60265000D01*
D11*
X101500000Y-50500000D02*
X101500000Y-50500000D01*
X100900000Y-50500000D02*
X100900000Y-50500000D01*
X100300000Y-50500000D02*
X100300000Y-50500000D01*
X99700000Y-50500000D02*
X99700000Y-50500000D01*
X99100000Y-50500000D02*
X99100000Y-50500000D01*
X98500000Y-50500000D02*
X98500000Y-50500000D01*
X97900000Y-50500000D02*
X97900000Y-50500000D01*
X97300000Y-50500000D02*
X97300000Y-50500000D01*
X96700000Y-50500000D02*
X96700000Y-50500000D01*
X96100000Y-50500000D02*
X96100000Y-50500000D01*
X95500000Y-50500000D02*
X95500000Y-50500000D01*
X94900000Y-50500000D02*
X94900000Y-50500000D01*
X94300000Y-50500000D02*
X94300000Y-50500000D01*
X93700000Y-50500000D02*
X93700000Y-50500000D01*
X93100000Y-50500000D02*
X93100000Y-50500000D01*
X92500000Y-50500000D02*
X92500000Y-50500000D01*
X91900000Y-50500000D02*
X91900000Y-50500000D01*
X91300000Y-50500000D02*
X91300000Y-50500000D01*
X90700000Y-50500000D02*
X90700000Y-50500000D01*
X90100000Y-50500000D02*
X90100000Y-50500000D01*
X89500000Y-50500000D02*
X89500000Y-50500000D01*
X88900000Y-50500000D02*
X88900000Y-50500000D01*
X88300000Y-50500000D02*
X88300000Y-50500000D01*
X87700000Y-50500000D02*
X87700000Y-50500000D01*
X87100000Y-50500000D02*
X87100000Y-50500000D01*
X86500000Y-50500000D02*
X86500000Y-50500000D01*
X85900000Y-50500000D02*
X85900000Y-50500000D01*
X85300000Y-50500000D02*
X85300000Y-50500000D01*
X84700000Y-50500000D02*
X84700000Y-50500000D01*
X84100000Y-50500000D02*
X84100000Y-50500000D01*
X83500000Y-50500000D02*
X83500000Y-50500000D01*
X90000000Y-50500000D02*
X95000000Y-50500000D01*
X80500000Y-53500000D02*
X80500000Y-53500000D01*
X80500000Y-54100000D02*
X80500000Y-54100000D01*
X80500000Y-54700000D02*
X80500000Y-54700000D01*
X80500000Y-55300000D02*
X80500000Y-55300000D01*
X80500000Y-55900000D02*
X80500000Y-55900000D01*
X80500000Y-56500000D02*
X80500000Y-56500000D01*
X80500000Y-57100000D02*
X80500000Y-57100000D01*
X80500000Y-57700000D02*
X80500000Y-57700000D01*
X80500000Y-58300000D02*
X80500000Y-58300000D01*
X80500000Y-58900000D02*
X80500000Y-58900000D01*
X80500000Y-59500000D02*
X80500000Y-59500000D01*
X80500000Y-60100000D02*
X80500000Y-60100000D01*
X80500000Y-60700000D02*
X80500000Y-60700000D01*
X80500000Y-61300000D02*
X80500000Y-61300000D01*
X80500000Y-61900000D02*
X80500000Y-61900000D01*
X80500000Y-62500000D02*
X80500000Y-62500000D01*
X80500000Y-63100000D02*
X80500000Y-63100000D01*
X80500000Y-63700000D02*
X80500000Y-63700000D01*
X80500000Y-64300000D02*
X80500000Y-64300000D01*
X80500000Y-64900000D02*
X80500000Y-64900000D01*
X80500000Y-65500000D02*
X80500000Y-65500000D01*
X80500000Y-66100000D02*
X80500000Y-66100000D01*
X80500000Y-66700000D02*
X80500000Y-66700000D01*
X80500000Y-67300000D02*
X80500000Y-67300000D01*
X80500000Y-67900000D02*
X80500000Y-67900000D01*
X80500000Y-68500000D02*
X80500000Y-68500000D01*
X80500000Y-69100000D02*
X80500000Y-69100000D01*
X80500000Y-69700000D02*
X80500000Y-69700000D01*
X80500000Y-70300000D02*
X80500000Y-70300000D01*
X80500000Y-70900000D02*
X80500000Y-70900000D01*
X80500000Y-71500000D02*
X80500000Y-71500000D01*
X104500000Y-60000000D02*
X104500000Y-65000000D01*
X84000000Y-60000000D02*
X84000000Y-65000000D01*
X104500000Y-71500000D02*
X104500000Y-71500000D01*
X104500000Y-70900000D02*
X104500000Y-70900000D01*
X104500000Y-70300000D02*
X104500000Y-70300000D01*
X104500000Y-69700000D02*
X104500000Y-69700000D01*
X104500000Y-69100000D02*
X104500000Y-69100000D01*
X104500000Y-68500000D02*
X104500000Y-68500000D01*
X104500000Y-67900000D02*
X104500000Y-67900000D01*
X104500000Y-67300000D02*
X104500000Y-67300000D01*
X104500000Y-66700000D02*
X104500000Y-66700000D01*
X104500000Y-66100000D02*
X104500000Y-66100000D01*
X104500000Y-65500000D02*
X104500000Y-65500000D01*
X104500000Y-64900000D02*
X104500000Y-64900000D01*
X104500000Y-64300000D02*
X104500000Y-64300000D01*
X104500000Y-63700000D02*
X104500000Y-63700000D01*
X104500000Y-63100000D02*
X104500000Y-63100000D01*
X104500000Y-62500000D02*
X104500000Y-62500000D01*
X104500000Y-61900000D02*
X104500000Y-61900000D01*
X104500000Y-61300000D02*
X104500000Y-61300000D01*
X104500000Y-60700000D02*
X104500000Y-60700000D01*
X104500000Y-60100000D02*
X104500000Y-60100000D01*
X104500000Y-59500000D02*
X104500000Y-59500000D01*
X104500000Y-58900000D02*
X104500000Y-58900000D01*
X104500000Y-58300000D02*
X104500000Y-58300000D01*
X104500000Y-57700000D02*
X104500000Y-57700000D01*
X104500000Y-57100000D02*
X104500000Y-57100000D01*
X104500000Y-56500000D02*
X104500000Y-56500000D01*
X104500000Y-55900000D02*
X104500000Y-55900000D01*
X104500000Y-55300000D02*
X104500000Y-55300000D01*
X104500000Y-54700000D02*
X104500000Y-54700000D01*
X104500000Y-54100000D02*
X104500000Y-54100000D01*
X104500000Y-53500000D02*
X104500000Y-53500000D01*
X90000000Y-74500000D02*
X95000000Y-74500000D01*
X83500000Y-74500000D02*
X83500000Y-74500000D01*
X84100000Y-74500000D02*
X84100000Y-74500000D01*
X84700000Y-74500000D02*
X84700000Y-74500000D01*
X85300000Y-74500000D02*
X85300000Y-74500000D01*
X85900000Y-74500000D02*
X85900000Y-74500000D01*
X86500000Y-74500000D02*
X86500000Y-74500000D01*
X87100000Y-74500000D02*
X87100000Y-74500000D01*
X87700000Y-74500000D02*
X87700000Y-74500000D01*
X88300000Y-74500000D02*
X88300000Y-74500000D01*
X88900000Y-74500000D02*
X88900000Y-74500000D01*
X89500000Y-74500000D02*
X89500000Y-74500000D01*
X90100000Y-74500000D02*
X90100000Y-74500000D01*
X90700000Y-74500000D02*
X90700000Y-74500000D01*
X91300000Y-74500000D02*
X91300000Y-74500000D01*
X91900000Y-74500000D02*
X91900000Y-74500000D01*
X92500000Y-74500000D02*
X92500000Y-74500000D01*
X93100000Y-74500000D02*
X93100000Y-74500000D01*
X93700000Y-74500000D02*
X93700000Y-74500000D01*
X94300000Y-74500000D02*
X94300000Y-74500000D01*
X94900000Y-74500000D02*
X94900000Y-74500000D01*
X95500000Y-74500000D02*
X95500000Y-74500000D01*
X96100000Y-74500000D02*
X96100000Y-74500000D01*
X96700000Y-74500000D02*
X96700000Y-74500000D01*
X97300000Y-74500000D02*
X97300000Y-74500000D01*
X97900000Y-74500000D02*
X97900000Y-74500000D01*
X98500000Y-74500000D02*
X98500000Y-74500000D01*
X99100000Y-74500000D02*
X99100000Y-74500000D01*
X99700000Y-74500000D02*
X99700000Y-74500000D01*
X100300000Y-74500000D02*
X100300000Y-74500000D01*
X100900000Y-74500000D02*
X100900000Y-74500000D01*
X101500000Y-74500000D02*
X101500000Y-74500000D01*
X85500000Y-60000000D02*
X80500000Y-60000000D01*
X80500000Y-60000000D02*
X80500000Y-65000000D01*
X80500000Y-65000000D02*
X85500000Y-65000000D01*
X85500000Y-65000000D02*
X85500000Y-60000000D01*
X104500000Y-53500000D02*
G75*
G03*
X101500000Y-50500000I-3000001J-1D01*
G01*
X83500000Y-50500000D02*
G75*
G03*
X80500000Y-53500000I1J-3000001D01*
G01*
X101500000Y-74500000D02*
G75*
G03*
X104500000Y-71500000I0J3000000D01*
G01*
X80500000Y-71500000D02*
G75*
G03*
X83500000Y-74500000I3000000J0D01*
G01*
D12*
X118300000Y-62500000D02*
X118300000Y-59850000D01*
X118300000Y-62500000D02*
X112450000Y-62500000D01*
X118300000Y-59600000D02*
X118300000Y-59000000D01*
X118300000Y-58750000D02*
X118300000Y-55250000D01*
X118300000Y-55000000D02*
X118300000Y-54400000D01*
X118300000Y-54100000D02*
X118300000Y-51450000D01*
X118300000Y-51450000D02*
X112450000Y-51450000D01*
X115000000Y-63000000D02*
X112000000Y-63000000D01*
X112450000Y-62500000D02*
X112450000Y-51450000D01*
X112000000Y-63000000D02*
X112000000Y-60000000D01*
X109772936Y-57265000D02*
X110227064Y-57265000D01*
X109772936Y-58735000D02*
X110227064Y-58735000D01*
X110227064Y-67735000D02*
X109772936Y-67735000D01*
X110227064Y-66265000D02*
X109772936Y-66265000D01*
D11*
X115800000Y-70600000D02*
X114200000Y-70600000D01*
X112400000Y-69000000D02*
X112400000Y-67000000D01*
X117600000Y-69000000D02*
X117600000Y-67000000D01*
X115800000Y-65400000D02*
X114200000Y-65400000D01*
X116000000Y-68000000D02*
G75*
G03*
X116000000Y-68000000I-1000000J0D01*
G01*
%LPC*%
D13*
X109000000Y-64000000D03*
X111000000Y-64000000D03*
D14*
X108975000Y-55000000D03*
X111025000Y-55000000D03*
D15*
X111000000Y-70000000D03*
X109000000Y-70000000D03*
X111000000Y-61000000D03*
X109000000Y-61000000D03*
D16*
X95040000Y-54880000D03*
D17*
X92500000Y-54880000D03*
X89960000Y-54880000D03*
X87420000Y-54880000D03*
X87420000Y-70120000D03*
X89960000Y-70120000D03*
X92500000Y-70120000D03*
X95040000Y-70120000D03*
X97580000Y-70120000D03*
D18*
X115000000Y-60000000D03*
D19*
X115000000Y-58000000D03*
X115000000Y-56000000D03*
X115000000Y-54000000D03*
D13*
X109000000Y-58000000D03*
X111000000Y-58000000D03*
D15*
X111000000Y-67000000D03*
X109000000Y-67000000D03*
D20*
X113150000Y-71100000D03*
X113150000Y-64900000D03*
X116850000Y-71100000D03*
X116850000Y-64900000D03*
%LPD*%
M02*
