G04 #@! TF.GenerationSoftware,KiCad,Pcbnew,7.0.8*
G04 #@! TF.CreationDate,2023-11-15T13:15:02+05:30*
G04 #@! TF.ProjectId,m5-atom-carrier-board,6d352d61-746f-46d2-9d63-617272696572,1*
G04 #@! TF.SameCoordinates,Original*
G04 #@! TF.FileFunction,Legend,Bot*
G04 #@! TF.FilePolarity,Positive*
%FSLAX46Y46*%
G04 Gerber Fmt 4.6, Leading zero omitted, Abs format (unit mm)*
G04 Created by KiCad (PCBNEW 7.0.8) date 2023-11-15 13:15:02*
%MOMM*%
%LPD*%
G01*
G04 APERTURE LIST*
%ADD10C,0.100000*%
%ADD11C,0.200000*%
%ADD12R,1.800000X1.800000*%
%ADD13C,1.800000*%
%ADD14R,1.524000X1.524000*%
%ADD15C,1.524000*%
G04 APERTURE END LIST*
D10*
X85700000Y-58425000D02*
X94200000Y-58425000D01*
X94200000Y-66375000D01*
X85700000Y-66375000D01*
X85700000Y-58425000D01*
D11*
G36*
X111462707Y-54431219D02*
G01*
X111340838Y-54431219D01*
X111235773Y-54396197D01*
X111168703Y-54329127D01*
X111133249Y-54258218D01*
X111091279Y-54090337D01*
X111091279Y-53972100D01*
X111133249Y-53804218D01*
X111168702Y-53733312D01*
X111235774Y-53666240D01*
X111340838Y-53631219D01*
X111462707Y-53631219D01*
X111462707Y-54431219D01*
G37*
G36*
X113900802Y-54774076D02*
G01*
X110748422Y-54774076D01*
X110748422Y-54102647D01*
X110891279Y-54102647D01*
X110895125Y-54114484D01*
X110894265Y-54126901D01*
X110941884Y-54317376D01*
X110947794Y-54326822D01*
X110949455Y-54337844D01*
X110997074Y-54433082D01*
X111008448Y-54444630D01*
X111015806Y-54459071D01*
X111111044Y-54554311D01*
X111131588Y-54564779D01*
X111150132Y-54578468D01*
X111292989Y-54626087D01*
X111309196Y-54626210D01*
X111324612Y-54631219D01*
X111562707Y-54631219D01*
X111577770Y-54626325D01*
X111593609Y-54626325D01*
X111606422Y-54617015D01*
X111621486Y-54612121D01*
X111630795Y-54599307D01*
X111643609Y-54589998D01*
X111648503Y-54574934D01*
X111657813Y-54562121D01*
X111657813Y-54546281D01*
X111662707Y-54531219D01*
X111938898Y-54531219D01*
X111940642Y-54536587D01*
X111939493Y-54542115D01*
X111950052Y-54565551D01*
X111957996Y-54589998D01*
X111962563Y-54593316D01*
X111964882Y-54598462D01*
X111987196Y-54611213D01*
X112007996Y-54626325D01*
X112013641Y-54626325D01*
X112018543Y-54629126D01*
X112044097Y-54626325D01*
X112069800Y-54626325D01*
X112074366Y-54623007D01*
X112079978Y-54622392D01*
X112099001Y-54605109D01*
X112119800Y-54589998D01*
X112121544Y-54584628D01*
X112125722Y-54580833D01*
X112510326Y-53907775D01*
X112510326Y-54531219D01*
X112529424Y-54589998D01*
X112579424Y-54626325D01*
X112641228Y-54626325D01*
X112691228Y-54589998D01*
X112710326Y-54531219D01*
X112710326Y-54435980D01*
X112938898Y-54435980D01*
X112941390Y-54443651D01*
X112940128Y-54451622D01*
X112950759Y-54472487D01*
X112957996Y-54494759D01*
X112964524Y-54499502D01*
X112968187Y-54506690D01*
X113015805Y-54554310D01*
X113036347Y-54564776D01*
X113054894Y-54578468D01*
X113197751Y-54626087D01*
X113213958Y-54626210D01*
X113229374Y-54631219D01*
X113324612Y-54631219D01*
X113340027Y-54626210D01*
X113356235Y-54626087D01*
X113499091Y-54578468D01*
X113517638Y-54564776D01*
X113538180Y-54554310D01*
X113633418Y-54459071D01*
X113640776Y-54444629D01*
X113652150Y-54433082D01*
X113699769Y-54337845D01*
X113701429Y-54326823D01*
X113707340Y-54317377D01*
X113754959Y-54126901D01*
X113754098Y-54114484D01*
X113757945Y-54102647D01*
X113757945Y-53959790D01*
X113754098Y-53947952D01*
X113754959Y-53935536D01*
X113707340Y-53745060D01*
X113701429Y-53735613D01*
X113699769Y-53724592D01*
X113652150Y-53629355D01*
X113640776Y-53617807D01*
X113633418Y-53603365D01*
X113538180Y-53508127D01*
X113517636Y-53497659D01*
X113499091Y-53483970D01*
X113356235Y-53436351D01*
X113340027Y-53436227D01*
X113324612Y-53431219D01*
X113181755Y-53431219D01*
X113159831Y-53438342D01*
X113137033Y-53441776D01*
X113041796Y-53489395D01*
X112997763Y-53532764D01*
X112987632Y-53593731D01*
X113015271Y-53649010D01*
X113070124Y-53677486D01*
X113131238Y-53668281D01*
X113205362Y-53631219D01*
X113308385Y-53631219D01*
X113413449Y-53666240D01*
X113480522Y-53733313D01*
X113515974Y-53804218D01*
X113557945Y-53972099D01*
X113557945Y-54090337D01*
X113515974Y-54258218D01*
X113480521Y-54329124D01*
X113413450Y-54396197D01*
X113308385Y-54431219D01*
X113245600Y-54431219D01*
X113140535Y-54396197D01*
X113138898Y-54394559D01*
X113138898Y-54202647D01*
X113229374Y-54202647D01*
X113288153Y-54183549D01*
X113324480Y-54133549D01*
X113324480Y-54071745D01*
X113288153Y-54021745D01*
X113229374Y-54002647D01*
X113038898Y-54002647D01*
X113023835Y-54007541D01*
X113007996Y-54007541D01*
X112995182Y-54016850D01*
X112980119Y-54021745D01*
X112970809Y-54034558D01*
X112957996Y-54043868D01*
X112953101Y-54058931D01*
X112943792Y-54071745D01*
X112943792Y-54087584D01*
X112938898Y-54102647D01*
X112938898Y-54435980D01*
X112710326Y-54435980D01*
X112710326Y-53531219D01*
X112708581Y-53525850D01*
X112709731Y-53520323D01*
X112699170Y-53496885D01*
X112691228Y-53472440D01*
X112686661Y-53469121D01*
X112684342Y-53463975D01*
X112662023Y-53451221D01*
X112641228Y-53436113D01*
X112635583Y-53436113D01*
X112630681Y-53433312D01*
X112605127Y-53436113D01*
X112579424Y-53436113D01*
X112574857Y-53439430D01*
X112569246Y-53440046D01*
X112550222Y-53457328D01*
X112529424Y-53472440D01*
X112527679Y-53477809D01*
X112523502Y-53481605D01*
X112138898Y-54154662D01*
X112138898Y-53531219D01*
X112119800Y-53472440D01*
X112069800Y-53436113D01*
X112007996Y-53436113D01*
X111957996Y-53472440D01*
X111938898Y-53531219D01*
X111938898Y-54531219D01*
X111662707Y-54531219D01*
X111662707Y-53531219D01*
X111657813Y-53516156D01*
X111657813Y-53500317D01*
X111648503Y-53487503D01*
X111643609Y-53472440D01*
X111630795Y-53463130D01*
X111621486Y-53450317D01*
X111606422Y-53445422D01*
X111593609Y-53436113D01*
X111577770Y-53436113D01*
X111562707Y-53431219D01*
X111324612Y-53431219D01*
X111309196Y-53436227D01*
X111292989Y-53436351D01*
X111150132Y-53483970D01*
X111131585Y-53497660D01*
X111111044Y-53508127D01*
X111015806Y-53603365D01*
X111008447Y-53617807D01*
X110997074Y-53629355D01*
X110949455Y-53724593D01*
X110947794Y-53735614D01*
X110941884Y-53745061D01*
X110894265Y-53935536D01*
X110895125Y-53947952D01*
X110891279Y-53959790D01*
X110891279Y-54102647D01*
X110748422Y-54102647D01*
X110748422Y-53288362D01*
X113900802Y-53288362D01*
X113900802Y-54774076D01*
G37*
G36*
X113901378Y-56774076D02*
G01*
X111135727Y-56774076D01*
X111135727Y-56468707D01*
X111278584Y-56468707D01*
X111288715Y-56529674D01*
X111332748Y-56573043D01*
X111427985Y-56620662D01*
X111450783Y-56624095D01*
X111472707Y-56631219D01*
X111663183Y-56631219D01*
X111685106Y-56624095D01*
X111707904Y-56620662D01*
X111803142Y-56573043D01*
X111814690Y-56561668D01*
X111829132Y-56554310D01*
X111876751Y-56506690D01*
X111884108Y-56492249D01*
X111895483Y-56480701D01*
X111901480Y-56468707D01*
X112135727Y-56468707D01*
X112145858Y-56529674D01*
X112189891Y-56573043D01*
X112285128Y-56620662D01*
X112307926Y-56624095D01*
X112329850Y-56631219D01*
X112520326Y-56631219D01*
X112542249Y-56624095D01*
X112565047Y-56620662D01*
X112660285Y-56573043D01*
X112671833Y-56561668D01*
X112686275Y-56554310D01*
X112733894Y-56506690D01*
X112741251Y-56492249D01*
X112752626Y-56480701D01*
X112800245Y-56385464D01*
X112803678Y-56362665D01*
X112810802Y-56340742D01*
X112810802Y-56055028D01*
X112803678Y-56033104D01*
X112800245Y-56010306D01*
X112752626Y-55915069D01*
X112741251Y-55903520D01*
X112733893Y-55889079D01*
X112686275Y-55841460D01*
X112671832Y-55834101D01*
X112660285Y-55822728D01*
X112565047Y-55775109D01*
X112542249Y-55771675D01*
X112520326Y-55764552D01*
X112329850Y-55764552D01*
X112307926Y-55771675D01*
X112285128Y-55775109D01*
X112189891Y-55822728D01*
X112145858Y-55866097D01*
X112135727Y-55927064D01*
X112163366Y-55982343D01*
X112218219Y-56010819D01*
X112279333Y-56001614D01*
X112353457Y-55964552D01*
X112496719Y-55964552D01*
X112556328Y-55994357D01*
X112580997Y-56019025D01*
X112610802Y-56078635D01*
X112610802Y-56317135D01*
X112580997Y-56376743D01*
X112556328Y-56401413D01*
X112496719Y-56431219D01*
X112353457Y-56431219D01*
X112279333Y-56394157D01*
X112218219Y-56384952D01*
X112163366Y-56413428D01*
X112135727Y-56468707D01*
X111901480Y-56468707D01*
X111943102Y-56385464D01*
X111946535Y-56362665D01*
X111953659Y-56340742D01*
X111953659Y-56055028D01*
X111946535Y-56033104D01*
X111943102Y-56010306D01*
X111895483Y-55915069D01*
X111884108Y-55903520D01*
X111876750Y-55889079D01*
X111829132Y-55841460D01*
X111814689Y-55834101D01*
X111803142Y-55822728D01*
X111707904Y-55775109D01*
X111685106Y-55771675D01*
X111663183Y-55764552D01*
X111472707Y-55764552D01*
X111450783Y-55771675D01*
X111427985Y-55775109D01*
X111332748Y-55822728D01*
X111288715Y-55866097D01*
X111278584Y-55927064D01*
X111306223Y-55982343D01*
X111361076Y-56010819D01*
X111422190Y-56001614D01*
X111496314Y-55964552D01*
X111639576Y-55964552D01*
X111699185Y-55994357D01*
X111723854Y-56019025D01*
X111753659Y-56078635D01*
X111753659Y-56317135D01*
X111723854Y-56376743D01*
X111699185Y-56401413D01*
X111639576Y-56431219D01*
X111496314Y-56431219D01*
X111422190Y-56394157D01*
X111361076Y-56384952D01*
X111306223Y-56413428D01*
X111278584Y-56468707D01*
X111135727Y-56468707D01*
X111135727Y-55501040D01*
X112901179Y-55501040D01*
X112901649Y-55562842D01*
X113234982Y-56562841D01*
X113252892Y-56587104D01*
X113270459Y-56611672D01*
X113271213Y-56611923D01*
X113271687Y-56612565D01*
X113300452Y-56621670D01*
X113329091Y-56631217D01*
X113329851Y-56630976D01*
X113330609Y-56631216D01*
X113359187Y-56621689D01*
X113388013Y-56612565D01*
X113388486Y-56611923D01*
X113389241Y-56611672D01*
X113406795Y-56587120D01*
X113424718Y-56562842D01*
X113758051Y-55562842D01*
X113758521Y-55501040D01*
X113722574Y-55450766D01*
X113663942Y-55431222D01*
X113605020Y-55449873D01*
X113568315Y-55499597D01*
X113329850Y-56214991D01*
X113091385Y-55499596D01*
X113054680Y-55449873D01*
X112995758Y-55431221D01*
X112937126Y-55450766D01*
X112901179Y-55501040D01*
X111135727Y-55501040D01*
X111135727Y-55288364D01*
X113901378Y-55288364D01*
X113901378Y-56774076D01*
G37*
G36*
X111846040Y-58431219D02*
G01*
X111724171Y-58431219D01*
X111619106Y-58396197D01*
X111552036Y-58329127D01*
X111516582Y-58258218D01*
X111474612Y-58090337D01*
X111474612Y-57972100D01*
X111516582Y-57804218D01*
X111552035Y-57733312D01*
X111619107Y-57666240D01*
X111724171Y-57631219D01*
X111846040Y-57631219D01*
X111846040Y-58431219D01*
G37*
G36*
X113903183Y-58774076D02*
G01*
X111131755Y-58774076D01*
X111131755Y-58102647D01*
X111274612Y-58102647D01*
X111278458Y-58114484D01*
X111277598Y-58126901D01*
X111325217Y-58317376D01*
X111331127Y-58326822D01*
X111332788Y-58337844D01*
X111380407Y-58433082D01*
X111391781Y-58444630D01*
X111399139Y-58459071D01*
X111494377Y-58554311D01*
X111514921Y-58564779D01*
X111533465Y-58578468D01*
X111676322Y-58626087D01*
X111692529Y-58626210D01*
X111707945Y-58631219D01*
X111946040Y-58631219D01*
X111961103Y-58626325D01*
X111976942Y-58626325D01*
X111989755Y-58617015D01*
X112004819Y-58612121D01*
X112014128Y-58599307D01*
X112026942Y-58589998D01*
X112031836Y-58574934D01*
X112041146Y-58562121D01*
X112279506Y-58562121D01*
X112315833Y-58612121D01*
X112374612Y-58631219D01*
X112850802Y-58631219D01*
X112865865Y-58626325D01*
X112881704Y-58626325D01*
X112894517Y-58617015D01*
X112909581Y-58612121D01*
X112918890Y-58599307D01*
X112931704Y-58589998D01*
X112936598Y-58574934D01*
X112945908Y-58562121D01*
X113089030Y-58562121D01*
X113125357Y-58612121D01*
X113184136Y-58631219D01*
X113660326Y-58631219D01*
X113675389Y-58626325D01*
X113691228Y-58626325D01*
X113704041Y-58617015D01*
X113719105Y-58612121D01*
X113728414Y-58599307D01*
X113741228Y-58589998D01*
X113746122Y-58574934D01*
X113755432Y-58562121D01*
X113755432Y-58546281D01*
X113760326Y-58531219D01*
X113760326Y-57531219D01*
X113741228Y-57472440D01*
X113691228Y-57436113D01*
X113629424Y-57436113D01*
X113579424Y-57472440D01*
X113560326Y-57531219D01*
X113560326Y-58431219D01*
X113184136Y-58431219D01*
X113125357Y-58450317D01*
X113089030Y-58500317D01*
X113089030Y-58562121D01*
X112945908Y-58562121D01*
X112945908Y-58546281D01*
X112950802Y-58531219D01*
X112950802Y-57531219D01*
X112945908Y-57516156D01*
X112945908Y-57500317D01*
X112936598Y-57487503D01*
X112931704Y-57472440D01*
X112918890Y-57463130D01*
X112909581Y-57450317D01*
X112894517Y-57445422D01*
X112881704Y-57436113D01*
X112865865Y-57436113D01*
X112850802Y-57431219D01*
X112374612Y-57431219D01*
X112315833Y-57450317D01*
X112279506Y-57500317D01*
X112279506Y-57562121D01*
X112315833Y-57612121D01*
X112374612Y-57631219D01*
X112750802Y-57631219D01*
X112750802Y-57907409D01*
X112517469Y-57907409D01*
X112458690Y-57926507D01*
X112422363Y-57976507D01*
X112422363Y-58038311D01*
X112458690Y-58088311D01*
X112517469Y-58107409D01*
X112750802Y-58107409D01*
X112750802Y-58431219D01*
X112374612Y-58431219D01*
X112315833Y-58450317D01*
X112279506Y-58500317D01*
X112279506Y-58562121D01*
X112041146Y-58562121D01*
X112041146Y-58546281D01*
X112046040Y-58531219D01*
X112046040Y-57531219D01*
X112041146Y-57516156D01*
X112041146Y-57500317D01*
X112031836Y-57487503D01*
X112026942Y-57472440D01*
X112014128Y-57463130D01*
X112004819Y-57450317D01*
X111989755Y-57445422D01*
X111976942Y-57436113D01*
X111961103Y-57436113D01*
X111946040Y-57431219D01*
X111707945Y-57431219D01*
X111692529Y-57436227D01*
X111676322Y-57436351D01*
X111533465Y-57483970D01*
X111514918Y-57497660D01*
X111494377Y-57508127D01*
X111399139Y-57603365D01*
X111391780Y-57617807D01*
X111380407Y-57629355D01*
X111332788Y-57724593D01*
X111331127Y-57735614D01*
X111325217Y-57745061D01*
X111277598Y-57935536D01*
X111278458Y-57947952D01*
X111274612Y-57959790D01*
X111274612Y-58102647D01*
X111131755Y-58102647D01*
X111131755Y-57288362D01*
X113903183Y-57288362D01*
X113903183Y-58774076D01*
G37*
G36*
X87723470Y-63622024D02*
G01*
X87748139Y-63646692D01*
X87783592Y-63717599D01*
X87825563Y-63885480D01*
X87825563Y-64098956D01*
X87783592Y-64266837D01*
X87748139Y-64337743D01*
X87723470Y-64362413D01*
X87663861Y-64392219D01*
X87615837Y-64392219D01*
X87556227Y-64362414D01*
X87531560Y-64337746D01*
X87496105Y-64266837D01*
X87454135Y-64098956D01*
X87454135Y-63885481D01*
X87496105Y-63717599D01*
X87531559Y-63646692D01*
X87556227Y-63622023D01*
X87615837Y-63592219D01*
X87663861Y-63592219D01*
X87723470Y-63622024D01*
G37*
G36*
X90294899Y-63955357D02*
G01*
X90319568Y-63980025D01*
X90349373Y-64039635D01*
X90349373Y-64278135D01*
X90319568Y-64337743D01*
X90294899Y-64362413D01*
X90235290Y-64392219D01*
X90092028Y-64392219D01*
X90073183Y-64382796D01*
X90073183Y-63934974D01*
X90092028Y-63925552D01*
X90235290Y-63925552D01*
X90294899Y-63955357D01*
G37*
G36*
X91851028Y-64233421D02*
G01*
X91873183Y-64277730D01*
X91873183Y-64325754D01*
X91851028Y-64370063D01*
X91806719Y-64392219D01*
X91615838Y-64392219D01*
X91596993Y-64382796D01*
X91596993Y-64211266D01*
X91806719Y-64211266D01*
X91851028Y-64233421D01*
G37*
G36*
X92723471Y-63955357D02*
G01*
X92748140Y-63980025D01*
X92777945Y-64039635D01*
X92777945Y-64278135D01*
X92748140Y-64337743D01*
X92723471Y-64362413D01*
X92663862Y-64392219D01*
X92568219Y-64392219D01*
X92508609Y-64362414D01*
X92483942Y-64337746D01*
X92454136Y-64278134D01*
X92454136Y-64039635D01*
X92483941Y-63980025D01*
X92508609Y-63955356D01*
X92568219Y-63925552D01*
X92663862Y-63925552D01*
X92723471Y-63955357D01*
G37*
G36*
X93730326Y-64392219D02*
G01*
X93472981Y-64392219D01*
X93413371Y-64362414D01*
X93388704Y-64337746D01*
X93358898Y-64278134D01*
X93358898Y-64182492D01*
X93388703Y-64122882D01*
X93408154Y-64103430D01*
X93513219Y-64068409D01*
X93730326Y-64068409D01*
X93730326Y-64392219D01*
G37*
G36*
X93730326Y-63868409D02*
G01*
X93520600Y-63868409D01*
X93460990Y-63838604D01*
X93436322Y-63813935D01*
X93406517Y-63754325D01*
X93406517Y-63706302D01*
X93436322Y-63646692D01*
X93460990Y-63622023D01*
X93520600Y-63592219D01*
X93730326Y-63592219D01*
X93730326Y-63868409D01*
G37*
G36*
X89866328Y-62345357D02*
G01*
X89890997Y-62370025D01*
X89920802Y-62429635D01*
X89920802Y-62668135D01*
X89890997Y-62727743D01*
X89866328Y-62752413D01*
X89806719Y-62782219D01*
X89663457Y-62782219D01*
X89644612Y-62772796D01*
X89644612Y-62324974D01*
X89663457Y-62315552D01*
X89806719Y-62315552D01*
X89866328Y-62345357D01*
G37*
G36*
X92723471Y-62345357D02*
G01*
X92748140Y-62370025D01*
X92777945Y-62429635D01*
X92777945Y-62668135D01*
X92748140Y-62727743D01*
X92723471Y-62752413D01*
X92663862Y-62782219D01*
X92568219Y-62782219D01*
X92508609Y-62752414D01*
X92483942Y-62727746D01*
X92454136Y-62668134D01*
X92454136Y-62429635D01*
X92483941Y-62370025D01*
X92508609Y-62345356D01*
X92568219Y-62315552D01*
X92663862Y-62315552D01*
X92723471Y-62345357D01*
G37*
G36*
X90199661Y-59125357D02*
G01*
X90224330Y-59150025D01*
X90254135Y-59209635D01*
X90254135Y-59448135D01*
X90224330Y-59507743D01*
X90199661Y-59532413D01*
X90140052Y-59562219D01*
X90044409Y-59562219D01*
X89984799Y-59532414D01*
X89960132Y-59507746D01*
X89930326Y-59448134D01*
X89930326Y-59209635D01*
X89960131Y-59150025D01*
X89984799Y-59125356D01*
X90044409Y-59095552D01*
X90140052Y-59095552D01*
X90199661Y-59125357D01*
G37*
G36*
X91643965Y-59276504D02*
G01*
X91445260Y-59276504D01*
X91544612Y-58978446D01*
X91643965Y-59276504D01*
G37*
G36*
X94165702Y-64735076D02*
G01*
X85687601Y-64735076D01*
X85687601Y-64523121D01*
X85830458Y-64523121D01*
X85866785Y-64573121D01*
X85925564Y-64592219D01*
X86496992Y-64592219D01*
X86555771Y-64573121D01*
X86592098Y-64523121D01*
X86592098Y-64461317D01*
X86568588Y-64428958D01*
X86779174Y-64428958D01*
X86781652Y-64444602D01*
X86779175Y-64460243D01*
X86786364Y-64474353D01*
X86788843Y-64490000D01*
X86800043Y-64501199D01*
X86807233Y-64515311D01*
X86854852Y-64562929D01*
X86868963Y-64570119D01*
X86880164Y-64581320D01*
X86888133Y-64582582D01*
X86894661Y-64587325D01*
X86902730Y-64587325D01*
X86909919Y-64590988D01*
X86925562Y-64588510D01*
X86941206Y-64590988D01*
X86948395Y-64587325D01*
X86956465Y-64587325D01*
X86962993Y-64582582D01*
X86970962Y-64581320D01*
X86982161Y-64570120D01*
X86996274Y-64562930D01*
X87043892Y-64515311D01*
X87051081Y-64501200D01*
X87062283Y-64490000D01*
X87064760Y-64474354D01*
X87071951Y-64460244D01*
X87069473Y-64444600D01*
X87071951Y-64428958D01*
X87064760Y-64414846D01*
X87062283Y-64399201D01*
X87051082Y-64388000D01*
X87043893Y-64373890D01*
X86996274Y-64326270D01*
X86982161Y-64319079D01*
X86970961Y-64307879D01*
X86962993Y-64306617D01*
X86956465Y-64301874D01*
X86948396Y-64301874D01*
X86941207Y-64298211D01*
X86925562Y-64300688D01*
X86909919Y-64298211D01*
X86902730Y-64301874D01*
X86894661Y-64301874D01*
X86888134Y-64306615D01*
X86880165Y-64307878D01*
X86868963Y-64319079D01*
X86854851Y-64326270D01*
X86807233Y-64373890D01*
X86800042Y-64388001D01*
X86788843Y-64399201D01*
X86786365Y-64414844D01*
X86779174Y-64428958D01*
X86568588Y-64428958D01*
X86555771Y-64411317D01*
X86496992Y-64392219D01*
X86311278Y-64392219D01*
X86311278Y-64111266D01*
X87254135Y-64111266D01*
X87257981Y-64123103D01*
X87257121Y-64135520D01*
X87304740Y-64325995D01*
X87310650Y-64335441D01*
X87312311Y-64346463D01*
X87359930Y-64441701D01*
X87371303Y-64453248D01*
X87378662Y-64467690D01*
X87426280Y-64515310D01*
X87440723Y-64522669D01*
X87452271Y-64534043D01*
X87547508Y-64581662D01*
X87570306Y-64585095D01*
X87592230Y-64592219D01*
X87687468Y-64592219D01*
X87709391Y-64585095D01*
X87732189Y-64581662D01*
X87827427Y-64534043D01*
X87838975Y-64522668D01*
X87853417Y-64515310D01*
X87901036Y-64467690D01*
X87908393Y-64453249D01*
X87919768Y-64441701D01*
X87967387Y-64346464D01*
X87969047Y-64335442D01*
X87974958Y-64325996D01*
X88022577Y-64135520D01*
X88021716Y-64123103D01*
X88025563Y-64111266D01*
X88025563Y-63873171D01*
X88021716Y-63861333D01*
X88022577Y-63848917D01*
X87974958Y-63658441D01*
X87969047Y-63648994D01*
X87967387Y-63637973D01*
X87919768Y-63542736D01*
X87908393Y-63531187D01*
X87901035Y-63516746D01*
X87853417Y-63469127D01*
X87839508Y-63462040D01*
X88115940Y-63462040D01*
X88116410Y-63523842D01*
X88449743Y-64523841D01*
X88467653Y-64548104D01*
X88485220Y-64572672D01*
X88485974Y-64572923D01*
X88486448Y-64573565D01*
X88515213Y-64582670D01*
X88543852Y-64592217D01*
X88544612Y-64591976D01*
X88545370Y-64592216D01*
X88573948Y-64582689D01*
X88602774Y-64573565D01*
X88603247Y-64572923D01*
X88604002Y-64572672D01*
X88621556Y-64548120D01*
X88639479Y-64523842D01*
X88650020Y-64492219D01*
X89873183Y-64492219D01*
X89892281Y-64550998D01*
X89942281Y-64587325D01*
X90004085Y-64587325D01*
X90016697Y-64578161D01*
X90023699Y-64581662D01*
X90046497Y-64585095D01*
X90068421Y-64592219D01*
X90258897Y-64592219D01*
X90280820Y-64585095D01*
X90303618Y-64581662D01*
X90398856Y-64534043D01*
X90410404Y-64522668D01*
X90424846Y-64515310D01*
X90472465Y-64467690D01*
X90479822Y-64453249D01*
X90491197Y-64441701D01*
X90538816Y-64346464D01*
X90542249Y-64323665D01*
X90549373Y-64301742D01*
X90549373Y-64016028D01*
X90542249Y-63994104D01*
X90538816Y-63971306D01*
X90491197Y-63876069D01*
X90479822Y-63864520D01*
X90475712Y-63856454D01*
X90639982Y-63856454D01*
X90676309Y-63906454D01*
X90735088Y-63925552D01*
X90806719Y-63925552D01*
X90866328Y-63955357D01*
X90890997Y-63980025D01*
X90920802Y-64039635D01*
X90920802Y-64492219D01*
X90939900Y-64550998D01*
X90989900Y-64587325D01*
X91051704Y-64587325D01*
X91101704Y-64550998D01*
X91120802Y-64492219D01*
X91396993Y-64492219D01*
X91416091Y-64550998D01*
X91466091Y-64587325D01*
X91527895Y-64587325D01*
X91540507Y-64578161D01*
X91547509Y-64581662D01*
X91570307Y-64585095D01*
X91592231Y-64592219D01*
X91830326Y-64592219D01*
X91852249Y-64585095D01*
X91875047Y-64581662D01*
X91970285Y-64534043D01*
X91970851Y-64533484D01*
X91971639Y-64533354D01*
X91992832Y-64511835D01*
X92014318Y-64490674D01*
X92014448Y-64489887D01*
X92015007Y-64489321D01*
X92062626Y-64394082D01*
X92066059Y-64371284D01*
X92073183Y-64349361D01*
X92073183Y-64301742D01*
X92254136Y-64301742D01*
X92261259Y-64323665D01*
X92264693Y-64346463D01*
X92312312Y-64441701D01*
X92323685Y-64453248D01*
X92331044Y-64467690D01*
X92378662Y-64515310D01*
X92393105Y-64522669D01*
X92404653Y-64534043D01*
X92499890Y-64581662D01*
X92522688Y-64585095D01*
X92544612Y-64592219D01*
X92687469Y-64592219D01*
X92709392Y-64585095D01*
X92732190Y-64581662D01*
X92827428Y-64534043D01*
X92838976Y-64522668D01*
X92853418Y-64515310D01*
X92901037Y-64467690D01*
X92908394Y-64453249D01*
X92919769Y-64441701D01*
X92967388Y-64346464D01*
X92970821Y-64323665D01*
X92977945Y-64301742D01*
X93158898Y-64301742D01*
X93166021Y-64323665D01*
X93169455Y-64346463D01*
X93217074Y-64441701D01*
X93228447Y-64453248D01*
X93235806Y-64467690D01*
X93283424Y-64515310D01*
X93297867Y-64522669D01*
X93309415Y-64534043D01*
X93404652Y-64581662D01*
X93427450Y-64585095D01*
X93449374Y-64592219D01*
X93830326Y-64592219D01*
X93845389Y-64587325D01*
X93861228Y-64587325D01*
X93874041Y-64578015D01*
X93889105Y-64573121D01*
X93898414Y-64560307D01*
X93911228Y-64550998D01*
X93916122Y-64535934D01*
X93925432Y-64523121D01*
X93925432Y-64507281D01*
X93930326Y-64492219D01*
X93930326Y-63492219D01*
X93925432Y-63477156D01*
X93925432Y-63461317D01*
X93916122Y-63448503D01*
X93911228Y-63433440D01*
X93898414Y-63424130D01*
X93889105Y-63411317D01*
X93874041Y-63406422D01*
X93861228Y-63397113D01*
X93845389Y-63397113D01*
X93830326Y-63392219D01*
X93496993Y-63392219D01*
X93475069Y-63399342D01*
X93452271Y-63402776D01*
X93357034Y-63450395D01*
X93345485Y-63461769D01*
X93331044Y-63469128D01*
X93283425Y-63516746D01*
X93276066Y-63531188D01*
X93264693Y-63542736D01*
X93217074Y-63637974D01*
X93213640Y-63660771D01*
X93206517Y-63682695D01*
X93206517Y-63777933D01*
X93213640Y-63799856D01*
X93217074Y-63822654D01*
X93264693Y-63917892D01*
X93276066Y-63929439D01*
X93283425Y-63943882D01*
X93284376Y-63944833D01*
X93283425Y-63945318D01*
X93235806Y-63992936D01*
X93228447Y-64007378D01*
X93217074Y-64018926D01*
X93169455Y-64114164D01*
X93166021Y-64136961D01*
X93158898Y-64158885D01*
X93158898Y-64301742D01*
X92977945Y-64301742D01*
X92977945Y-64016028D01*
X92970821Y-63994104D01*
X92967388Y-63971306D01*
X92919769Y-63876069D01*
X92908394Y-63864520D01*
X92901036Y-63850079D01*
X92853418Y-63802460D01*
X92838975Y-63795101D01*
X92827428Y-63783728D01*
X92732190Y-63736109D01*
X92709392Y-63732675D01*
X92687469Y-63725552D01*
X92544612Y-63725552D01*
X92522688Y-63732675D01*
X92499890Y-63736109D01*
X92404653Y-63783728D01*
X92393104Y-63795102D01*
X92378663Y-63802461D01*
X92331044Y-63850079D01*
X92323685Y-63864521D01*
X92312312Y-63876069D01*
X92264693Y-63971307D01*
X92261259Y-63994104D01*
X92254136Y-64016028D01*
X92254136Y-64301742D01*
X92073183Y-64301742D01*
X92073183Y-64254123D01*
X92066059Y-64232199D01*
X92062626Y-64209401D01*
X92015007Y-64114164D01*
X92014448Y-64113597D01*
X92014318Y-64112811D01*
X91992815Y-64091633D01*
X91971638Y-64070131D01*
X91970851Y-64070000D01*
X91970285Y-64069442D01*
X91875047Y-64021823D01*
X91852249Y-64018389D01*
X91830326Y-64011266D01*
X91615838Y-64011266D01*
X91596993Y-64001843D01*
X91596993Y-63992016D01*
X91619148Y-63947706D01*
X91663457Y-63925552D01*
X91806719Y-63925552D01*
X91880842Y-63962614D01*
X91941957Y-63971819D01*
X91996809Y-63943343D01*
X92024449Y-63888064D01*
X92014318Y-63827097D01*
X91970285Y-63783728D01*
X91875047Y-63736109D01*
X91852249Y-63732675D01*
X91830326Y-63725552D01*
X91639850Y-63725552D01*
X91617926Y-63732675D01*
X91595128Y-63736109D01*
X91499891Y-63783728D01*
X91499324Y-63784286D01*
X91498538Y-63784417D01*
X91477360Y-63805919D01*
X91455858Y-63827097D01*
X91455727Y-63827883D01*
X91455169Y-63828450D01*
X91407550Y-63923688D01*
X91404116Y-63946485D01*
X91396993Y-63968409D01*
X91396993Y-64492219D01*
X91120802Y-64492219D01*
X91120802Y-63825552D01*
X91101704Y-63766773D01*
X91051704Y-63730446D01*
X90989900Y-63730446D01*
X90939900Y-63766773D01*
X90939407Y-63768289D01*
X90875047Y-63736109D01*
X90852249Y-63732675D01*
X90830326Y-63725552D01*
X90735088Y-63725552D01*
X90676309Y-63744650D01*
X90639982Y-63794650D01*
X90639982Y-63856454D01*
X90475712Y-63856454D01*
X90472464Y-63850079D01*
X90424846Y-63802460D01*
X90410403Y-63795101D01*
X90398856Y-63783728D01*
X90303618Y-63736109D01*
X90280820Y-63732675D01*
X90258897Y-63725552D01*
X90073183Y-63725552D01*
X90073183Y-63492219D01*
X90054085Y-63433440D01*
X90004085Y-63397113D01*
X89942281Y-63397113D01*
X89892281Y-63433440D01*
X89873183Y-63492219D01*
X89873183Y-64492219D01*
X88650020Y-64492219D01*
X88972812Y-63523842D01*
X88973282Y-63462040D01*
X88937335Y-63411766D01*
X88878703Y-63392222D01*
X88819781Y-63410873D01*
X88783076Y-63460597D01*
X88544611Y-64175991D01*
X88306146Y-63460596D01*
X88269441Y-63410873D01*
X88210519Y-63392221D01*
X88151887Y-63411766D01*
X88115940Y-63462040D01*
X87839508Y-63462040D01*
X87838974Y-63461768D01*
X87827427Y-63450395D01*
X87732189Y-63402776D01*
X87709391Y-63399342D01*
X87687468Y-63392219D01*
X87592230Y-63392219D01*
X87570306Y-63399342D01*
X87547508Y-63402776D01*
X87452271Y-63450395D01*
X87440722Y-63461769D01*
X87426281Y-63469128D01*
X87378662Y-63516746D01*
X87371303Y-63531188D01*
X87359930Y-63542736D01*
X87312311Y-63637974D01*
X87310650Y-63648995D01*
X87304740Y-63658442D01*
X87257121Y-63848917D01*
X87257981Y-63861333D01*
X87254135Y-63873171D01*
X87254135Y-64111266D01*
X86311278Y-64111266D01*
X86311278Y-63781260D01*
X86331043Y-63801025D01*
X86345485Y-63808383D01*
X86357033Y-63819757D01*
X86452270Y-63867376D01*
X86513385Y-63876581D01*
X86568237Y-63848105D01*
X86595877Y-63792826D01*
X86585746Y-63731859D01*
X86541713Y-63688490D01*
X86460991Y-63648129D01*
X86384227Y-63571365D01*
X86294483Y-63436749D01*
X86292831Y-63435443D01*
X86292180Y-63433440D01*
X86268722Y-63416397D01*
X86245988Y-63398436D01*
X86243884Y-63398351D01*
X86242180Y-63397113D01*
X86213190Y-63397113D01*
X86184235Y-63395945D01*
X86182483Y-63397113D01*
X86180376Y-63397113D01*
X86156921Y-63414153D01*
X86132811Y-63430227D01*
X86132080Y-63432201D01*
X86130376Y-63433440D01*
X86121420Y-63461003D01*
X86111359Y-63488188D01*
X86111928Y-63490216D01*
X86111278Y-63492219D01*
X86111278Y-64392219D01*
X85925564Y-64392219D01*
X85866785Y-64411317D01*
X85830458Y-64461317D01*
X85830458Y-64523121D01*
X85687601Y-64523121D01*
X85687601Y-63025076D01*
X89444612Y-63025076D01*
X89451735Y-63046999D01*
X89455169Y-63069797D01*
X89502788Y-63165035D01*
X89514161Y-63176582D01*
X89521520Y-63191025D01*
X89569139Y-63238643D01*
X89583580Y-63246001D01*
X89595129Y-63257376D01*
X89690366Y-63304995D01*
X89713164Y-63308428D01*
X89735088Y-63315552D01*
X89877945Y-63315552D01*
X89899868Y-63308428D01*
X89922666Y-63304995D01*
X90017904Y-63257376D01*
X90061937Y-63214007D01*
X90072068Y-63153040D01*
X90044428Y-63097761D01*
X89989576Y-63069285D01*
X89928461Y-63078490D01*
X89854338Y-63115552D01*
X89758695Y-63115552D01*
X89699085Y-63085747D01*
X89674417Y-63061078D01*
X89644612Y-63001468D01*
X89644612Y-62982219D01*
X89830326Y-62982219D01*
X89852249Y-62975095D01*
X89875047Y-62971662D01*
X89970285Y-62924043D01*
X89981833Y-62912668D01*
X89996275Y-62905310D01*
X90019366Y-62882219D01*
X90349373Y-62882219D01*
X90368471Y-62940998D01*
X90418471Y-62977325D01*
X90480275Y-62977325D01*
X90530275Y-62940998D01*
X90549373Y-62882219D01*
X90549373Y-62246454D01*
X90687601Y-62246454D01*
X90723928Y-62296454D01*
X90782707Y-62315552D01*
X90920802Y-62315552D01*
X90920802Y-62882219D01*
X90939900Y-62940998D01*
X90989900Y-62977325D01*
X91051704Y-62977325D01*
X91101704Y-62940998D01*
X91120802Y-62882219D01*
X91396993Y-62882219D01*
X91416091Y-62940998D01*
X91466091Y-62977325D01*
X91527895Y-62977325D01*
X91577895Y-62940998D01*
X91596993Y-62882219D01*
X91596993Y-62382016D01*
X91619148Y-62337706D01*
X91663457Y-62315552D01*
X91759100Y-62315552D01*
X91818709Y-62345357D01*
X91825564Y-62352211D01*
X91825564Y-62882219D01*
X91844662Y-62940998D01*
X91894662Y-62977325D01*
X91956466Y-62977325D01*
X92006466Y-62940998D01*
X92025564Y-62882219D01*
X92025564Y-62691742D01*
X92254136Y-62691742D01*
X92261259Y-62713665D01*
X92264693Y-62736463D01*
X92312312Y-62831701D01*
X92323685Y-62843248D01*
X92331044Y-62857690D01*
X92378662Y-62905310D01*
X92393105Y-62912669D01*
X92404653Y-62924043D01*
X92499890Y-62971662D01*
X92522688Y-62975095D01*
X92544612Y-62982219D01*
X92687469Y-62982219D01*
X92709392Y-62975095D01*
X92732190Y-62971662D01*
X92827428Y-62924043D01*
X92838976Y-62912668D01*
X92853418Y-62905310D01*
X92901037Y-62857690D01*
X92908394Y-62843249D01*
X92919769Y-62831701D01*
X92934309Y-62802622D01*
X93160128Y-62802622D01*
X93188187Y-62857690D01*
X93235805Y-62905310D01*
X93256347Y-62915776D01*
X93274894Y-62929468D01*
X93417751Y-62977087D01*
X93433958Y-62977210D01*
X93449374Y-62982219D01*
X93544612Y-62982219D01*
X93560027Y-62977210D01*
X93576235Y-62977087D01*
X93719091Y-62929468D01*
X93737638Y-62915776D01*
X93758180Y-62905310D01*
X93853418Y-62810071D01*
X93860776Y-62795629D01*
X93872150Y-62784082D01*
X93919769Y-62688845D01*
X93921429Y-62677823D01*
X93927340Y-62668377D01*
X93974959Y-62477901D01*
X93974098Y-62465484D01*
X93977945Y-62453647D01*
X93977945Y-62310790D01*
X93974098Y-62298952D01*
X93974959Y-62286536D01*
X93927340Y-62096060D01*
X93921429Y-62086613D01*
X93919769Y-62075592D01*
X93872150Y-61980355D01*
X93860776Y-61968807D01*
X93853418Y-61954365D01*
X93758180Y-61859127D01*
X93737636Y-61848659D01*
X93719091Y-61834970D01*
X93576235Y-61787351D01*
X93560027Y-61787227D01*
X93544612Y-61782219D01*
X93449374Y-61782219D01*
X93433958Y-61787227D01*
X93417751Y-61787351D01*
X93274894Y-61834970D01*
X93256345Y-61848662D01*
X93235806Y-61859128D01*
X93188187Y-61906746D01*
X93160129Y-61961814D01*
X93169797Y-62022856D01*
X93213499Y-62066558D01*
X93274541Y-62076226D01*
X93329609Y-62048168D01*
X93360535Y-62017240D01*
X93465600Y-61982219D01*
X93528385Y-61982219D01*
X93633449Y-62017240D01*
X93700522Y-62084313D01*
X93735974Y-62155218D01*
X93777945Y-62323099D01*
X93777945Y-62441337D01*
X93735974Y-62609218D01*
X93700521Y-62680124D01*
X93633450Y-62747197D01*
X93528385Y-62782219D01*
X93465600Y-62782219D01*
X93360535Y-62747197D01*
X93329609Y-62716270D01*
X93274542Y-62688211D01*
X93213500Y-62697878D01*
X93169797Y-62741580D01*
X93160128Y-62802622D01*
X92934309Y-62802622D01*
X92967388Y-62736464D01*
X92970821Y-62713665D01*
X92977945Y-62691742D01*
X92977945Y-62406028D01*
X92970821Y-62384104D01*
X92967388Y-62361306D01*
X92919769Y-62266069D01*
X92908394Y-62254520D01*
X92901036Y-62240079D01*
X92853418Y-62192460D01*
X92838975Y-62185101D01*
X92827428Y-62173728D01*
X92732190Y-62126109D01*
X92709392Y-62122675D01*
X92687469Y-62115552D01*
X92544612Y-62115552D01*
X92522688Y-62122675D01*
X92499890Y-62126109D01*
X92404653Y-62173728D01*
X92393104Y-62185102D01*
X92378663Y-62192461D01*
X92331044Y-62240079D01*
X92323685Y-62254521D01*
X92312312Y-62266069D01*
X92264693Y-62361307D01*
X92261259Y-62384104D01*
X92254136Y-62406028D01*
X92254136Y-62691742D01*
X92025564Y-62691742D01*
X92025564Y-62215552D01*
X92006466Y-62156773D01*
X91956466Y-62120446D01*
X91894662Y-62120446D01*
X91862636Y-62143713D01*
X91827428Y-62126109D01*
X91804630Y-62122675D01*
X91782707Y-62115552D01*
X91639850Y-62115552D01*
X91617926Y-62122675D01*
X91595128Y-62126109D01*
X91499891Y-62173728D01*
X91499324Y-62174286D01*
X91498538Y-62174417D01*
X91477360Y-62195919D01*
X91455858Y-62217097D01*
X91455727Y-62217883D01*
X91455169Y-62218450D01*
X91407550Y-62313688D01*
X91404116Y-62336485D01*
X91396993Y-62358409D01*
X91396993Y-62882219D01*
X91120802Y-62882219D01*
X91120802Y-62315552D01*
X91163659Y-62315552D01*
X91222438Y-62296454D01*
X91258765Y-62246454D01*
X91258765Y-62184650D01*
X91222438Y-62134650D01*
X91163659Y-62115552D01*
X91120802Y-62115552D01*
X91120802Y-62025076D01*
X91113678Y-62003152D01*
X91110245Y-61980354D01*
X91062626Y-61885117D01*
X91062067Y-61884550D01*
X91061937Y-61883764D01*
X91040434Y-61862586D01*
X91019257Y-61841084D01*
X91018470Y-61840953D01*
X91017904Y-61840395D01*
X90922666Y-61792776D01*
X90899868Y-61789342D01*
X90877945Y-61782219D01*
X90782707Y-61782219D01*
X90723928Y-61801317D01*
X90687601Y-61851317D01*
X90687601Y-61913121D01*
X90723928Y-61963121D01*
X90782707Y-61982219D01*
X90854338Y-61982219D01*
X90898647Y-62004374D01*
X90920802Y-62048683D01*
X90920802Y-62115552D01*
X90782707Y-62115552D01*
X90723928Y-62134650D01*
X90687601Y-62184650D01*
X90687601Y-62246454D01*
X90549373Y-62246454D01*
X90549373Y-62215552D01*
X90530275Y-62156773D01*
X90480275Y-62120446D01*
X90418471Y-62120446D01*
X90368471Y-62156773D01*
X90349373Y-62215552D01*
X90349373Y-62882219D01*
X90019366Y-62882219D01*
X90043894Y-62857690D01*
X90051251Y-62843249D01*
X90062626Y-62831701D01*
X90110245Y-62736464D01*
X90113678Y-62713665D01*
X90120802Y-62691742D01*
X90120802Y-62406028D01*
X90113678Y-62384104D01*
X90110245Y-62361306D01*
X90062626Y-62266069D01*
X90051251Y-62254520D01*
X90043893Y-62240079D01*
X89996275Y-62192460D01*
X89981832Y-62185101D01*
X89970285Y-62173728D01*
X89875047Y-62126109D01*
X89852249Y-62122675D01*
X89830326Y-62115552D01*
X89639850Y-62115552D01*
X89617926Y-62122675D01*
X89595128Y-62126109D01*
X89588126Y-62129609D01*
X89575514Y-62120446D01*
X89513710Y-62120446D01*
X89463710Y-62156773D01*
X89444612Y-62215552D01*
X89444612Y-63025076D01*
X85687601Y-63025076D01*
X85687601Y-61945481D01*
X90302985Y-61945481D01*
X90310175Y-61959592D01*
X90312653Y-61975237D01*
X90323852Y-61986436D01*
X90331043Y-62000549D01*
X90378662Y-62048167D01*
X90392773Y-62055357D01*
X90403974Y-62066558D01*
X90411943Y-62067820D01*
X90418471Y-62072563D01*
X90426540Y-62072563D01*
X90433729Y-62076226D01*
X90449372Y-62073748D01*
X90465016Y-62076226D01*
X90472205Y-62072563D01*
X90480275Y-62072563D01*
X90486803Y-62067820D01*
X90494772Y-62066558D01*
X90505971Y-62055358D01*
X90520084Y-62048168D01*
X90567702Y-62000549D01*
X90574892Y-61986437D01*
X90586093Y-61975237D01*
X90588570Y-61959593D01*
X90595761Y-61945482D01*
X90593283Y-61929838D01*
X90595761Y-61914194D01*
X90588570Y-61900082D01*
X90586093Y-61884439D01*
X90574892Y-61873238D01*
X90567702Y-61859127D01*
X90520084Y-61811508D01*
X90505971Y-61804317D01*
X90494772Y-61793118D01*
X90486803Y-61791855D01*
X90480275Y-61787113D01*
X90472205Y-61787113D01*
X90465016Y-61783450D01*
X90449372Y-61785927D01*
X90433729Y-61783450D01*
X90426540Y-61787113D01*
X90418471Y-61787113D01*
X90411943Y-61791855D01*
X90403974Y-61793118D01*
X90392773Y-61804318D01*
X90378662Y-61811509D01*
X90331043Y-61859127D01*
X90323852Y-61873239D01*
X90312653Y-61884439D01*
X90310175Y-61900083D01*
X90302985Y-61914195D01*
X90305462Y-61929838D01*
X90302985Y-61945481D01*
X85687601Y-61945481D01*
X85687601Y-61272219D01*
X91254136Y-61272219D01*
X91273234Y-61330998D01*
X91323234Y-61367325D01*
X91385038Y-61367325D01*
X91435038Y-61330998D01*
X91454136Y-61272219D01*
X91454136Y-60605552D01*
X91435038Y-60546773D01*
X91385038Y-60510446D01*
X91323234Y-60510446D01*
X91273234Y-60546773D01*
X91254136Y-60605552D01*
X91254136Y-61272219D01*
X85687601Y-61272219D01*
X85687601Y-60335481D01*
X91207748Y-60335481D01*
X91214938Y-60349592D01*
X91217416Y-60365237D01*
X91228615Y-60376436D01*
X91235806Y-60390549D01*
X91283425Y-60438167D01*
X91297536Y-60445357D01*
X91308737Y-60456558D01*
X91316706Y-60457820D01*
X91323234Y-60462563D01*
X91331303Y-60462563D01*
X91338492Y-60466226D01*
X91354135Y-60463748D01*
X91369779Y-60466226D01*
X91376968Y-60462563D01*
X91385038Y-60462563D01*
X91391566Y-60457820D01*
X91399535Y-60456558D01*
X91410734Y-60445358D01*
X91424847Y-60438168D01*
X91472465Y-60390549D01*
X91479655Y-60376437D01*
X91490856Y-60365237D01*
X91493333Y-60349593D01*
X91500524Y-60335482D01*
X91498046Y-60319838D01*
X91500524Y-60304194D01*
X91499977Y-60303121D01*
X91639983Y-60303121D01*
X91676310Y-60353121D01*
X91735089Y-60372219D01*
X92111279Y-60372219D01*
X92111279Y-60648409D01*
X91877946Y-60648409D01*
X91819167Y-60667507D01*
X91782840Y-60717507D01*
X91782840Y-60779311D01*
X91819167Y-60829311D01*
X91877946Y-60848409D01*
X92111279Y-60848409D01*
X92111279Y-61272219D01*
X92130377Y-61330998D01*
X92180377Y-61367325D01*
X92242181Y-61367325D01*
X92292181Y-61330998D01*
X92311279Y-61272219D01*
X92587469Y-61272219D01*
X92606567Y-61330998D01*
X92656567Y-61367325D01*
X92718371Y-61367325D01*
X92768371Y-61330998D01*
X92787469Y-61272219D01*
X92787469Y-60605552D01*
X92768371Y-60546773D01*
X92718371Y-60510446D01*
X92656567Y-60510446D01*
X92606567Y-60546773D01*
X92587469Y-60605552D01*
X92587469Y-61272219D01*
X92311279Y-61272219D01*
X92311279Y-60335481D01*
X92541081Y-60335481D01*
X92548271Y-60349592D01*
X92550749Y-60365237D01*
X92561948Y-60376436D01*
X92569139Y-60390549D01*
X92616758Y-60438167D01*
X92630869Y-60445357D01*
X92642070Y-60456558D01*
X92650039Y-60457820D01*
X92656567Y-60462563D01*
X92664636Y-60462563D01*
X92671825Y-60466226D01*
X92687468Y-60463748D01*
X92703112Y-60466226D01*
X92710301Y-60462563D01*
X92718371Y-60462563D01*
X92724899Y-60457820D01*
X92732868Y-60456558D01*
X92744067Y-60445358D01*
X92758180Y-60438168D01*
X92805798Y-60390549D01*
X92812988Y-60376437D01*
X92824189Y-60365237D01*
X92826666Y-60349593D01*
X92833857Y-60335482D01*
X92831379Y-60319838D01*
X92833857Y-60304194D01*
X92829366Y-60295381D01*
X92971141Y-60295381D01*
X93209236Y-61295381D01*
X93212832Y-61301274D01*
X93213202Y-61308168D01*
X93228654Y-61327204D01*
X93241429Y-61348138D01*
X93247802Y-61350792D01*
X93252153Y-61356151D01*
X93275845Y-61362469D01*
X93298484Y-61371896D01*
X93305199Y-61370297D01*
X93311870Y-61372076D01*
X93334754Y-61363260D01*
X93358607Y-61357581D01*
X93363099Y-61352340D01*
X93369542Y-61349859D01*
X93382873Y-61329276D01*
X93398833Y-61310661D01*
X93399387Y-61303779D01*
X93403141Y-61297985D01*
X93496993Y-60946038D01*
X93590846Y-61297986D01*
X93594598Y-61303779D01*
X93595153Y-61310661D01*
X93611113Y-61329277D01*
X93624444Y-61349859D01*
X93630886Y-61352340D01*
X93635379Y-61357581D01*
X93659231Y-61363260D01*
X93682116Y-61372076D01*
X93688786Y-61370297D01*
X93695502Y-61371896D01*
X93718136Y-61362470D01*
X93741833Y-61356152D01*
X93746184Y-61350791D01*
X93752557Y-61348138D01*
X93765328Y-61327208D01*
X93780785Y-61308168D01*
X93781154Y-61301273D01*
X93784750Y-61295381D01*
X94022845Y-60295381D01*
X94017880Y-60233777D01*
X93977654Y-60186857D01*
X93917531Y-60172542D01*
X93860476Y-60196300D01*
X93828283Y-60249057D01*
X93681980Y-60863529D01*
X93593617Y-60532167D01*
X93590605Y-60527517D01*
X93590309Y-60521984D01*
X93574042Y-60501945D01*
X93560018Y-60480293D01*
X93554849Y-60478301D01*
X93551357Y-60474000D01*
X93526422Y-60467351D01*
X93502346Y-60458076D01*
X93496993Y-60459503D01*
X93491640Y-60458076D01*
X93467558Y-60467352D01*
X93442629Y-60474001D01*
X93439138Y-60478301D01*
X93433968Y-60480293D01*
X93419940Y-60501950D01*
X93403678Y-60521984D01*
X93403381Y-60527516D01*
X93400370Y-60532166D01*
X93312005Y-60863530D01*
X93165703Y-60249057D01*
X93133510Y-60196300D01*
X93076455Y-60172542D01*
X93016332Y-60186857D01*
X92976106Y-60233777D01*
X92971141Y-60295381D01*
X92829366Y-60295381D01*
X92826666Y-60290082D01*
X92824189Y-60274439D01*
X92812988Y-60263238D01*
X92805798Y-60249127D01*
X92758180Y-60201508D01*
X92744067Y-60194317D01*
X92732868Y-60183118D01*
X92724899Y-60181855D01*
X92718371Y-60177113D01*
X92710301Y-60177113D01*
X92703112Y-60173450D01*
X92687468Y-60175927D01*
X92671825Y-60173450D01*
X92664636Y-60177113D01*
X92656567Y-60177113D01*
X92650039Y-60181855D01*
X92642070Y-60183118D01*
X92630869Y-60194318D01*
X92616758Y-60201509D01*
X92569139Y-60249127D01*
X92561948Y-60263239D01*
X92550749Y-60274439D01*
X92548271Y-60290083D01*
X92541081Y-60304195D01*
X92543558Y-60319838D01*
X92541081Y-60335481D01*
X92311279Y-60335481D01*
X92311279Y-60272219D01*
X92306385Y-60257156D01*
X92306385Y-60241317D01*
X92297075Y-60228503D01*
X92292181Y-60213440D01*
X92279367Y-60204130D01*
X92270058Y-60191317D01*
X92254994Y-60186422D01*
X92242181Y-60177113D01*
X92226342Y-60177113D01*
X92211279Y-60172219D01*
X91735089Y-60172219D01*
X91676310Y-60191317D01*
X91639983Y-60241317D01*
X91639983Y-60303121D01*
X91499977Y-60303121D01*
X91493333Y-60290082D01*
X91490856Y-60274439D01*
X91479655Y-60263238D01*
X91472465Y-60249127D01*
X91424847Y-60201508D01*
X91410734Y-60194317D01*
X91399535Y-60183118D01*
X91391566Y-60181855D01*
X91385038Y-60177113D01*
X91376968Y-60177113D01*
X91369779Y-60173450D01*
X91354135Y-60175927D01*
X91338492Y-60173450D01*
X91331303Y-60177113D01*
X91323234Y-60177113D01*
X91316706Y-60181855D01*
X91308737Y-60183118D01*
X91297536Y-60194318D01*
X91283425Y-60201509D01*
X91235806Y-60249127D01*
X91228615Y-60263239D01*
X91217416Y-60274439D01*
X91214938Y-60290083D01*
X91207748Y-60304195D01*
X91210225Y-60319838D01*
X91207748Y-60335481D01*
X85687601Y-60335481D01*
X85687601Y-59662219D01*
X88444611Y-59662219D01*
X88463709Y-59720998D01*
X88513709Y-59757325D01*
X88575513Y-59757325D01*
X88625513Y-59720998D01*
X88644611Y-59662219D01*
X88644611Y-59162016D01*
X88666766Y-59117706D01*
X88711076Y-59095552D01*
X88806719Y-59095552D01*
X88851028Y-59117707D01*
X88873183Y-59162016D01*
X88873183Y-59662219D01*
X88892281Y-59720998D01*
X88942281Y-59757325D01*
X89004085Y-59757325D01*
X89054085Y-59720998D01*
X89073183Y-59662219D01*
X89073183Y-59162016D01*
X89095338Y-59117706D01*
X89139647Y-59095552D01*
X89235290Y-59095552D01*
X89294899Y-59125357D01*
X89301754Y-59132211D01*
X89301754Y-59662219D01*
X89320852Y-59720998D01*
X89370852Y-59757325D01*
X89432656Y-59757325D01*
X89482656Y-59720998D01*
X89501754Y-59662219D01*
X89501754Y-59471742D01*
X89730326Y-59471742D01*
X89737449Y-59493665D01*
X89740883Y-59516463D01*
X89788502Y-59611701D01*
X89799875Y-59623248D01*
X89807234Y-59637690D01*
X89854852Y-59685310D01*
X89869295Y-59692669D01*
X89880843Y-59704043D01*
X89976080Y-59751662D01*
X89998878Y-59755095D01*
X90020802Y-59762219D01*
X90163659Y-59762219D01*
X90185582Y-59755095D01*
X90208380Y-59751662D01*
X90303618Y-59704043D01*
X90314706Y-59693121D01*
X90544744Y-59693121D01*
X90581071Y-59743121D01*
X90639850Y-59762219D01*
X90735088Y-59762219D01*
X90757011Y-59755095D01*
X90779809Y-59751662D01*
X90875047Y-59704043D01*
X90875613Y-59703484D01*
X90876401Y-59703354D01*
X90887191Y-59692398D01*
X91115941Y-59692398D01*
X91151888Y-59742672D01*
X91210520Y-59762217D01*
X91269442Y-59743565D01*
X91306147Y-59693842D01*
X91378593Y-59476504D01*
X91710631Y-59476504D01*
X91783077Y-59693841D01*
X91819782Y-59743565D01*
X91878704Y-59762216D01*
X91937336Y-59742672D01*
X91973283Y-59692398D01*
X91972813Y-59630596D01*
X91919862Y-59471742D01*
X92063660Y-59471742D01*
X92070783Y-59493665D01*
X92074217Y-59516463D01*
X92121836Y-59611701D01*
X92133209Y-59623248D01*
X92140568Y-59637690D01*
X92188186Y-59685310D01*
X92202629Y-59692669D01*
X92214177Y-59704043D01*
X92309414Y-59751662D01*
X92332212Y-59755095D01*
X92354136Y-59762219D01*
X92592231Y-59762219D01*
X92614154Y-59755095D01*
X92636952Y-59751662D01*
X92732190Y-59704043D01*
X92743738Y-59692668D01*
X92758180Y-59685310D01*
X92781271Y-59662219D01*
X93063660Y-59662219D01*
X93082758Y-59720998D01*
X93132758Y-59757325D01*
X93194562Y-59757325D01*
X93244562Y-59720998D01*
X93263660Y-59662219D01*
X93263660Y-59112975D01*
X93406375Y-59418793D01*
X93419469Y-59432826D01*
X93428771Y-59449619D01*
X93440047Y-59454881D01*
X93448538Y-59463981D01*
X93467385Y-59467638D01*
X93484777Y-59475755D01*
X93496990Y-59473384D01*
X93509209Y-59475756D01*
X93526605Y-59467637D01*
X93545448Y-59463981D01*
X93553936Y-59454883D01*
X93565215Y-59449620D01*
X93574518Y-59432825D01*
X93587611Y-59418793D01*
X93730326Y-59112974D01*
X93730326Y-59662219D01*
X93749424Y-59720998D01*
X93799424Y-59757325D01*
X93861228Y-59757325D01*
X93911228Y-59720998D01*
X93930326Y-59662219D01*
X93930326Y-58662219D01*
X93927297Y-58652896D01*
X93928495Y-58643166D01*
X93917950Y-58624129D01*
X93911228Y-58603440D01*
X93903298Y-58597678D01*
X93898548Y-58589103D01*
X93878829Y-58579900D01*
X93861228Y-58567113D01*
X93851426Y-58567113D01*
X93842542Y-58562967D01*
X93821180Y-58567113D01*
X93799424Y-58567113D01*
X93791494Y-58572874D01*
X93781871Y-58574742D01*
X93767027Y-58590650D01*
X93749424Y-58603440D01*
X93746394Y-58612763D01*
X93739708Y-58619930D01*
X93496992Y-59140033D01*
X93254278Y-58619930D01*
X93247591Y-58612763D01*
X93244562Y-58603440D01*
X93226958Y-58590650D01*
X93212115Y-58574742D01*
X93202492Y-58572874D01*
X93194562Y-58567113D01*
X93172803Y-58567113D01*
X93151444Y-58562968D01*
X93142562Y-58567113D01*
X93132758Y-58567113D01*
X93115153Y-58579903D01*
X93095438Y-58589104D01*
X93090688Y-58597678D01*
X93082758Y-58603440D01*
X93076034Y-58624132D01*
X93065491Y-58643167D01*
X93066688Y-58652897D01*
X93063660Y-58662219D01*
X93063660Y-59662219D01*
X92781271Y-59662219D01*
X92805799Y-59637690D01*
X92833857Y-59582622D01*
X92824189Y-59521580D01*
X92780486Y-59477879D01*
X92719444Y-59468211D01*
X92664376Y-59496270D01*
X92628233Y-59532413D01*
X92568624Y-59562219D01*
X92377743Y-59562219D01*
X92318133Y-59532414D01*
X92293466Y-59507746D01*
X92263660Y-59448134D01*
X92263660Y-59257254D01*
X92293465Y-59197644D01*
X92318133Y-59172975D01*
X92377743Y-59143171D01*
X92568624Y-59143171D01*
X92628233Y-59172976D01*
X92664377Y-59209119D01*
X92689470Y-59221905D01*
X92713803Y-59236118D01*
X92716779Y-59235820D01*
X92719444Y-59237178D01*
X92747266Y-59232771D01*
X92775300Y-59229968D01*
X92777532Y-59227977D01*
X92780487Y-59227510D01*
X92800406Y-59207590D01*
X92821437Y-59188846D01*
X92822073Y-59185923D01*
X92824189Y-59183808D01*
X92828595Y-59155984D01*
X92834592Y-59128459D01*
X92786973Y-58652269D01*
X92782575Y-58642254D01*
X92782575Y-58631317D01*
X92770429Y-58614600D01*
X92762121Y-58595682D01*
X92752676Y-58590165D01*
X92746248Y-58581317D01*
X92726596Y-58574932D01*
X92708754Y-58564510D01*
X92697870Y-58565598D01*
X92687469Y-58562219D01*
X92211279Y-58562219D01*
X92152500Y-58581317D01*
X92116173Y-58631317D01*
X92116173Y-58693121D01*
X92152500Y-58743121D01*
X92211279Y-58762219D01*
X92596970Y-58762219D01*
X92615802Y-58950542D01*
X92614154Y-58950294D01*
X92592231Y-58943171D01*
X92354136Y-58943171D01*
X92332212Y-58950294D01*
X92309414Y-58953728D01*
X92214177Y-59001347D01*
X92202628Y-59012721D01*
X92188187Y-59020080D01*
X92140568Y-59067698D01*
X92133209Y-59082140D01*
X92121836Y-59093688D01*
X92074217Y-59188926D01*
X92070783Y-59211723D01*
X92063660Y-59233647D01*
X92063660Y-59471742D01*
X91919862Y-59471742D01*
X91639480Y-58630596D01*
X91621557Y-58606317D01*
X91604003Y-58581766D01*
X91603248Y-58581514D01*
X91602775Y-58580873D01*
X91573949Y-58571748D01*
X91545371Y-58562222D01*
X91544613Y-58562461D01*
X91543853Y-58562221D01*
X91515214Y-58571767D01*
X91486449Y-58580873D01*
X91485975Y-58581514D01*
X91485221Y-58581766D01*
X91467654Y-58606333D01*
X91449744Y-58630597D01*
X91116411Y-59630596D01*
X91115941Y-59692398D01*
X90887191Y-59692398D01*
X90897594Y-59681835D01*
X90919080Y-59660674D01*
X90919210Y-59659887D01*
X90919769Y-59659321D01*
X90967388Y-59564082D01*
X90970821Y-59541284D01*
X90977945Y-59519361D01*
X90977945Y-59095552D01*
X91020802Y-59095552D01*
X91079581Y-59076454D01*
X91115908Y-59026454D01*
X91115908Y-58964650D01*
X91079581Y-58914650D01*
X91020802Y-58895552D01*
X90977945Y-58895552D01*
X90977945Y-58662219D01*
X90958847Y-58603440D01*
X90908847Y-58567113D01*
X90847043Y-58567113D01*
X90797043Y-58603440D01*
X90777945Y-58662219D01*
X90777945Y-58895552D01*
X90639850Y-58895552D01*
X90581071Y-58914650D01*
X90544744Y-58964650D01*
X90544744Y-59026454D01*
X90581071Y-59076454D01*
X90639850Y-59095552D01*
X90777945Y-59095552D01*
X90777945Y-59495754D01*
X90755790Y-59540063D01*
X90711481Y-59562219D01*
X90639850Y-59562219D01*
X90581071Y-59581317D01*
X90544744Y-59631317D01*
X90544744Y-59693121D01*
X90314706Y-59693121D01*
X90315166Y-59692668D01*
X90329608Y-59685310D01*
X90377227Y-59637690D01*
X90384584Y-59623249D01*
X90395959Y-59611701D01*
X90443578Y-59516464D01*
X90447011Y-59493665D01*
X90454135Y-59471742D01*
X90454135Y-59186028D01*
X90447011Y-59164104D01*
X90443578Y-59141306D01*
X90395959Y-59046069D01*
X90384584Y-59034520D01*
X90377226Y-59020079D01*
X90329608Y-58972460D01*
X90315165Y-58965101D01*
X90303618Y-58953728D01*
X90208380Y-58906109D01*
X90185582Y-58902675D01*
X90163659Y-58895552D01*
X90020802Y-58895552D01*
X89998878Y-58902675D01*
X89976080Y-58906109D01*
X89880843Y-58953728D01*
X89869294Y-58965102D01*
X89854853Y-58972461D01*
X89807234Y-59020079D01*
X89799875Y-59034521D01*
X89788502Y-59046069D01*
X89740883Y-59141307D01*
X89737449Y-59164104D01*
X89730326Y-59186028D01*
X89730326Y-59471742D01*
X89501754Y-59471742D01*
X89501754Y-58995552D01*
X89482656Y-58936773D01*
X89432656Y-58900446D01*
X89370852Y-58900446D01*
X89338826Y-58923713D01*
X89303618Y-58906109D01*
X89280820Y-58902675D01*
X89258897Y-58895552D01*
X89116040Y-58895552D01*
X89094116Y-58902675D01*
X89071318Y-58906109D01*
X88976081Y-58953728D01*
X88975514Y-58954286D01*
X88974728Y-58954417D01*
X88973183Y-58955985D01*
X88971638Y-58954417D01*
X88970851Y-58954286D01*
X88970285Y-58953728D01*
X88875047Y-58906109D01*
X88852249Y-58902675D01*
X88830326Y-58895552D01*
X88687469Y-58895552D01*
X88665545Y-58902675D01*
X88642748Y-58906109D01*
X88547509Y-58953728D01*
X88546942Y-58954286D01*
X88546156Y-58954417D01*
X88524994Y-58975902D01*
X88503476Y-58997096D01*
X88503345Y-58997883D01*
X88502787Y-58998450D01*
X88455168Y-59093688D01*
X88451734Y-59116485D01*
X88444611Y-59138409D01*
X88444611Y-59662219D01*
X85687601Y-59662219D01*
X85687601Y-58419362D01*
X94165702Y-58419362D01*
X94165702Y-64735076D01*
G37*
G36*
X113900802Y-60774076D02*
G01*
X109034136Y-60774076D01*
X109034136Y-60531219D01*
X109176993Y-60531219D01*
X109196091Y-60589998D01*
X109246091Y-60626325D01*
X109307895Y-60626325D01*
X109357895Y-60589998D01*
X109376993Y-60531219D01*
X109376993Y-60031016D01*
X109399148Y-59986706D01*
X109443457Y-59964552D01*
X109539100Y-59964552D01*
X109598709Y-59994357D01*
X109605564Y-60001211D01*
X109605564Y-60531219D01*
X109624662Y-60589998D01*
X109674662Y-60626325D01*
X109736466Y-60626325D01*
X109786466Y-60589998D01*
X109805564Y-60531219D01*
X109805564Y-60468707D01*
X110035251Y-60468707D01*
X110045382Y-60529674D01*
X110089415Y-60573043D01*
X110184652Y-60620662D01*
X110207450Y-60624095D01*
X110229374Y-60631219D01*
X110419850Y-60631219D01*
X110441773Y-60624095D01*
X110464571Y-60620662D01*
X110559809Y-60573043D01*
X110570897Y-60562121D01*
X110800935Y-60562121D01*
X110837262Y-60612121D01*
X110896041Y-60631219D01*
X110991279Y-60631219D01*
X111013202Y-60624095D01*
X111036000Y-60620662D01*
X111131238Y-60573043D01*
X111131804Y-60572484D01*
X111132592Y-60572354D01*
X111153785Y-60550835D01*
X111173702Y-60531219D01*
X111510326Y-60531219D01*
X111529424Y-60589998D01*
X111579424Y-60626325D01*
X111641228Y-60626325D01*
X111691228Y-60589998D01*
X111710326Y-60531219D01*
X111710326Y-59892024D01*
X111895127Y-59892024D01*
X112085603Y-60558691D01*
X112102034Y-60583102D01*
X112117742Y-60608046D01*
X112119223Y-60608638D01*
X112120114Y-60609962D01*
X112147786Y-60620063D01*
X112175125Y-60630999D01*
X112176671Y-60630607D01*
X112178170Y-60631155D01*
X112206489Y-60623063D01*
X112235041Y-60615840D01*
X112236062Y-60614614D01*
X112237596Y-60614176D01*
X112255753Y-60590980D01*
X112274603Y-60568358D01*
X112372231Y-60324287D01*
X112469859Y-60568358D01*
X112488708Y-60590980D01*
X112506866Y-60614176D01*
X112508399Y-60614614D01*
X112509421Y-60615840D01*
X112537972Y-60623063D01*
X112566292Y-60631155D01*
X112567790Y-60630607D01*
X112569337Y-60630999D01*
X112596675Y-60620063D01*
X112624348Y-60609962D01*
X112625238Y-60608638D01*
X112626720Y-60608046D01*
X112642419Y-60583113D01*
X112658859Y-60558691D01*
X112721130Y-60340742D01*
X112986517Y-60340742D01*
X112993640Y-60362665D01*
X112997074Y-60385463D01*
X113044693Y-60480701D01*
X113056066Y-60492248D01*
X113063425Y-60506690D01*
X113111043Y-60554310D01*
X113125486Y-60561669D01*
X113137034Y-60573043D01*
X113232271Y-60620662D01*
X113255069Y-60624095D01*
X113276993Y-60631219D01*
X113515088Y-60631219D01*
X113530503Y-60626210D01*
X113546711Y-60626087D01*
X113689567Y-60578468D01*
X113739291Y-60541763D01*
X113757942Y-60482841D01*
X113738398Y-60424209D01*
X113688124Y-60388262D01*
X113626322Y-60388732D01*
X113498861Y-60431219D01*
X113300600Y-60431219D01*
X113240990Y-60401414D01*
X113216323Y-60376746D01*
X113186517Y-60317134D01*
X113186517Y-60269111D01*
X113216322Y-60209501D01*
X113240990Y-60184832D01*
X113311897Y-60149379D01*
X113491722Y-60104423D01*
X113501168Y-60098512D01*
X113512190Y-60096852D01*
X113607428Y-60049233D01*
X113618975Y-60037859D01*
X113633418Y-60030501D01*
X113681036Y-59982882D01*
X113688394Y-59968440D01*
X113699769Y-59956892D01*
X113747388Y-59861655D01*
X113750821Y-59838856D01*
X113757945Y-59816933D01*
X113757945Y-59721695D01*
X113750821Y-59699771D01*
X113747388Y-59676973D01*
X113699769Y-59581736D01*
X113688394Y-59570187D01*
X113681036Y-59555746D01*
X113633418Y-59508127D01*
X113618975Y-59500768D01*
X113607428Y-59489395D01*
X113512190Y-59441776D01*
X113489392Y-59438342D01*
X113467469Y-59431219D01*
X113229374Y-59431219D01*
X113213958Y-59436227D01*
X113197751Y-59436351D01*
X113054894Y-59483970D01*
X113005171Y-59520675D01*
X112986519Y-59579597D01*
X113006064Y-59638229D01*
X113056338Y-59674176D01*
X113118140Y-59673706D01*
X113245600Y-59631219D01*
X113443862Y-59631219D01*
X113503471Y-59661024D01*
X113528140Y-59685692D01*
X113557945Y-59745302D01*
X113557945Y-59793326D01*
X113528140Y-59852935D01*
X113503471Y-59877603D01*
X113432564Y-59913057D01*
X113252739Y-59958014D01*
X113243292Y-59963924D01*
X113232271Y-59965585D01*
X113137034Y-60013204D01*
X113125485Y-60024578D01*
X113111044Y-60031937D01*
X113063425Y-60079555D01*
X113056066Y-60093997D01*
X113044693Y-60105545D01*
X112997074Y-60200783D01*
X112993640Y-60223580D01*
X112986517Y-60245504D01*
X112986517Y-60340742D01*
X112721130Y-60340742D01*
X112849335Y-59892024D01*
X112847120Y-59830260D01*
X112809024Y-59781595D01*
X112749598Y-59764616D01*
X112691542Y-59785809D01*
X112657031Y-59837080D01*
X112546916Y-60222482D01*
X112465079Y-60017889D01*
X112449342Y-59999002D01*
X112436244Y-59978201D01*
X112429894Y-59975661D01*
X112425517Y-59970407D01*
X112401684Y-59964377D01*
X112378861Y-59955248D01*
X112372231Y-59956925D01*
X112365601Y-59955248D01*
X112342777Y-59964377D01*
X112318945Y-59970407D01*
X112314567Y-59975661D01*
X112308218Y-59978201D01*
X112295117Y-59999004D01*
X112279383Y-60017889D01*
X112197545Y-60222482D01*
X112087431Y-59837080D01*
X112052920Y-59785809D01*
X111994864Y-59764616D01*
X111935438Y-59781595D01*
X111897342Y-59830260D01*
X111895127Y-59892024D01*
X111710326Y-59892024D01*
X111710326Y-59864552D01*
X111691228Y-59805773D01*
X111641228Y-59769446D01*
X111579424Y-59769446D01*
X111529424Y-59805773D01*
X111510326Y-59864552D01*
X111510326Y-60531219D01*
X111173702Y-60531219D01*
X111175271Y-60529674D01*
X111175401Y-60528887D01*
X111175960Y-60528321D01*
X111223579Y-60433082D01*
X111227012Y-60410284D01*
X111234136Y-60388361D01*
X111234136Y-59964552D01*
X111276993Y-59964552D01*
X111335772Y-59945454D01*
X111372099Y-59895454D01*
X111372099Y-59833650D01*
X111335772Y-59783650D01*
X111276993Y-59764552D01*
X111234136Y-59764552D01*
X111234136Y-59594481D01*
X111463938Y-59594481D01*
X111471128Y-59608592D01*
X111473606Y-59624237D01*
X111484805Y-59635436D01*
X111491996Y-59649549D01*
X111539615Y-59697167D01*
X111553726Y-59704357D01*
X111564927Y-59715558D01*
X111572896Y-59716820D01*
X111579424Y-59721563D01*
X111587493Y-59721563D01*
X111594682Y-59725226D01*
X111610325Y-59722748D01*
X111625969Y-59725226D01*
X111633158Y-59721563D01*
X111641228Y-59721563D01*
X111647756Y-59716820D01*
X111655725Y-59715558D01*
X111666924Y-59704358D01*
X111681037Y-59697168D01*
X111728655Y-59649549D01*
X111735845Y-59635437D01*
X111747046Y-59624237D01*
X111749523Y-59608593D01*
X111756714Y-59594482D01*
X111754236Y-59578838D01*
X111756714Y-59563194D01*
X111749523Y-59549082D01*
X111747046Y-59533439D01*
X111735845Y-59522238D01*
X111728655Y-59508127D01*
X111681037Y-59460508D01*
X111666924Y-59453317D01*
X111655725Y-59442118D01*
X111647756Y-59440855D01*
X111641228Y-59436113D01*
X111633158Y-59436113D01*
X111625969Y-59432450D01*
X111610325Y-59434927D01*
X111594682Y-59432450D01*
X111587493Y-59436113D01*
X111579424Y-59436113D01*
X111572896Y-59440855D01*
X111564927Y-59442118D01*
X111553726Y-59453318D01*
X111539615Y-59460509D01*
X111491996Y-59508127D01*
X111484805Y-59522239D01*
X111473606Y-59533439D01*
X111471128Y-59549083D01*
X111463938Y-59563195D01*
X111466415Y-59578838D01*
X111463938Y-59594481D01*
X111234136Y-59594481D01*
X111234136Y-59531219D01*
X111215038Y-59472440D01*
X111165038Y-59436113D01*
X111103234Y-59436113D01*
X111053234Y-59472440D01*
X111034136Y-59531219D01*
X111034136Y-59764552D01*
X110896041Y-59764552D01*
X110837262Y-59783650D01*
X110800935Y-59833650D01*
X110800935Y-59895454D01*
X110837262Y-59945454D01*
X110896041Y-59964552D01*
X111034136Y-59964552D01*
X111034136Y-60364754D01*
X111011981Y-60409063D01*
X110967672Y-60431219D01*
X110896041Y-60431219D01*
X110837262Y-60450317D01*
X110800935Y-60500317D01*
X110800935Y-60562121D01*
X110570897Y-60562121D01*
X110571357Y-60561668D01*
X110585799Y-60554310D01*
X110633418Y-60506690D01*
X110640775Y-60492249D01*
X110652150Y-60480701D01*
X110699769Y-60385464D01*
X110703202Y-60362665D01*
X110710326Y-60340742D01*
X110710326Y-60055028D01*
X110703202Y-60033104D01*
X110699769Y-60010306D01*
X110652150Y-59915069D01*
X110640775Y-59903520D01*
X110633417Y-59889079D01*
X110585799Y-59841460D01*
X110571356Y-59834101D01*
X110559809Y-59822728D01*
X110464571Y-59775109D01*
X110441773Y-59771675D01*
X110419850Y-59764552D01*
X110229374Y-59764552D01*
X110207450Y-59771675D01*
X110184652Y-59775109D01*
X110089415Y-59822728D01*
X110045382Y-59866097D01*
X110035251Y-59927064D01*
X110062890Y-59982343D01*
X110117743Y-60010819D01*
X110178857Y-60001614D01*
X110252981Y-59964552D01*
X110396243Y-59964552D01*
X110455852Y-59994357D01*
X110480521Y-60019025D01*
X110510326Y-60078635D01*
X110510326Y-60317135D01*
X110480521Y-60376743D01*
X110455852Y-60401413D01*
X110396243Y-60431219D01*
X110252981Y-60431219D01*
X110178857Y-60394157D01*
X110117743Y-60384952D01*
X110062890Y-60413428D01*
X110035251Y-60468707D01*
X109805564Y-60468707D01*
X109805564Y-59531219D01*
X109786466Y-59472440D01*
X109736466Y-59436113D01*
X109674662Y-59436113D01*
X109624662Y-59472440D01*
X109605564Y-59531219D01*
X109605564Y-59774828D01*
X109584630Y-59771675D01*
X109562707Y-59764552D01*
X109419850Y-59764552D01*
X109397926Y-59771675D01*
X109375128Y-59775109D01*
X109279891Y-59822728D01*
X109279324Y-59823286D01*
X109278538Y-59823417D01*
X109257360Y-59844919D01*
X109235858Y-59866097D01*
X109235727Y-59866883D01*
X109235169Y-59867450D01*
X109187550Y-59962688D01*
X109184116Y-59985485D01*
X109176993Y-60007409D01*
X109176993Y-60531219D01*
X109034136Y-60531219D01*
X109034136Y-59288362D01*
X113900802Y-59288362D01*
X113900802Y-60774076D01*
G37*
X93639850Y-65002219D02*
X93544612Y-65002219D01*
X93544612Y-65002219D02*
X93449374Y-65049838D01*
X93449374Y-65049838D02*
X93401755Y-65097457D01*
X93401755Y-65097457D02*
X93354136Y-65192695D01*
X93354136Y-65192695D02*
X93306517Y-65383171D01*
X93306517Y-65383171D02*
X93306517Y-65621266D01*
X93306517Y-65621266D02*
X93354136Y-65811742D01*
X93354136Y-65811742D02*
X93401755Y-65906980D01*
X93401755Y-65906980D02*
X93449374Y-65954600D01*
X93449374Y-65954600D02*
X93544612Y-66002219D01*
X93544612Y-66002219D02*
X93639850Y-66002219D01*
X93639850Y-66002219D02*
X93735088Y-65954600D01*
X93735088Y-65954600D02*
X93782707Y-65906980D01*
X93782707Y-65906980D02*
X93830326Y-65811742D01*
X93830326Y-65811742D02*
X93877945Y-65621266D01*
X93877945Y-65621266D02*
X93877945Y-65383171D01*
X93877945Y-65383171D02*
X93830326Y-65192695D01*
X93830326Y-65192695D02*
X93782707Y-65097457D01*
X93782707Y-65097457D02*
X93735088Y-65049838D01*
X93735088Y-65049838D02*
X93639850Y-65002219D01*
X92973183Y-66002219D02*
X92449374Y-65335552D01*
X92973183Y-65335552D02*
X92449374Y-66002219D01*
X92163659Y-65002219D02*
X91496993Y-65002219D01*
X91496993Y-65002219D02*
X91925564Y-66002219D01*
X90687469Y-65002219D02*
X90877945Y-65002219D01*
X90877945Y-65002219D02*
X90973183Y-65049838D01*
X90973183Y-65049838D02*
X91020802Y-65097457D01*
X91020802Y-65097457D02*
X91116040Y-65240314D01*
X91116040Y-65240314D02*
X91163659Y-65430790D01*
X91163659Y-65430790D02*
X91163659Y-65811742D01*
X91163659Y-65811742D02*
X91116040Y-65906980D01*
X91116040Y-65906980D02*
X91068421Y-65954600D01*
X91068421Y-65954600D02*
X90973183Y-66002219D01*
X90973183Y-66002219D02*
X90782707Y-66002219D01*
X90782707Y-66002219D02*
X90687469Y-65954600D01*
X90687469Y-65954600D02*
X90639850Y-65906980D01*
X90639850Y-65906980D02*
X90592231Y-65811742D01*
X90592231Y-65811742D02*
X90592231Y-65573647D01*
X90592231Y-65573647D02*
X90639850Y-65478409D01*
X90639850Y-65478409D02*
X90687469Y-65430790D01*
X90687469Y-65430790D02*
X90782707Y-65383171D01*
X90782707Y-65383171D02*
X90973183Y-65383171D01*
X90973183Y-65383171D02*
X91068421Y-65430790D01*
X91068421Y-65430790D02*
X91116040Y-65478409D01*
X91116040Y-65478409D02*
X91163659Y-65573647D01*
X89735088Y-65002219D02*
X89925564Y-65002219D01*
X89925564Y-65002219D02*
X90020802Y-65049838D01*
X90020802Y-65049838D02*
X90068421Y-65097457D01*
X90068421Y-65097457D02*
X90163659Y-65240314D01*
X90163659Y-65240314D02*
X90211278Y-65430790D01*
X90211278Y-65430790D02*
X90211278Y-65811742D01*
X90211278Y-65811742D02*
X90163659Y-65906980D01*
X90163659Y-65906980D02*
X90116040Y-65954600D01*
X90116040Y-65954600D02*
X90020802Y-66002219D01*
X90020802Y-66002219D02*
X89830326Y-66002219D01*
X89830326Y-66002219D02*
X89735088Y-65954600D01*
X89735088Y-65954600D02*
X89687469Y-65906980D01*
X89687469Y-65906980D02*
X89639850Y-65811742D01*
X89639850Y-65811742D02*
X89639850Y-65573647D01*
X89639850Y-65573647D02*
X89687469Y-65478409D01*
X89687469Y-65478409D02*
X89735088Y-65430790D01*
X89735088Y-65430790D02*
X89830326Y-65383171D01*
X89830326Y-65383171D02*
X90020802Y-65383171D01*
X90020802Y-65383171D02*
X90116040Y-65430790D01*
X90116040Y-65430790D02*
X90163659Y-65478409D01*
X90163659Y-65478409D02*
X90211278Y-65573647D01*
X88735088Y-65002219D02*
X89211278Y-65002219D01*
X89211278Y-65002219D02*
X89258897Y-65478409D01*
X89258897Y-65478409D02*
X89211278Y-65430790D01*
X89211278Y-65430790D02*
X89116040Y-65383171D01*
X89116040Y-65383171D02*
X88877945Y-65383171D01*
X88877945Y-65383171D02*
X88782707Y-65430790D01*
X88782707Y-65430790D02*
X88735088Y-65478409D01*
X88735088Y-65478409D02*
X88687469Y-65573647D01*
X88687469Y-65573647D02*
X88687469Y-65811742D01*
X88687469Y-65811742D02*
X88735088Y-65906980D01*
X88735088Y-65906980D02*
X88782707Y-65954600D01*
X88782707Y-65954600D02*
X88877945Y-66002219D01*
X88877945Y-66002219D02*
X89116040Y-66002219D01*
X89116040Y-66002219D02*
X89211278Y-65954600D01*
X89211278Y-65954600D02*
X89258897Y-65906980D01*
X87830326Y-65002219D02*
X88020802Y-65002219D01*
X88020802Y-65002219D02*
X88116040Y-65049838D01*
X88116040Y-65049838D02*
X88163659Y-65097457D01*
X88163659Y-65097457D02*
X88258897Y-65240314D01*
X88258897Y-65240314D02*
X88306516Y-65430790D01*
X88306516Y-65430790D02*
X88306516Y-65811742D01*
X88306516Y-65811742D02*
X88258897Y-65906980D01*
X88258897Y-65906980D02*
X88211278Y-65954600D01*
X88211278Y-65954600D02*
X88116040Y-66002219D01*
X88116040Y-66002219D02*
X87925564Y-66002219D01*
X87925564Y-66002219D02*
X87830326Y-65954600D01*
X87830326Y-65954600D02*
X87782707Y-65906980D01*
X87782707Y-65906980D02*
X87735088Y-65811742D01*
X87735088Y-65811742D02*
X87735088Y-65573647D01*
X87735088Y-65573647D02*
X87782707Y-65478409D01*
X87782707Y-65478409D02*
X87830326Y-65430790D01*
X87830326Y-65430790D02*
X87925564Y-65383171D01*
X87925564Y-65383171D02*
X88116040Y-65383171D01*
X88116040Y-65383171D02*
X88211278Y-65430790D01*
X88211278Y-65430790D02*
X88258897Y-65478409D01*
X88258897Y-65478409D02*
X88306516Y-65573647D01*
X86925564Y-65954600D02*
X87020802Y-66002219D01*
X87020802Y-66002219D02*
X87211278Y-66002219D01*
X87211278Y-66002219D02*
X87306516Y-65954600D01*
X87306516Y-65954600D02*
X87354135Y-65859361D01*
X87354135Y-65859361D02*
X87354135Y-65478409D01*
X87354135Y-65478409D02*
X87306516Y-65383171D01*
X87306516Y-65383171D02*
X87211278Y-65335552D01*
X87211278Y-65335552D02*
X87020802Y-65335552D01*
X87020802Y-65335552D02*
X86925564Y-65383171D01*
X86925564Y-65383171D02*
X86877945Y-65478409D01*
X86877945Y-65478409D02*
X86877945Y-65573647D01*
X86877945Y-65573647D02*
X87354135Y-65668885D01*
G36*
X115805452Y-73398602D02*
G01*
X115846224Y-73423602D01*
X115863496Y-73433247D01*
X115891248Y-73448419D01*
X115911166Y-73458873D01*
X115919791Y-73462767D01*
X115921104Y-73462886D01*
X115935878Y-73469900D01*
X115956446Y-73484742D01*
X115977896Y-73503226D01*
X115995316Y-73521164D01*
X116003795Y-73534370D01*
X116004565Y-73561192D01*
X115990384Y-73588295D01*
X115960745Y-73610885D01*
X115916295Y-73628269D01*
X115899918Y-73637654D01*
X115878910Y-73657367D01*
X115858753Y-73681956D01*
X115843607Y-73706292D01*
X115837634Y-73725246D01*
X115837853Y-73731611D01*
X115841127Y-73747212D01*
X115849882Y-73763300D01*
X115866103Y-73782354D01*
X115891773Y-73806854D01*
X115928876Y-73839280D01*
X115938193Y-73847346D01*
X115977679Y-73883180D01*
X116020174Y-73923950D01*
X116063754Y-73967585D01*
X116106493Y-74012020D01*
X116146467Y-74055185D01*
X116181752Y-74095013D01*
X116210421Y-74129436D01*
X116230551Y-74156385D01*
X116240217Y-74173792D01*
X116239617Y-74194179D01*
X116224260Y-74214468D01*
X116195488Y-74231672D01*
X116155142Y-74244267D01*
X116154397Y-74244427D01*
X116115840Y-74254990D01*
X116091574Y-74267987D01*
X116078954Y-74285598D01*
X116075335Y-74310000D01*
X116075940Y-74319424D01*
X116079678Y-74332406D01*
X116088402Y-74347455D01*
X116103898Y-74367026D01*
X116127952Y-74393571D01*
X116162350Y-74429543D01*
X116175615Y-74443204D01*
X116205965Y-74474098D01*
X116231734Y-74499834D01*
X116250534Y-74518044D01*
X116259977Y-74526362D01*
X116266317Y-74532021D01*
X116280185Y-74552395D01*
X116291425Y-74577555D01*
X116296056Y-74599439D01*
X116295994Y-74600858D01*
X116289671Y-74619257D01*
X116276144Y-74639516D01*
X116268628Y-74647635D01*
X116257201Y-74655987D01*
X116241564Y-74661098D01*
X116217462Y-74664164D01*
X116180639Y-74666382D01*
X116165281Y-74667196D01*
X116132586Y-74669863D01*
X116110830Y-74674022D01*
X116095577Y-74680802D01*
X116082388Y-74691327D01*
X116081166Y-74692497D01*
X116064246Y-74713680D01*
X116054143Y-74734971D01*
X116044736Y-74764213D01*
X116024772Y-74801727D01*
X116000322Y-74826926D01*
X115998613Y-74827820D01*
X115995910Y-74828690D01*
X115991891Y-74829525D01*
X115986214Y-74830327D01*
X115978539Y-74831096D01*
X115968526Y-74831834D01*
X115955835Y-74832540D01*
X115940124Y-74833216D01*
X115921054Y-74833864D01*
X115898283Y-74834483D01*
X115871472Y-74835075D01*
X115840280Y-74835641D01*
X115804367Y-74836181D01*
X115763391Y-74836698D01*
X115717013Y-74837191D01*
X115664892Y-74837662D01*
X115606687Y-74838111D01*
X115542059Y-74838539D01*
X115470666Y-74838948D01*
X115392169Y-74839339D01*
X115306226Y-74839712D01*
X115212497Y-74840068D01*
X115110642Y-74840408D01*
X115000320Y-74840733D01*
X114881191Y-74841045D01*
X114752915Y-74841343D01*
X114615150Y-74841629D01*
X114467556Y-74841905D01*
X114309794Y-74842170D01*
X114141521Y-74842426D01*
X113962399Y-74842674D01*
X113772086Y-74842914D01*
X113570242Y-74843148D01*
X113356527Y-74843377D01*
X113130600Y-74843601D01*
X112892120Y-74843822D01*
X112640747Y-74844040D01*
X112376141Y-74844257D01*
X112097961Y-74844473D01*
X111805867Y-74844689D01*
X111499518Y-74844906D01*
X111178574Y-74845125D01*
X110842694Y-74845348D01*
X110491537Y-74845574D01*
X110124764Y-74845806D01*
X109742034Y-74846043D01*
X109343006Y-74846287D01*
X108927340Y-74846539D01*
X108764988Y-74846638D01*
X108421192Y-74846850D01*
X108081683Y-74847064D01*
X107746858Y-74847280D01*
X107417113Y-74847496D01*
X107092846Y-74847714D01*
X106774452Y-74847932D01*
X106462328Y-74848150D01*
X106156871Y-74848368D01*
X105858478Y-74848586D01*
X105567545Y-74848802D01*
X105284468Y-74849018D01*
X105009645Y-74849231D01*
X104743472Y-74849443D01*
X104486345Y-74849653D01*
X104238662Y-74849860D01*
X104000818Y-74850064D01*
X103773210Y-74850264D01*
X103556236Y-74850461D01*
X103350291Y-74850654D01*
X103155772Y-74850843D01*
X102973075Y-74851026D01*
X102802599Y-74851205D01*
X102644738Y-74851378D01*
X102499889Y-74851546D01*
X102368450Y-74851708D01*
X102250817Y-74851863D01*
X102147386Y-74852011D01*
X102058554Y-74852152D01*
X101984717Y-74852285D01*
X101926273Y-74852411D01*
X101883618Y-74852529D01*
X101857148Y-74852638D01*
X101847260Y-74852738D01*
X101822239Y-74852953D01*
X101774640Y-74848114D01*
X101723045Y-74837870D01*
X101671645Y-74823465D01*
X101624630Y-74806141D01*
X101586193Y-74787141D01*
X101560523Y-74767709D01*
X101545986Y-74745885D01*
X101535595Y-74719821D01*
X101528825Y-74700630D01*
X101513973Y-74680691D01*
X101490245Y-74666817D01*
X101454975Y-74657613D01*
X101405497Y-74651681D01*
X101390814Y-74650413D01*
X101356920Y-74646613D01*
X101334867Y-74641977D01*
X101320812Y-74635465D01*
X101310915Y-74626035D01*
X101310450Y-74625458D01*
X101298977Y-74608545D01*
X101293933Y-74592175D01*
X101296330Y-74574342D01*
X101307178Y-74553039D01*
X101327489Y-74526261D01*
X101348723Y-74502631D01*
X108239706Y-74502631D01*
X108239791Y-74509775D01*
X108242092Y-74530474D01*
X108249344Y-74545290D01*
X108263952Y-74555398D01*
X108288321Y-74561973D01*
X108324858Y-74566192D01*
X108375968Y-74569231D01*
X108428848Y-74572511D01*
X108571772Y-74588152D01*
X108710863Y-74612764D01*
X108771663Y-74621933D01*
X108861167Y-74624763D01*
X108960443Y-74617355D01*
X109067413Y-74599785D01*
X109119517Y-74589917D01*
X109180679Y-74579805D01*
X109240623Y-74571171D01*
X109291688Y-74565197D01*
X109296847Y-74564694D01*
X109346845Y-74558979D01*
X109382447Y-74552375D01*
X109406017Y-74543608D01*
X109419923Y-74531401D01*
X109426532Y-74514478D01*
X109428209Y-74491561D01*
X109426799Y-74476969D01*
X109413643Y-74447435D01*
X109385989Y-74420500D01*
X109343013Y-74395480D01*
X109283891Y-74371689D01*
X109275689Y-74368923D01*
X109260118Y-74364317D01*
X109243153Y-74360515D01*
X109222847Y-74357370D01*
X109197252Y-74354731D01*
X109164421Y-74352449D01*
X109122405Y-74350374D01*
X109069258Y-74348358D01*
X109003032Y-74346249D01*
X108921779Y-74343900D01*
X108829241Y-74341565D01*
X108737995Y-74340084D01*
X108660332Y-74340007D01*
X108594465Y-74341480D01*
X108538605Y-74344649D01*
X108490962Y-74349663D01*
X108449747Y-74356668D01*
X108413171Y-74365810D01*
X108379446Y-74377236D01*
X108346782Y-74391093D01*
X108320248Y-74403982D01*
X108281934Y-74426748D01*
X108257106Y-74449353D01*
X108243714Y-74473935D01*
X108239706Y-74502631D01*
X101348723Y-74502631D01*
X101358274Y-74492002D01*
X101400545Y-74448256D01*
X101410447Y-74438177D01*
X101450707Y-74396734D01*
X101480413Y-74364888D01*
X101500894Y-74340772D01*
X101513473Y-74322523D01*
X101519477Y-74308274D01*
X101520231Y-74296159D01*
X101517062Y-74284314D01*
X101513502Y-74275967D01*
X101500239Y-74257713D01*
X101478856Y-74245222D01*
X101444926Y-74235498D01*
X101429537Y-74231803D01*
X101387767Y-74217778D01*
X101361833Y-74200982D01*
X101350932Y-74180715D01*
X101354261Y-74156274D01*
X101359758Y-74146418D01*
X101376483Y-74123659D01*
X101401732Y-74092828D01*
X101433412Y-74056207D01*
X101469433Y-74016081D01*
X101507702Y-73974732D01*
X101546129Y-73934444D01*
X101582621Y-73897499D01*
X101615088Y-73866182D01*
X101641437Y-73842774D01*
X101675329Y-73813235D01*
X101701832Y-73784826D01*
X101718016Y-73757965D01*
X101726115Y-73728816D01*
X101728362Y-73693543D01*
X101727000Y-73672653D01*
X101718571Y-73649861D01*
X101699687Y-73632252D01*
X101667201Y-73615832D01*
X101661828Y-73613523D01*
X101627342Y-73596719D01*
X101606168Y-73580975D01*
X101595512Y-73563510D01*
X101592581Y-73541542D01*
X101593923Y-73520787D01*
X101600644Y-73500681D01*
X101615438Y-73483542D01*
X101640950Y-73466492D01*
X101679824Y-73446657D01*
X101688822Y-73442268D01*
X101726858Y-73422106D01*
X101760763Y-73402075D01*
X105048718Y-73402075D01*
X105050689Y-73463332D01*
X105055180Y-73513535D01*
X105057137Y-73527419D01*
X105085047Y-73659917D01*
X105128833Y-73786429D01*
X105188390Y-73906700D01*
X105263614Y-74020477D01*
X105264012Y-74021005D01*
X105289324Y-74052253D01*
X105320452Y-74087205D01*
X105354595Y-74123085D01*
X105388954Y-74157119D01*
X105420727Y-74186532D01*
X105447116Y-74208548D01*
X105465321Y-74220392D01*
X105465679Y-74220551D01*
X105482283Y-74229519D01*
X105489171Y-74236369D01*
X105491130Y-74240404D01*
X105505265Y-74252725D01*
X105530665Y-74269649D01*
X105564503Y-74289691D01*
X105603949Y-74311366D01*
X105646175Y-74333190D01*
X105688352Y-74353678D01*
X105727650Y-74371346D01*
X105761242Y-74384710D01*
X105786297Y-74392285D01*
X105789055Y-74392887D01*
X105810928Y-74399059D01*
X105824499Y-74405202D01*
X105827153Y-74406612D01*
X105843991Y-74412069D01*
X105871462Y-74419026D01*
X105905147Y-74426324D01*
X105941613Y-74432091D01*
X105995623Y-74437710D01*
X106059680Y-74442082D01*
X106130114Y-74444904D01*
X106146521Y-74445328D01*
X106203936Y-74446307D01*
X106246821Y-74445742D01*
X106277118Y-74443198D01*
X106296772Y-74438245D01*
X106307728Y-74430450D01*
X106311928Y-74419381D01*
X106311318Y-74404604D01*
X106309618Y-74396451D01*
X106304501Y-74389162D01*
X106292886Y-74384523D01*
X106271291Y-74381316D01*
X106236230Y-74378322D01*
X106112131Y-74362059D01*
X105988486Y-74331527D01*
X105872217Y-74287799D01*
X105764813Y-74231547D01*
X105667763Y-74163440D01*
X105582554Y-74084148D01*
X105572186Y-74072971D01*
X105540055Y-74037400D01*
X105515711Y-74008035D01*
X105495809Y-73980318D01*
X105477007Y-73949691D01*
X105455961Y-73911596D01*
X105408372Y-73809124D01*
X105368768Y-73687580D01*
X105344579Y-73562129D01*
X105336532Y-73435673D01*
X105338496Y-73375555D01*
X105354375Y-73252522D01*
X105385547Y-73135351D01*
X105392238Y-73119208D01*
X105836290Y-73119208D01*
X105842991Y-73171777D01*
X105861982Y-73221200D01*
X105892514Y-73264710D01*
X105933841Y-73299544D01*
X105985214Y-73322938D01*
X106037977Y-73333413D01*
X106091825Y-73330519D01*
X106140504Y-73311759D01*
X106185041Y-73276895D01*
X106193959Y-73267391D01*
X106225371Y-73220359D01*
X106242170Y-73169026D01*
X106244845Y-73116065D01*
X106238625Y-73086614D01*
X106371337Y-73086614D01*
X106378676Y-73116065D01*
X106380819Y-73124663D01*
X106403144Y-73156917D01*
X106436882Y-73179404D01*
X106461699Y-73187688D01*
X106495111Y-73189162D01*
X106526294Y-73176605D01*
X106543254Y-73162093D01*
X106563315Y-73135794D01*
X106578363Y-73106664D01*
X106584292Y-73081442D01*
X106582262Y-73062788D01*
X106568485Y-73028311D01*
X106544804Y-72998782D01*
X106514892Y-72978198D01*
X106482420Y-72970559D01*
X106456220Y-72976346D01*
X106426386Y-72990865D01*
X106399719Y-73010090D01*
X106382957Y-73029992D01*
X106376133Y-73046740D01*
X106371337Y-73086614D01*
X106238625Y-73086614D01*
X106233880Y-73064144D01*
X106209760Y-73015935D01*
X106172973Y-72974109D01*
X106124003Y-72941335D01*
X106087119Y-72927313D01*
X106033358Y-72919866D01*
X105980268Y-72925945D01*
X105931701Y-72944968D01*
X105891505Y-72976355D01*
X105862744Y-73015686D01*
X105842625Y-73066256D01*
X105836290Y-73119208D01*
X105392238Y-73119208D01*
X105431245Y-73025095D01*
X105490702Y-72922809D01*
X105563152Y-72829547D01*
X105647828Y-72746363D01*
X105743964Y-72674313D01*
X105850792Y-72614450D01*
X105967547Y-72567828D01*
X106079942Y-72538300D01*
X106201397Y-72522186D01*
X106321606Y-72522354D01*
X106439410Y-72538639D01*
X106553651Y-72570874D01*
X106663171Y-72618892D01*
X106766812Y-72682529D01*
X106794479Y-72703341D01*
X106851686Y-72752363D01*
X106908143Y-72807751D01*
X106959113Y-72864710D01*
X106999857Y-72918443D01*
X107042307Y-72987591D01*
X107086537Y-73081442D01*
X107095689Y-73100862D01*
X107133508Y-73220643D01*
X107155689Y-73346602D01*
X107162162Y-73478411D01*
X107152854Y-73615739D01*
X107148811Y-73654193D01*
X107146995Y-73700161D01*
X107150585Y-73731690D01*
X107159746Y-73749834D01*
X107174643Y-73755648D01*
X107189422Y-73748607D01*
X107207282Y-73727486D01*
X107225983Y-73694865D01*
X107244046Y-73653347D01*
X107259989Y-73605536D01*
X107261581Y-73599913D01*
X107283715Y-73494741D01*
X107293185Y-73394853D01*
X110460546Y-73394853D01*
X110460548Y-73399594D01*
X110460725Y-73456630D01*
X110461404Y-73500281D01*
X110462905Y-73533900D01*
X110465550Y-73560837D01*
X110469659Y-73584444D01*
X110475553Y-73608072D01*
X110483553Y-73635071D01*
X110490701Y-73657268D01*
X110507551Y-73703382D01*
X110525410Y-73745399D01*
X110542818Y-73780273D01*
X110558317Y-73804959D01*
X110570447Y-73816412D01*
X110579791Y-73817177D01*
X110596398Y-73810074D01*
X110603173Y-73795953D01*
X110606419Y-73765925D01*
X110605517Y-73721578D01*
X110600495Y-73664019D01*
X110591377Y-73594351D01*
X110590900Y-73591055D01*
X110585063Y-73495569D01*
X110593076Y-73394214D01*
X110614232Y-73289716D01*
X110647822Y-73184804D01*
X110669082Y-73136673D01*
X111177006Y-73136673D01*
X111177107Y-73142756D01*
X111185213Y-73184867D01*
X111206626Y-73216637D01*
X111241828Y-73238829D01*
X111245641Y-73240406D01*
X111263658Y-73247349D01*
X111272238Y-73249769D01*
X111272896Y-73249570D01*
X111284259Y-73246299D01*
X111304345Y-73240588D01*
X111330611Y-73230098D01*
X111360868Y-73204564D01*
X111366287Y-73194005D01*
X111509098Y-73194005D01*
X111509457Y-73223850D01*
X111515468Y-73249500D01*
X111528832Y-73280026D01*
X111555132Y-73322240D01*
X111593306Y-73357399D01*
X111643445Y-73381952D01*
X111664685Y-73388118D01*
X111718213Y-73392602D01*
X111769672Y-73382526D01*
X111816815Y-73359602D01*
X111857394Y-73325539D01*
X111889162Y-73282047D01*
X111909871Y-73230837D01*
X111917273Y-73173617D01*
X111915048Y-73141092D01*
X111899557Y-73087375D01*
X111869886Y-73042515D01*
X111826728Y-73007415D01*
X111770777Y-72982976D01*
X111766797Y-72981774D01*
X111739342Y-72974250D01*
X111719143Y-72971962D01*
X111698402Y-72974921D01*
X111669320Y-72983141D01*
X111641035Y-72993389D01*
X111588707Y-73024166D01*
X111548998Y-73066062D01*
X111522565Y-73118263D01*
X111517462Y-73143451D01*
X111510066Y-73179957D01*
X111509098Y-73194005D01*
X111366287Y-73194005D01*
X111380577Y-73166164D01*
X111386504Y-73143451D01*
X111385231Y-73124371D01*
X111375471Y-73100778D01*
X111367235Y-73086165D01*
X111338796Y-73054620D01*
X111304000Y-73035990D01*
X111266021Y-73031531D01*
X111228035Y-73042498D01*
X111224628Y-73044315D01*
X111196971Y-73066108D01*
X111181697Y-73095786D01*
X111177006Y-73136673D01*
X110669082Y-73136673D01*
X110693140Y-73082206D01*
X110749478Y-72984650D01*
X110770583Y-72954851D01*
X110815932Y-72900146D01*
X110869306Y-72844283D01*
X110926575Y-72791228D01*
X110983607Y-72744943D01*
X111036273Y-72709394D01*
X111069500Y-72690507D01*
X111162073Y-72645578D01*
X111253731Y-72613650D01*
X111349581Y-72593179D01*
X111454730Y-72582616D01*
X111482562Y-72581511D01*
X111581192Y-72584025D01*
X111677901Y-72595946D01*
X111768216Y-72616562D01*
X111847661Y-72645161D01*
X111924394Y-72682398D01*
X112030059Y-72746070D01*
X112122081Y-72818560D01*
X112201520Y-72900873D01*
X112269438Y-72994014D01*
X112326895Y-73098988D01*
X112328058Y-73101459D01*
X112355887Y-73173617D01*
X112370098Y-73210465D01*
X112398067Y-73326207D01*
X112411966Y-73445986D01*
X112411795Y-73567100D01*
X112397554Y-73686848D01*
X112369242Y-73802528D01*
X112326861Y-73911440D01*
X112326595Y-73912001D01*
X112266877Y-74018648D01*
X112193610Y-74115563D01*
X112107826Y-74201709D01*
X112010559Y-74276047D01*
X111902841Y-74337541D01*
X111850343Y-74361322D01*
X111776064Y-74388151D01*
X111698083Y-74407634D01*
X111609960Y-74421617D01*
X111554739Y-74428488D01*
X111512361Y-74433959D01*
X111482428Y-74438364D01*
X111462715Y-74442264D01*
X111450992Y-74446220D01*
X111445032Y-74450792D01*
X111442607Y-74456542D01*
X111441490Y-74464030D01*
X111442073Y-74477745D01*
X111450957Y-74491561D01*
X111453724Y-74495864D01*
X111459158Y-74498165D01*
X111480814Y-74501862D01*
X111513942Y-74504407D01*
X111554911Y-74505762D01*
X111600090Y-74505892D01*
X111645846Y-74504761D01*
X111688549Y-74502331D01*
X111724566Y-74498568D01*
X111782389Y-74489679D01*
X111885343Y-74469275D01*
X111977472Y-74444005D01*
X112062658Y-74412722D01*
X112144786Y-74374277D01*
X112237880Y-74319418D01*
X112339438Y-74241711D01*
X112430423Y-74151057D01*
X112510388Y-74047972D01*
X112578886Y-73932975D01*
X112635468Y-73806584D01*
X112665473Y-73722224D01*
X112688130Y-73642328D01*
X112702978Y-73565294D01*
X112711082Y-73485537D01*
X112713506Y-73397471D01*
X112713438Y-73384121D01*
X112708313Y-73282251D01*
X112694253Y-73187544D01*
X112670138Y-73095606D01*
X112634847Y-73002047D01*
X112587259Y-72902473D01*
X112533002Y-72808073D01*
X112453803Y-72696571D01*
X112364570Y-72596082D01*
X112266566Y-72507716D01*
X112161054Y-72432583D01*
X112049296Y-72371794D01*
X111932554Y-72326460D01*
X111907188Y-72318601D01*
X111854742Y-72303376D01*
X111809663Y-72292521D01*
X111767087Y-72285320D01*
X111722147Y-72281060D01*
X111669978Y-72279028D01*
X111605716Y-72278509D01*
X111514857Y-72280759D01*
X111390945Y-72292546D01*
X111276410Y-72314948D01*
X111168509Y-72348549D01*
X111064499Y-72393936D01*
X111038493Y-72407384D01*
X110925079Y-72477349D01*
X110821194Y-72560379D01*
X110728113Y-72655050D01*
X110647111Y-72759940D01*
X110579461Y-72873626D01*
X110526439Y-72994684D01*
X110513032Y-73032325D01*
X110493903Y-73091445D01*
X110479909Y-73145123D01*
X110470312Y-73197831D01*
X110464377Y-73254041D01*
X110461367Y-73318225D01*
X110460716Y-73378947D01*
X110460546Y-73394853D01*
X107293185Y-73394853D01*
X107294693Y-73378947D01*
X107294295Y-73254779D01*
X107290665Y-73204519D01*
X107269998Y-73075054D01*
X107233899Y-72950571D01*
X107183226Y-72832130D01*
X107118831Y-72720788D01*
X107041569Y-72617606D01*
X106952294Y-72523640D01*
X106851862Y-72439950D01*
X106741126Y-72367593D01*
X106620941Y-72307629D01*
X106492162Y-72261116D01*
X106421252Y-72242481D01*
X106290653Y-72220319D01*
X106160035Y-72213349D01*
X106031417Y-72221508D01*
X105906822Y-72244733D01*
X105788271Y-72282963D01*
X105733873Y-72306381D01*
X105621505Y-72365934D01*
X105513786Y-72437775D01*
X105413162Y-72519804D01*
X105322080Y-72609922D01*
X105242988Y-72706032D01*
X105178332Y-72806035D01*
X105156373Y-72848325D01*
X105122777Y-72924634D01*
X105093652Y-73004795D01*
X105072116Y-73080749D01*
X105070455Y-73088220D01*
X105062485Y-73136931D01*
X105056148Y-73197193D01*
X105051624Y-73264485D01*
X105049088Y-73334286D01*
X105048718Y-73402075D01*
X101760763Y-73402075D01*
X101762818Y-73400861D01*
X101789957Y-73382465D01*
X101808722Y-73367497D01*
X101822913Y-73352467D01*
X101828945Y-73337120D01*
X101830151Y-73315938D01*
X101829966Y-73308286D01*
X101827375Y-73284128D01*
X101822737Y-73268752D01*
X101821982Y-73267823D01*
X101808014Y-73260944D01*
X101781549Y-73254037D01*
X101746463Y-73248148D01*
X101732225Y-73246220D01*
X101703304Y-73241516D01*
X101686774Y-73236675D01*
X101679324Y-73230411D01*
X101677647Y-73221441D01*
X101681071Y-73211371D01*
X101699169Y-73190542D01*
X101732739Y-73163227D01*
X101757856Y-73143540D01*
X101782517Y-73118687D01*
X101793751Y-73096016D01*
X101792744Y-73072610D01*
X101780688Y-73045549D01*
X101777262Y-73039394D01*
X101764670Y-73008467D01*
X101764713Y-72986743D01*
X101777437Y-72975238D01*
X101778350Y-72974966D01*
X101795293Y-72971400D01*
X101823004Y-72966814D01*
X101855963Y-72962130D01*
X101886071Y-72957880D01*
X101929300Y-72949859D01*
X101960728Y-72940476D01*
X101983690Y-72928610D01*
X102001521Y-72913138D01*
X102005045Y-72909252D01*
X102020531Y-72887554D01*
X102027677Y-72864309D01*
X102027216Y-72834754D01*
X102019885Y-72794129D01*
X102014661Y-72765773D01*
X102009082Y-72721372D01*
X102006670Y-72681621D01*
X102007915Y-72648884D01*
X102016454Y-72609431D01*
X102035040Y-72573087D01*
X102066004Y-72534057D01*
X102069420Y-72530235D01*
X102084137Y-72512257D01*
X102091348Y-72496908D01*
X102092923Y-72477687D01*
X102090733Y-72448093D01*
X102088931Y-72424774D01*
X102089825Y-72399534D01*
X102097283Y-72383224D01*
X102113906Y-72373549D01*
X102142300Y-72368214D01*
X102185068Y-72364923D01*
X102198615Y-72363953D01*
X102248489Y-72357195D01*
X102288789Y-72346577D01*
X102318038Y-72332968D01*
X102334754Y-72317238D01*
X102337457Y-72300256D01*
X102324670Y-72282892D01*
X102308933Y-72271240D01*
X102294957Y-72263309D01*
X102293527Y-72262738D01*
X102288767Y-72256013D01*
X102295071Y-72241532D01*
X102302277Y-72228729D01*
X102303358Y-72219979D01*
X102293423Y-72215306D01*
X102269603Y-72211304D01*
X102262918Y-72210086D01*
X102230112Y-72200402D01*
X102199566Y-72186784D01*
X102182335Y-72175907D01*
X102168243Y-72160499D01*
X102162955Y-72140435D01*
X102162744Y-72130183D01*
X102167011Y-72113708D01*
X102178758Y-72096979D01*
X102199887Y-72078109D01*
X102232298Y-72055214D01*
X102277891Y-72026407D01*
X102332610Y-71990856D01*
X102381848Y-71952836D01*
X102417585Y-71916249D01*
X102441290Y-71879223D01*
X102454435Y-71839884D01*
X102458490Y-71796358D01*
X102458092Y-71784442D01*
X102450560Y-71747887D01*
X102432126Y-71714037D01*
X102401028Y-71680285D01*
X102355503Y-71644023D01*
X102324909Y-71620373D01*
X102287309Y-71588238D01*
X102255136Y-71557767D01*
X102208834Y-71510429D01*
X102226198Y-71486982D01*
X102239599Y-71470807D01*
X102275925Y-71441303D01*
X102322491Y-71420950D01*
X102382046Y-71408361D01*
X102392810Y-71406820D01*
X102426558Y-71401125D01*
X102453555Y-71395313D01*
X102468745Y-71390432D01*
X102481061Y-71375576D01*
X102482085Y-71351879D01*
X102471224Y-71323462D01*
X102465572Y-71311886D01*
X102458126Y-71271624D01*
X102466391Y-71226362D01*
X102490260Y-71176923D01*
X102497622Y-71164854D01*
X102511015Y-71140296D01*
X102518259Y-71119037D01*
X102521149Y-71094322D01*
X102521478Y-71059400D01*
X102521352Y-71048520D01*
X102519855Y-71016519D01*
X102515327Y-70992794D01*
X102505899Y-70970495D01*
X102489708Y-70942771D01*
X102489560Y-70942531D01*
X102473903Y-70915308D01*
X102462744Y-70892416D01*
X102458490Y-70878788D01*
X102458067Y-70870396D01*
X102446383Y-70832487D01*
X102419954Y-70795531D01*
X102380490Y-70762084D01*
X102379038Y-70761096D01*
X102348989Y-70738185D01*
X102334454Y-70719394D01*
X102335547Y-70702253D01*
X102352384Y-70684292D01*
X102385077Y-70663040D01*
X102388440Y-70661064D01*
X102418259Y-70641048D01*
X102437572Y-70621178D01*
X102451424Y-70596386D01*
X102462831Y-70565992D01*
X102464852Y-70544621D01*
X102455758Y-70533885D01*
X102435180Y-70532339D01*
X102429998Y-70532681D01*
X102415330Y-70530433D01*
X102406111Y-70521356D01*
X102402152Y-70503541D01*
X102403265Y-70475080D01*
X102409261Y-70434065D01*
X102419951Y-70378588D01*
X102420599Y-70375417D01*
X102429932Y-70329084D01*
X102438639Y-70284653D01*
X102445774Y-70247030D01*
X102450388Y-70221122D01*
X102453314Y-70182026D01*
X102446616Y-70117774D01*
X102427357Y-70046741D01*
X102396014Y-69971114D01*
X102387243Y-69952548D01*
X102369480Y-69912831D01*
X102354231Y-69876105D01*
X102344070Y-69848450D01*
X102333876Y-69822111D01*
X102315399Y-69796043D01*
X102289558Y-69782370D01*
X102252857Y-69778409D01*
X102239608Y-69777936D01*
X102219951Y-69774755D01*
X102212300Y-69769498D01*
X102215500Y-69757013D01*
X102226338Y-69733699D01*
X102242164Y-69706308D01*
X102260179Y-69680073D01*
X102272283Y-69661019D01*
X102284759Y-69627307D01*
X102287600Y-69594683D01*
X102280685Y-69567361D01*
X102263896Y-69549551D01*
X102261005Y-69548187D01*
X102241148Y-69546043D01*
X102211993Y-69553551D01*
X102206760Y-69555401D01*
X102184531Y-69562997D01*
X102173673Y-69564803D01*
X102170132Y-69560428D01*
X102169853Y-69549481D01*
X102174617Y-69536030D01*
X102188260Y-69514444D01*
X102207669Y-69490207D01*
X102225555Y-69467698D01*
X102244418Y-69438267D01*
X102255697Y-69413544D01*
X102261285Y-69390693D01*
X102259995Y-69375952D01*
X102250958Y-69362937D01*
X102223846Y-69344460D01*
X102189474Y-69341178D01*
X102148126Y-69353292D01*
X102133557Y-69359227D01*
X102112624Y-69365689D01*
X102101294Y-69366279D01*
X102099246Y-69364385D01*
X102096724Y-69349735D01*
X102101843Y-69327354D01*
X102113029Y-69302233D01*
X102128707Y-69279367D01*
X102138278Y-69266889D01*
X102148760Y-69244433D01*
X102152316Y-69217110D01*
X102149223Y-69181259D01*
X102139758Y-69133222D01*
X102132752Y-69101673D01*
X102094617Y-68900461D01*
X102064702Y-68686272D01*
X102043175Y-68460814D01*
X102030206Y-68225795D01*
X102025964Y-67982921D01*
X102025970Y-67976177D01*
X102026698Y-67867998D01*
X102028779Y-67773339D01*
X102032503Y-67688964D01*
X102038156Y-67611635D01*
X102046024Y-67538114D01*
X102056395Y-67465163D01*
X102069556Y-67389544D01*
X102085794Y-67308021D01*
X102112837Y-67191136D01*
X102144257Y-67082814D01*
X102179837Y-66986999D01*
X102220646Y-66901468D01*
X102267751Y-66823994D01*
X102322220Y-66752355D01*
X102385119Y-66684326D01*
X102403460Y-66666493D01*
X102460163Y-66617151D01*
X102515139Y-66579936D01*
X102571977Y-66553425D01*
X102634269Y-66536193D01*
X102705604Y-66526816D01*
X102789573Y-66523869D01*
X102840965Y-66524524D01*
X102895953Y-66527822D01*
X102948032Y-66534627D01*
X103001826Y-66545751D01*
X103061954Y-66562005D01*
X103133039Y-66584201D01*
X103140635Y-66586694D01*
X103278256Y-66637741D01*
X103422768Y-66701930D01*
X103572026Y-66778171D01*
X103723886Y-66865372D01*
X103876204Y-66962440D01*
X103883076Y-66967042D01*
X103914076Y-66987875D01*
X103943916Y-67008095D01*
X103973325Y-67028253D01*
X104003031Y-67048901D01*
X104033762Y-67070589D01*
X104066248Y-67093868D01*
X104101217Y-67119291D01*
X104139397Y-67147407D01*
X104181518Y-67178769D01*
X104228307Y-67213927D01*
X104280494Y-67253433D01*
X104338807Y-67297838D01*
X104403975Y-67347692D01*
X104476727Y-67403548D01*
X104557790Y-67465956D01*
X104647894Y-67535467D01*
X104747767Y-67612633D01*
X104858138Y-67698005D01*
X104979735Y-67792134D01*
X105113288Y-67895572D01*
X105259525Y-68008868D01*
X105280780Y-68025330D01*
X105331833Y-68064802D01*
X105378524Y-68100811D01*
X105419043Y-68131968D01*
X105451582Y-68156881D01*
X105474329Y-68174162D01*
X105485476Y-68182420D01*
X105490378Y-68185893D01*
X105509724Y-68200052D01*
X105536533Y-68220014D01*
X105566560Y-68242626D01*
X105593840Y-68262980D01*
X105650226Y-68303375D01*
X105707587Y-68342500D01*
X105763839Y-68379088D01*
X105816900Y-68411868D01*
X105864684Y-68439574D01*
X105905110Y-68460934D01*
X105936093Y-68474681D01*
X105955550Y-68479545D01*
X105955610Y-68479545D01*
X105980150Y-68471643D01*
X106001744Y-68450472D01*
X106016634Y-68419712D01*
X106017893Y-68415581D01*
X106028767Y-68387979D01*
X106040879Y-68376163D01*
X106056853Y-68379139D01*
X106079312Y-68395908D01*
X106092397Y-68407117D01*
X106107098Y-68416873D01*
X106118752Y-68417601D01*
X106133130Y-68410908D01*
X106150861Y-68394908D01*
X106158395Y-68368994D01*
X106158664Y-68366523D01*
X106163653Y-68345349D01*
X106171129Y-68333095D01*
X106174533Y-68331278D01*
X106196143Y-68330484D01*
X106223880Y-68342218D01*
X106254757Y-68365328D01*
X106259102Y-68369175D01*
X106293548Y-68392932D01*
X106325897Y-68401552D01*
X106359087Y-68395894D01*
X106393807Y-68387487D01*
X106432714Y-68390521D01*
X106473931Y-68408240D01*
X106493199Y-68418578D01*
X106528331Y-68435614D01*
X106563069Y-68450798D01*
X106587990Y-68461201D01*
X106613843Y-68472628D01*
X106629999Y-68480541D01*
X106630471Y-68480802D01*
X106650781Y-68487425D01*
X106678766Y-68491815D01*
X106706434Y-68493138D01*
X106725790Y-68490558D01*
X106732388Y-68482935D01*
X106741820Y-68462869D01*
X106750964Y-68435490D01*
X106758783Y-68411695D01*
X106768523Y-68390180D01*
X106776700Y-68380207D01*
X106783653Y-68380850D01*
X106800968Y-68389937D01*
X106821840Y-68406239D01*
X106849662Y-68428542D01*
X106876479Y-68440773D01*
X106903851Y-68440694D01*
X106936923Y-68429340D01*
X106944503Y-68426109D01*
X106983958Y-68414035D01*
X107014429Y-68413425D01*
X107034225Y-68424365D01*
X107041463Y-68431175D01*
X107054960Y-68437099D01*
X107060759Y-68438961D01*
X107077542Y-68449236D01*
X107098489Y-68465496D01*
X107115471Y-68479501D01*
X107150375Y-68503568D01*
X107179393Y-68514042D01*
X107205603Y-68510885D01*
X107232080Y-68494062D01*
X107261904Y-68463535D01*
X107264540Y-68460485D01*
X107286799Y-68433239D01*
X107305055Y-68408452D01*
X107315576Y-68391156D01*
X107324288Y-68376130D01*
X107331198Y-68371087D01*
X107332298Y-68371894D01*
X107342599Y-68381999D01*
X107361354Y-68401678D01*
X107386334Y-68428566D01*
X107415309Y-68460300D01*
X107438066Y-68485085D01*
X107467889Y-68515781D01*
X107490971Y-68536458D01*
X107509670Y-68549148D01*
X107526345Y-68555879D01*
X107534100Y-68557792D01*
X107565621Y-68559782D01*
X107590539Y-68548451D01*
X107613344Y-68522054D01*
X107620859Y-68512295D01*
X107643149Y-68489991D01*
X107670748Y-68467678D01*
X107699356Y-68448388D01*
X107724674Y-68435156D01*
X107742403Y-68431013D01*
X107745629Y-68431840D01*
X107760701Y-68443042D01*
X107775020Y-68462567D01*
X107785784Y-68480512D01*
X107823689Y-68524537D01*
X107871589Y-68555606D01*
X107881247Y-68559972D01*
X107915478Y-68570837D01*
X107946508Y-68570505D01*
X107981806Y-68559219D01*
X108017278Y-68549934D01*
X108060971Y-68550294D01*
X108107325Y-68555078D01*
X108145926Y-68513458D01*
X108165637Y-68493495D01*
X108193389Y-68468394D01*
X108217147Y-68449946D01*
X108249768Y-68428054D01*
X108281514Y-68456735D01*
X108281860Y-68457046D01*
X108306338Y-68474742D01*
X108339701Y-68493594D01*
X108374832Y-68509573D01*
X108402504Y-68519735D01*
X108431285Y-68526735D01*
X108450609Y-68524436D01*
X108463652Y-68512187D01*
X108473593Y-68489337D01*
X108476455Y-68481160D01*
X108488185Y-68457604D01*
X108501458Y-68448880D01*
X108518384Y-68453291D01*
X108523286Y-68455110D01*
X108544915Y-68458927D01*
X108576463Y-68461575D01*
X108612950Y-68462567D01*
X108658191Y-68463803D01*
X108698729Y-68469108D01*
X108728143Y-68479675D01*
X108749447Y-68496662D01*
X108765652Y-68521226D01*
X108781565Y-68546819D01*
X108810439Y-68572623D01*
X108848850Y-68586518D01*
X108863724Y-68588669D01*
X108875082Y-68584872D01*
X108881005Y-68570287D01*
X108888183Y-68553400D01*
X108903645Y-68533228D01*
X108915578Y-68523705D01*
X108924144Y-68524663D01*
X108934717Y-68538786D01*
X108944392Y-68552772D01*
X108967749Y-68578196D01*
X108991457Y-68588550D01*
X109019203Y-68584719D01*
X109054679Y-68567588D01*
X109087566Y-68553140D01*
X109129745Y-68544764D01*
X109169720Y-68546478D01*
X109202026Y-68558616D01*
X109225359Y-68567341D01*
X109248275Y-68561078D01*
X109267016Y-68538776D01*
X109274695Y-68527758D01*
X109286803Y-68523837D01*
X109300250Y-68535716D01*
X109315908Y-68563844D01*
X109324106Y-68579230D01*
X109338760Y-68599517D01*
X109351408Y-68609241D01*
X109359101Y-68609326D01*
X109381030Y-68602090D01*
X109408529Y-68586775D01*
X109430047Y-68571171D01*
X109449125Y-68550172D01*
X109460849Y-68524052D01*
X109460889Y-68523927D01*
X109469749Y-68501081D01*
X109479754Y-68490570D01*
X109495040Y-68488035D01*
X109513321Y-68490920D01*
X109536681Y-68501250D01*
X109537059Y-68501516D01*
X109546804Y-68510488D01*
X109552398Y-68523110D01*
X109554945Y-68543817D01*
X109555548Y-68577047D01*
X109556820Y-68614505D01*
X109561081Y-68638998D01*
X109568889Y-68652970D01*
X109570203Y-68654272D01*
X109583809Y-68664432D01*
X109596936Y-68663401D01*
X109615951Y-68650900D01*
X109622593Y-68646370D01*
X109644976Y-68633132D01*
X109675741Y-68616382D01*
X109710280Y-68598672D01*
X109784363Y-68561854D01*
X109816853Y-68584370D01*
X109822575Y-68588160D01*
X109861064Y-68604346D01*
X109898390Y-68603688D01*
X109934337Y-68586284D01*
X109968691Y-68552229D01*
X110001237Y-68501620D01*
X110014462Y-68479231D01*
X110027097Y-68462338D01*
X110035113Y-68456912D01*
X110036154Y-68457434D01*
X110044232Y-68468666D01*
X110052092Y-68488715D01*
X110062255Y-68517607D01*
X110073004Y-68534083D01*
X110085598Y-68538970D01*
X110090531Y-68537762D01*
X110108865Y-68530018D01*
X110135935Y-68516690D01*
X110167868Y-68499632D01*
X110212932Y-68476698D01*
X110249119Y-68464048D01*
X110280752Y-68461312D01*
X110312159Y-68468113D01*
X110347671Y-68484079D01*
X110348733Y-68484634D01*
X110380854Y-68498903D01*
X110403724Y-68501799D01*
X110421071Y-68492788D01*
X110436624Y-68471336D01*
X110437599Y-68469661D01*
X110450807Y-68451401D01*
X110462568Y-68441441D01*
X110462633Y-68441417D01*
X110475264Y-68443477D01*
X110497230Y-68452947D01*
X110523817Y-68467799D01*
X110523990Y-68467906D01*
X110550742Y-68482695D01*
X110573060Y-68491992D01*
X110586129Y-68493788D01*
X110591556Y-68490024D01*
X110606216Y-68473414D01*
X110624646Y-68447597D01*
X110644325Y-68416448D01*
X110662728Y-68383842D01*
X110677334Y-68353657D01*
X110681353Y-68343329D01*
X110689173Y-68315069D01*
X110691417Y-68292415D01*
X110691353Y-68285882D01*
X110699315Y-68260211D01*
X110717257Y-68240947D01*
X110740779Y-68233355D01*
X110750381Y-68234550D01*
X110774228Y-68247647D01*
X110794368Y-68271746D01*
X110808556Y-68302529D01*
X110814552Y-68335676D01*
X110810112Y-68366869D01*
X110804917Y-68388202D01*
X110808617Y-68405445D01*
X110823016Y-68410048D01*
X110846979Y-68400963D01*
X110857909Y-68394976D01*
X110875562Y-68388304D01*
X110892969Y-68388452D01*
X110915136Y-68395934D01*
X110947070Y-68411265D01*
X110958610Y-68416991D01*
X111006917Y-68437854D01*
X111046882Y-68448570D01*
X111082309Y-68449833D01*
X111117000Y-68442338D01*
X111130884Y-68437923D01*
X111160375Y-68430706D01*
X111181098Y-68431415D01*
X111198063Y-68440953D01*
X111216282Y-68460223D01*
X111242824Y-68491837D01*
X111274225Y-68475079D01*
X111292098Y-68463537D01*
X111319194Y-68441981D01*
X111345310Y-68417589D01*
X111360969Y-68402015D01*
X111379339Y-68386832D01*
X111393932Y-68380782D01*
X111409028Y-68381435D01*
X111431171Y-68389117D01*
X111454742Y-68403067D01*
X111469392Y-68413158D01*
X111489680Y-68419808D01*
X111509734Y-68414764D01*
X111532431Y-68397005D01*
X111560650Y-68365510D01*
X111567815Y-68356966D01*
X111588954Y-68333355D01*
X111605869Y-68316755D01*
X111615419Y-68310330D01*
X111620047Y-68310793D01*
X111629147Y-68320739D01*
X111629886Y-68340387D01*
X111621790Y-68365645D01*
X111620063Y-68369399D01*
X111612562Y-68396617D01*
X111618996Y-68415656D01*
X111640008Y-68428737D01*
X111670235Y-68436509D01*
X111705718Y-68435122D01*
X111742086Y-68421415D01*
X111780791Y-68394566D01*
X111823286Y-68353756D01*
X111871023Y-68298163D01*
X111871807Y-68297189D01*
X111902666Y-68262002D01*
X111929801Y-68238570D01*
X111957047Y-68223567D01*
X111958829Y-68222824D01*
X111999557Y-68204996D01*
X112028719Y-68189328D01*
X112050630Y-68172538D01*
X112069606Y-68151342D01*
X112089963Y-68122458D01*
X112103633Y-68102320D01*
X112130628Y-68066400D01*
X112157484Y-68038015D01*
X112187519Y-68014820D01*
X112224052Y-67994470D01*
X112270402Y-67974620D01*
X112329887Y-67952925D01*
X112364710Y-67940082D01*
X112450870Y-67901769D01*
X112537163Y-67853563D01*
X112626332Y-67793838D01*
X112721122Y-67720965D01*
X112735787Y-67709038D01*
X112772795Y-67678630D01*
X112806227Y-67650451D01*
X112837414Y-67623128D01*
X112867690Y-67595286D01*
X112898384Y-67565555D01*
X112930828Y-67532559D01*
X112966353Y-67494928D01*
X113006291Y-67451287D01*
X113051973Y-67400264D01*
X113104730Y-67340485D01*
X113165895Y-67270579D01*
X113236797Y-67189171D01*
X113264429Y-67157439D01*
X113322318Y-67091293D01*
X113372407Y-67034693D01*
X113416917Y-66985246D01*
X113458068Y-66940558D01*
X113498079Y-66898237D01*
X113539172Y-66855887D01*
X113583566Y-66811117D01*
X113633482Y-66761532D01*
X113751632Y-66648379D01*
X113881725Y-66532918D01*
X114005974Y-66432881D01*
X114124632Y-66348087D01*
X114237952Y-66278357D01*
X114346187Y-66223512D01*
X114449593Y-66183372D01*
X114494062Y-66170307D01*
X114588794Y-66152536D01*
X114679346Y-66150159D01*
X114766281Y-66163402D01*
X114850161Y-66192490D01*
X114931548Y-66237650D01*
X115011005Y-66299108D01*
X115089094Y-66377091D01*
X115166376Y-66471825D01*
X115193903Y-66509777D01*
X115268765Y-66626555D01*
X115332767Y-66749250D01*
X115386167Y-66878938D01*
X115429219Y-67016692D01*
X115462181Y-67163587D01*
X115485308Y-67320698D01*
X115498857Y-67489099D01*
X115503083Y-67669865D01*
X115498244Y-67864071D01*
X115496720Y-67895804D01*
X115493529Y-67955779D01*
X115490170Y-68011718D01*
X115486857Y-68060388D01*
X115483801Y-68098558D01*
X115481215Y-68122995D01*
X115479205Y-68138116D01*
X115474382Y-68177225D01*
X115469128Y-68222637D01*
X115464268Y-68267313D01*
X115464127Y-68268658D01*
X115451929Y-68375853D01*
X115437939Y-68482821D01*
X115422678Y-68586215D01*
X115406671Y-68682690D01*
X115390440Y-68768899D01*
X115374509Y-68841495D01*
X115365519Y-68882818D01*
X115355556Y-68957765D01*
X115356854Y-69020330D01*
X115369429Y-69070748D01*
X115393299Y-69109249D01*
X115394961Y-69111176D01*
X115402396Y-69130069D01*
X115393292Y-69147565D01*
X115368043Y-69162827D01*
X115356543Y-69167985D01*
X115337158Y-69180574D01*
X115325061Y-69197820D01*
X115318025Y-69223826D01*
X115313821Y-69262697D01*
X115312456Y-69284585D01*
X115312728Y-69315339D01*
X115317332Y-69340199D01*
X115327171Y-69366158D01*
X115337668Y-69392825D01*
X115344154Y-69425040D01*
X115339184Y-69450906D01*
X115322596Y-69474292D01*
X115308983Y-69490274D01*
X115304813Y-69503668D01*
X115309862Y-69519725D01*
X115318288Y-69544778D01*
X115316783Y-69567045D01*
X115302250Y-69579087D01*
X115297069Y-69581230D01*
X115277358Y-69593229D01*
X115255559Y-69610251D01*
X115247783Y-69617595D01*
X115232305Y-69639333D01*
X115226531Y-69664988D01*
X115230116Y-69698122D01*
X115242712Y-69742296D01*
X115246012Y-69753071D01*
X115253987Y-69790817D01*
X115259429Y-69839264D01*
X115262729Y-69901504D01*
X115263934Y-69932056D01*
X115266902Y-69976831D01*
X115271538Y-70012624D01*
X115278606Y-70044579D01*
X115288867Y-70077836D01*
X115302242Y-70120024D01*
X115309174Y-70151605D01*
X115309119Y-70174522D01*
X115302053Y-70192243D01*
X115287952Y-70208238D01*
X115279143Y-70216401D01*
X115237875Y-70256053D01*
X115208208Y-70288967D01*
X115188855Y-70318566D01*
X115178534Y-70348276D01*
X115175961Y-70381519D01*
X115179850Y-70421719D01*
X115188919Y-70472301D01*
X115191100Y-70497330D01*
X115188727Y-70522157D01*
X115183817Y-70535808D01*
X115173992Y-70541515D01*
X115153822Y-70539778D01*
X115135028Y-70537779D01*
X115126330Y-70541943D01*
X115124532Y-70555161D01*
X115127997Y-70582289D01*
X115145867Y-70622102D01*
X115176882Y-70656684D01*
X115218719Y-70682883D01*
X115219068Y-70683041D01*
X115242320Y-70698180D01*
X115256679Y-70716381D01*
X115260203Y-70733804D01*
X115250949Y-70746607D01*
X115231124Y-70758698D01*
X115192124Y-70788274D01*
X115161059Y-70819888D01*
X115140506Y-70850676D01*
X115133040Y-70877774D01*
X115132838Y-70880736D01*
X115127296Y-70900926D01*
X115116548Y-70924465D01*
X115089129Y-70979046D01*
X115070237Y-71031997D01*
X115063599Y-71078564D01*
X115068893Y-71121232D01*
X115085799Y-71162489D01*
X115091078Y-71172239D01*
X115108567Y-71205354D01*
X115124046Y-71235651D01*
X115141601Y-71270934D01*
X115122617Y-71327792D01*
X115103633Y-71384650D01*
X115123512Y-71400747D01*
X115146760Y-71412347D01*
X115185110Y-71416845D01*
X115204466Y-71417732D01*
X115250126Y-71426040D01*
X115293586Y-71441563D01*
X115331151Y-71462427D01*
X115359127Y-71486755D01*
X115373821Y-71512672D01*
X115374130Y-71519057D01*
X115367624Y-71534789D01*
X115350993Y-71556044D01*
X115323267Y-71583840D01*
X115283475Y-71619197D01*
X115230649Y-71663133D01*
X115211712Y-71678838D01*
X115177097Y-71710631D01*
X115154109Y-71738675D01*
X115140762Y-71766567D01*
X115135069Y-71797901D01*
X115135046Y-71836275D01*
X115137972Y-71894909D01*
X115202608Y-71955883D01*
X115231293Y-71981311D01*
X115283426Y-72021040D01*
X115333840Y-72052120D01*
X115345505Y-72058318D01*
X115381100Y-72077797D01*
X115404965Y-72092425D01*
X115419868Y-72104309D01*
X115428578Y-72115556D01*
X115433861Y-72128272D01*
X115435934Y-72141567D01*
X115428244Y-72166764D01*
X115406711Y-72189252D01*
X115373411Y-72207210D01*
X115330422Y-72218822D01*
X115304392Y-72224754D01*
X115277648Y-72238657D01*
X115262963Y-72261107D01*
X115257663Y-72294902D01*
X115257301Y-72310340D01*
X115259382Y-72329621D01*
X115267581Y-72341879D01*
X115284890Y-72353557D01*
X115303522Y-72362110D01*
X115336602Y-72369818D01*
X115382517Y-72373948D01*
X115427185Y-72377106D01*
X115464112Y-72383323D01*
X115488021Y-72393894D01*
X115500999Y-72410455D01*
X115505131Y-72434643D01*
X115502502Y-72468094D01*
X115500423Y-72487694D01*
X115502052Y-72506338D01*
X115510442Y-72524301D01*
X115527728Y-72548377D01*
X115540561Y-72565677D01*
X115560111Y-72596095D01*
X115573155Y-72625368D01*
X115580325Y-72657055D01*
X115582257Y-72694715D01*
X115579584Y-72741906D01*
X115572939Y-72802185D01*
X115568980Y-72837652D01*
X115567028Y-72869399D01*
X115568333Y-72891170D01*
X115572896Y-72906663D01*
X115578853Y-72915871D01*
X115602442Y-72935127D01*
X115637683Y-72952202D01*
X115680937Y-72965531D01*
X115728562Y-72973551D01*
X115771564Y-72979343D01*
X115806739Y-72987362D01*
X115829528Y-72996689D01*
X115837634Y-73006629D01*
X115834164Y-73016332D01*
X115822959Y-73031957D01*
X115819901Y-73035835D01*
X115811030Y-73059136D01*
X115808103Y-73095818D01*
X115808499Y-73120219D01*
X115811781Y-73138293D01*
X115820613Y-73150420D01*
X115837634Y-73162563D01*
X115864782Y-73180662D01*
X115893256Y-73202537D01*
X115909120Y-73219864D01*
X115914038Y-73234202D01*
X115914038Y-73234205D01*
X115909009Y-73246863D01*
X115891677Y-73250535D01*
X115890370Y-73250547D01*
X115865875Y-73253068D01*
X115838619Y-73258638D01*
X115837134Y-73259028D01*
X115809521Y-73265898D01*
X115785513Y-73271298D01*
X115775901Y-73274059D01*
X115764667Y-73284323D01*
X115759608Y-73305807D01*
X115758520Y-73327686D01*
X115763708Y-73353511D01*
X115778650Y-73376194D01*
X115804099Y-73397471D01*
X115805452Y-73398602D01*
G37*
%LPC*%
D12*
X95040000Y-54880000D03*
D13*
X92500000Y-54880000D03*
X89960000Y-54880000D03*
X87420000Y-54880000D03*
X87420000Y-70120000D03*
X89960000Y-70120000D03*
X92500000Y-70120000D03*
X95040000Y-70120000D03*
X97580000Y-70120000D03*
D14*
X115000000Y-60000000D03*
D15*
X115000000Y-58000000D03*
X115000000Y-56000000D03*
X115000000Y-54000000D03*
%LPD*%
M02*
