G04 #@! TF.GenerationSoftware,KiCad,Pcbnew,7.0.8*
G04 #@! TF.CreationDate,2023-11-15T13:15:02+05:30*
G04 #@! TF.ProjectId,m5-atom-carrier-board,6d352d61-746f-46d2-9d63-617272696572,1*
G04 #@! TF.SameCoordinates,Original*
G04 #@! TF.FileFunction,Copper,L1,Top*
G04 #@! TF.FilePolarity,Positive*
%FSLAX46Y46*%
G04 Gerber Fmt 4.6, Leading zero omitted, Abs format (unit mm)*
G04 Created by KiCad (PCBNEW 7.0.8) date 2023-11-15 13:15:02*
%MOMM*%
%LPD*%
G01*
G04 APERTURE LIST*
G04 Aperture macros list*
%AMRoundRect*
0 Rectangle with rounded corners*
0 $1 Rounding radius*
0 $2 $3 $4 $5 $6 $7 $8 $9 X,Y pos of 4 corners*
0 Add a 4 corners polygon primitive as box body*
4,1,4,$2,$3,$4,$5,$6,$7,$8,$9,$2,$3,0*
0 Add four circle primitives for the rounded corners*
1,1,$1+$1,$2,$3*
1,1,$1+$1,$4,$5*
1,1,$1+$1,$6,$7*
1,1,$1+$1,$8,$9*
0 Add four rect primitives between the rounded corners*
20,1,$1+$1,$2,$3,$4,$5,0*
20,1,$1+$1,$4,$5,$6,$7,0*
20,1,$1+$1,$6,$7,$8,$9,0*
20,1,$1+$1,$8,$9,$2,$3,0*%
G04 Aperture macros list end*
G04 #@! TA.AperFunction,SMDPad,CuDef*
%ADD10RoundRect,0.250000X-0.350000X-0.450000X0.350000X-0.450000X0.350000X0.450000X-0.350000X0.450000X0*%
G04 #@! TD*
G04 #@! TA.AperFunction,SMDPad,CuDef*
%ADD11RoundRect,0.250000X-0.325000X-0.450000X0.325000X-0.450000X0.325000X0.450000X-0.325000X0.450000X0*%
G04 #@! TD*
G04 #@! TA.AperFunction,SMDPad,CuDef*
%ADD12RoundRect,0.250000X0.350000X0.450000X-0.350000X0.450000X-0.350000X-0.450000X0.350000X-0.450000X0*%
G04 #@! TD*
G04 #@! TA.AperFunction,ComponentPad*
%ADD13R,1.800000X1.800000*%
G04 #@! TD*
G04 #@! TA.AperFunction,ComponentPad*
%ADD14C,1.800000*%
G04 #@! TD*
G04 #@! TA.AperFunction,ComponentPad*
%ADD15R,1.524000X1.524000*%
G04 #@! TD*
G04 #@! TA.AperFunction,ComponentPad*
%ADD16C,1.524000*%
G04 #@! TD*
G04 #@! TA.AperFunction,SMDPad,CuDef*
%ADD17R,1.100000X1.800000*%
G04 #@! TD*
G04 #@! TA.AperFunction,ViaPad*
%ADD18C,0.800000*%
G04 #@! TD*
G04 #@! TA.AperFunction,Conductor*
%ADD19C,0.250000*%
G04 #@! TD*
G04 #@! TA.AperFunction,Conductor*
%ADD20C,0.152400*%
G04 #@! TD*
G04 APERTURE END LIST*
D10*
X109000000Y-64000000D03*
X111000000Y-64000000D03*
D11*
X108975000Y-55000000D03*
X111025000Y-55000000D03*
D12*
X111000000Y-70000000D03*
X109000000Y-70000000D03*
X111000000Y-61000000D03*
X109000000Y-61000000D03*
D13*
X95040000Y-54880000D03*
D14*
X92500000Y-54880000D03*
X89960000Y-54880000D03*
X87420000Y-54880000D03*
X87420000Y-70120000D03*
X89960000Y-70120000D03*
X92500000Y-70120000D03*
X95040000Y-70120000D03*
X97580000Y-70120000D03*
D15*
X115000000Y-60000000D03*
D16*
X115000000Y-58000000D03*
X115000000Y-56000000D03*
X115000000Y-54000000D03*
D10*
X109000000Y-58000000D03*
X111000000Y-58000000D03*
D12*
X111000000Y-67000000D03*
X109000000Y-67000000D03*
D17*
X113150000Y-71100000D03*
X113150000Y-64900000D03*
X116850000Y-71100000D03*
X116850000Y-64900000D03*
D18*
X111000000Y-71900000D03*
X109000000Y-59500000D03*
X111000000Y-65500000D03*
D19*
X110389214Y-54000000D02*
X115000000Y-54000000D01*
D20*
X109000000Y-55000000D02*
X108975000Y-55000000D01*
D19*
X109707107Y-55707107D02*
X109000000Y-55000000D01*
X108975000Y-55000000D02*
X109682107Y-54292893D01*
X111000000Y-70000000D02*
X111000000Y-71900000D01*
X109000000Y-61000000D02*
X109707107Y-60292893D01*
X110000000Y-59585786D02*
X110000000Y-56414214D01*
X109999990Y-56414214D02*
G75*
G03*
X109707107Y-55707107I-999990J14D01*
G01*
X110389214Y-54000010D02*
G75*
G03*
X109682107Y-54292893I-14J-999990D01*
G01*
X109707114Y-60292900D02*
G75*
G03*
X110000000Y-59585786I-707114J707100D01*
G01*
D20*
X111000000Y-55025000D02*
X111025000Y-55000000D01*
D19*
X111000000Y-58000000D02*
X111000000Y-55025000D01*
X113535534Y-64514466D02*
X113150000Y-64900000D01*
X116500000Y-57257359D02*
X116500000Y-54000000D01*
X115000000Y-60000000D02*
X115621321Y-59378679D01*
X115000000Y-60000000D02*
X112414214Y-60000000D01*
X97455534Y-52464466D02*
X95040000Y-54880000D01*
X113150000Y-71100000D02*
X113150000Y-64900000D01*
X113500000Y-51000000D02*
X100991068Y-51000000D01*
X111707107Y-60292893D02*
X111000000Y-61000000D01*
X115000000Y-60000000D02*
X115000000Y-60978932D01*
X116500000Y-54000000D02*
G75*
G03*
X113500000Y-51000000I-3000000J0D01*
G01*
X115621341Y-59378699D02*
G75*
G03*
X116500000Y-57257359I-2121341J2121299D01*
G01*
X100991068Y-50999978D02*
G75*
G03*
X97455535Y-52464467I32J-5000022D01*
G01*
X113535518Y-64514450D02*
G75*
G03*
X115000000Y-60978932I-3535518J3535550D01*
G01*
X112414214Y-60000010D02*
G75*
G03*
X111707107Y-60292893I-14J-999990D01*
G01*
X109000000Y-58000000D02*
X109000000Y-59500000D01*
X111000000Y-64000000D02*
X111000000Y-65500000D01*
X107975000Y-71500000D02*
X107975000Y-68439214D01*
X112378932Y-73500000D02*
X109975000Y-73500000D01*
X109000000Y-64000000D02*
X109000000Y-67000000D01*
X116850000Y-71100000D02*
X116850000Y-64900000D01*
X97580000Y-71500000D02*
X97580000Y-70120000D01*
X112378932Y-73500000D02*
X114850000Y-73500000D01*
X116850000Y-71100000D02*
X116850000Y-71500000D01*
X99580000Y-73500000D02*
X111000000Y-73500000D01*
X108267893Y-67732107D02*
X109000000Y-67000000D01*
X114850000Y-73500000D02*
G75*
G03*
X116850000Y-71500000I0J2000000D01*
G01*
X107975000Y-71500000D02*
G75*
G03*
X109975000Y-73500000I2000000J0D01*
G01*
X108267866Y-67732080D02*
G75*
G03*
X107975000Y-68439214I707234J-707120D01*
G01*
X97580000Y-71500000D02*
G75*
G03*
X99580000Y-73500000I2000000J0D01*
G01*
X109000000Y-70000000D02*
X110707107Y-68292893D01*
X111000000Y-67585786D02*
X111000000Y-67000000D01*
X110707114Y-68292900D02*
G75*
G03*
X111000000Y-67585786I-707114J707100D01*
G01*
M02*
